<?xml version="1.0" encoding="utf-8" standalone="no"?>
<!DOCTYPE svg PUBLIC "-//W3C//DTD SVG 1.1//EN"
  "http://www.w3.org/Graphics/SVG/1.1/DTD/svg11.dtd">
<svg xmlns:xlink="http://www.w3.org/1999/xlink" width="597.273244pt" height="335.957812pt" viewBox="0 0 597.273244 335.957812" xmlns="http://www.w3.org/2000/svg" version="1.1">
 <metadata>
  <rdf:RDF xmlns:dc="http://purl.org/dc/elements/1.1/" xmlns:cc="http://creativecommons.org/ns#" xmlns:rdf="http://www.w3.org/1999/02/22-rdf-syntax-ns#">
   <cc:Work>
    <dc:type rdf:resource="http://purl.org/dc/dcmitype/StillImage"/>
    <dc:date>2026-06-13T15:06:45.333258</dc:date>
    <dc:format>image/svg+xml</dc:format>
    <dc:creator>
     <cc:Agent>
      <dc:title>Matplotlib v3.10.6, https://matplotlib.org/</dc:title>
     </cc:Agent>
    </dc:creator>
   </cc:Work>
  </rdf:RDF>
 </metadata>
 <defs>
  <style type="text/css">*{stroke-linejoin: round; stroke-linecap: butt}</style>
 </defs>
 <g id="figure_1">
  <g id="patch_1">
   <path d="M 0 335.957812 
L 597.273244 335.957812 
L 597.273244 0 
L 0 0 
z
" style="fill: #ffffff"/>
  </g>
  <g id="axes_1">
   <g id="matplotlib.axis_1"/>
   <g id="matplotlib.axis_2"/>
   <g id="patch_2">
    <path d="M 275.448656 137.967934 
C 267.391551 113.628666 251.861634 92.438597 231.078393 77.426148 
C 210.295148 62.4137 185.298188 54.329812 159.659995 54.329812 
L 159.659997 105.556372 
C 174.530149 105.556372 189.028386 110.245027 201.082668 118.952247 
C 213.136948 127.659467 222.144299 139.949708 226.81742 154.066483 
z
" style="fill: #0c7c8c; stroke: #ffffff; stroke-width: 1.5; stroke-linejoin: miter"/>
   </g>
   <g id="patch_3">
    <path d="M 235.549051 271.781032 
C 255.095602 256.24564 269.408224 235.076508 276.542726 211.14922 
C 283.677228 187.221932 283.29524 161.671254 275.448656 137.967934 
L 226.81742 154.066483 
C 231.368439 167.814408 231.589992 182.633802 227.451981 196.511629 
C 223.31397 210.389456 215.012649 222.667553 203.67565 231.67808 
z
" style="fill: #e8743b; stroke: #ffffff; stroke-width: 1.5; stroke-linejoin: miter"/>
   </g>
   <g id="patch_4">
    <path d="M 152.931217 298.08006 
C 167.722593 298.897316 182.539883 297.013005 196.655896 292.51957 
C 210.771909 288.026136 223.951888 280.998334 235.549051 271.781032 
L 203.67565 231.67808 
C 196.949295 237.024115 189.304907 241.10024 181.11762 243.706432 
C 172.930332 246.312624 164.336304 247.405525 155.757306 246.931516 
z
" style="fill: #f2b134; stroke: #ffffff; stroke-width: 1.5; stroke-linejoin: miter"/>
   </g>
   <g id="patch_5">
    <path d="M 79.884344 268.558514 
C 90.021262 277.323667 101.5338 284.35855 113.958415 289.3799 
C 126.38303 294.40125 139.550693 297.340752 152.931217 298.08006 
L 155.757306 246.931516 
C 147.996602 246.502717 140.359357 244.797806 133.153081 241.885423 
C 125.946804 238.97304 119.269532 234.892808 113.39012 229.809019 
z
" style="fill: #5a9e6f; stroke: #ffffff; stroke-width: 1.5; stroke-linejoin: miter"/>
   </g>
   <g id="patch_6">
    <path d="M 48.335786 226.128645 
C 51.968499 234.24428 56.477796 241.938397 61.783223 249.073699 
C 67.08865 256.209 73.158459 262.742801 79.884344 268.558514 
L 113.39012 229.809019 
C 109.489106 226.435906 105.968617 222.646301 102.89147 218.507827 
C 99.814322 214.369352 97.198929 209.906764 95.091956 205.199695 
z
" style="fill: #8c6bb1; stroke: #ffffff; stroke-width: 1.5; stroke-linejoin: miter"/>
   </g>
   <g id="patch_7">
    <path d="M 38.287932 188.34001 
C 38.934499 194.856726 40.104866 201.310798 41.787672 207.639605 
C 43.470477 213.968413 45.660267 220.151421 48.335786 226.128645 
L 95.091956 205.199695 
C 93.540155 201.732906 92.270077 198.146761 91.294049 194.476052 
C 90.318022 190.805344 89.639209 187.061982 89.264201 183.282287 
z
" style="fill: #c0504d; stroke: #ffffff; stroke-width: 1.5; stroke-linejoin: miter"/>
   </g>
   <g id="patch_8">
    <path d="M 37.764568 172.091017 
C 37.671034 174.801234 37.667922 177.513818 37.755219 180.224244 
C 37.842515 182.934669 38.020183 185.641429 38.287932 188.34001 
L 89.264201 183.282287 
C 89.108906 181.71711 89.005859 180.147189 88.955227 178.575142 
C 88.904595 177.003096 88.9064 175.429797 88.960649 173.857871 
z
" style="fill: #9aa5ab; stroke: #ffffff; stroke-width: 1.5; stroke-linejoin: miter"/>
   </g>
   <g id="patch_9">
    <path d="M 39.406902 155.91682 
C 38.953757 158.590513 38.5899 161.278576 38.31595 163.976524 
C 38.042 166.674473 37.858102 169.380809 37.764568 172.091017 
L 88.960649 173.857871 
C 89.014899 172.28595 89.12156 170.716275 89.280451 169.151465 
C 89.439342 167.586655 89.650379 166.027579 89.913203 164.476837 
z
" style="fill: #23414e; stroke: #ffffff; stroke-width: 1.5; stroke-linejoin: miter"/>
   </g>
   <g id="patch_10">
    <path d="M 42.384251 142.792721 
C 41.767759 144.950597 41.210939 147.125076 40.714429 149.313676 
C 40.21792 151.502276 39.78191 153.704162 39.406902 155.91682 
L 89.913203 164.476837 
C 90.130708 163.193495 90.383594 161.916401 90.671569 160.647013 
C 90.959545 159.377625 91.2825 158.116428 91.640065 156.86486 
z
" style="fill: #0c7c8c; stroke: #ffffff; stroke-width: 1.5; stroke-linejoin: miter"/>
   </g>
   <g id="patch_11">
    <path d="M 46.789306 130.076607 
C 45.938841 132.153417 45.145859 134.253312 44.411262 136.373875 
C 43.676665 138.494439 43.000742 140.63486 42.384251 142.792721 
L 91.640065 156.86486 
C 91.99763 155.6133 92.389665 154.371856 92.815732 153.141929 
C 93.241798 151.912002 93.701728 150.694063 94.194997 149.489513 
z
" style="fill: #e8743b; stroke: #ffffff; stroke-width: 1.5; stroke-linejoin: miter"/>
   </g>
   <g id="patch_12">
    <path d="M 159.660001 54.329812 
C 135.456319 54.329812 111.791779 61.534381 91.694252 75.0217 
C 71.596726 88.50902 55.961578 107.678221 46.789306 130.076607 
L 94.194997 149.489513 
C 99.514915 136.498449 108.583301 125.380313 120.239866 117.557668 
C 131.896432 109.735022 145.621865 105.556372 159.660001 105.556372 
z
" style="fill: #9aa5ab; stroke: #ffffff; stroke-width: 1.5; stroke-linejoin: miter"/>
   </g>
   <g id="text_1">
    <!-- What the research is about (subfields) -->
    <g style="fill: #23414e" transform="translate(7.437344 17.837812) scale(0.14 -0.14)">
     <defs>
      <path id="DejaVuSans-Bold-57" d="M 191 4666 
L 1344 4666 
L 2150 1275 
L 2950 4666 
L 4109 4666 
L 4909 1275 
L 5716 4666 
L 6859 4666 
L 5759 0 
L 4372 0 
L 3525 3547 
L 2688 0 
L 1300 0 
L 191 4666 
z
" transform="scale(0.015625)"/>
      <path id="DejaVuSans-Bold-68" d="M 4056 2131 
L 4056 0 
L 2931 0 
L 2931 347 
L 2931 1625 
Q 2931 2084 2911 2256 
Q 2891 2428 2841 2509 
Q 2775 2619 2662 2680 
Q 2550 2741 2406 2741 
Q 2056 2741 1856 2470 
Q 1656 2200 1656 1722 
L 1656 0 
L 538 0 
L 538 4863 
L 1656 4863 
L 1656 2988 
Q 1909 3294 2193 3439 
Q 2478 3584 2822 3584 
Q 3428 3584 3742 3212 
Q 4056 2841 4056 2131 
z
" transform="scale(0.015625)"/>
      <path id="DejaVuSans-Bold-61" d="M 2106 1575 
Q 1756 1575 1579 1456 
Q 1403 1338 1403 1106 
Q 1403 894 1545 773 
Q 1688 653 1941 653 
Q 2256 653 2472 879 
Q 2688 1106 2688 1447 
L 2688 1575 
L 2106 1575 
z
M 3816 1997 
L 3816 0 
L 2688 0 
L 2688 519 
Q 2463 200 2181 54 
Q 1900 -91 1497 -91 
Q 953 -91 614 226 
Q 275 544 275 1050 
Q 275 1666 698 1953 
Q 1122 2241 2028 2241 
L 2688 2241 
L 2688 2328 
Q 2688 2594 2478 2717 
Q 2269 2841 1825 2841 
Q 1466 2841 1156 2769 
Q 847 2697 581 2553 
L 581 3406 
Q 941 3494 1303 3539 
Q 1666 3584 2028 3584 
Q 2975 3584 3395 3211 
Q 3816 2838 3816 1997 
z
" transform="scale(0.015625)"/>
      <path id="DejaVuSans-Bold-74" d="M 1759 4494 
L 1759 3500 
L 2913 3500 
L 2913 2700 
L 1759 2700 
L 1759 1216 
Q 1759 972 1856 886 
Q 1953 800 2241 800 
L 2816 800 
L 2816 0 
L 1856 0 
Q 1194 0 917 276 
Q 641 553 641 1216 
L 641 2700 
L 84 2700 
L 84 3500 
L 641 3500 
L 641 4494 
L 1759 4494 
z
" transform="scale(0.015625)"/>
      <path id="DejaVuSans-Bold-20" transform="scale(0.015625)"/>
      <path id="DejaVuSans-Bold-65" d="M 4031 1759 
L 4031 1441 
L 1416 1441 
Q 1456 1047 1700 850 
Q 1944 653 2381 653 
Q 2734 653 3104 758 
Q 3475 863 3866 1075 
L 3866 213 
Q 3469 63 3072 -14 
Q 2675 -91 2278 -91 
Q 1328 -91 801 392 
Q 275 875 275 1747 
Q 275 2603 792 3093 
Q 1309 3584 2216 3584 
Q 3041 3584 3536 3087 
Q 4031 2591 4031 1759 
z
M 2881 2131 
Q 2881 2450 2695 2645 
Q 2509 2841 2209 2841 
Q 1884 2841 1681 2658 
Q 1478 2475 1428 2131 
L 2881 2131 
z
" transform="scale(0.015625)"/>
      <path id="DejaVuSans-Bold-72" d="M 3138 2547 
Q 2991 2616 2845 2648 
Q 2700 2681 2553 2681 
Q 2122 2681 1889 2404 
Q 1656 2128 1656 1613 
L 1656 0 
L 538 0 
L 538 3500 
L 1656 3500 
L 1656 2925 
Q 1872 3269 2151 3426 
Q 2431 3584 2822 3584 
Q 2878 3584 2943 3579 
Q 3009 3575 3134 3559 
L 3138 2547 
z
" transform="scale(0.015625)"/>
      <path id="DejaVuSans-Bold-73" d="M 3272 3391 
L 3272 2541 
Q 2913 2691 2578 2766 
Q 2244 2841 1947 2841 
Q 1628 2841 1473 2761 
Q 1319 2681 1319 2516 
Q 1319 2381 1436 2309 
Q 1553 2238 1856 2203 
L 2053 2175 
Q 2913 2066 3209 1816 
Q 3506 1566 3506 1031 
Q 3506 472 3093 190 
Q 2681 -91 1863 -91 
Q 1516 -91 1145 -36 
Q 775 19 384 128 
L 384 978 
Q 719 816 1070 734 
Q 1422 653 1784 653 
Q 2113 653 2278 743 
Q 2444 834 2444 1013 
Q 2444 1163 2330 1236 
Q 2216 1309 1875 1350 
L 1678 1375 
Q 931 1469 631 1722 
Q 331 1975 331 2491 
Q 331 3047 712 3315 
Q 1094 3584 1881 3584 
Q 2191 3584 2531 3537 
Q 2872 3491 3272 3391 
z
" transform="scale(0.015625)"/>
      <path id="DejaVuSans-Bold-63" d="M 3366 3391 
L 3366 2478 
Q 3138 2634 2908 2709 
Q 2678 2784 2431 2784 
Q 1963 2784 1702 2511 
Q 1441 2238 1441 1747 
Q 1441 1256 1702 982 
Q 1963 709 2431 709 
Q 2694 709 2930 787 
Q 3166 866 3366 1019 
L 3366 103 
Q 3103 6 2833 -42 
Q 2563 -91 2291 -91 
Q 1344 -91 809 395 
Q 275 881 275 1747 
Q 275 2613 809 3098 
Q 1344 3584 2291 3584 
Q 2566 3584 2833 3536 
Q 3100 3488 3366 3391 
z
" transform="scale(0.015625)"/>
      <path id="DejaVuSans-Bold-69" d="M 538 3500 
L 1656 3500 
L 1656 0 
L 538 0 
L 538 3500 
z
M 538 4863 
L 1656 4863 
L 1656 3950 
L 538 3950 
L 538 4863 
z
" transform="scale(0.015625)"/>
      <path id="DejaVuSans-Bold-62" d="M 2400 722 
Q 2759 722 2948 984 
Q 3138 1247 3138 1747 
Q 3138 2247 2948 2509 
Q 2759 2772 2400 2772 
Q 2041 2772 1848 2508 
Q 1656 2244 1656 1747 
Q 1656 1250 1848 986 
Q 2041 722 2400 722 
z
M 1656 2988 
Q 1888 3294 2169 3439 
Q 2450 3584 2816 3584 
Q 3463 3584 3878 3070 
Q 4294 2556 4294 1747 
Q 4294 938 3878 423 
Q 3463 -91 2816 -91 
Q 2450 -91 2169 54 
Q 1888 200 1656 506 
L 1656 0 
L 538 0 
L 538 4863 
L 1656 4863 
L 1656 2988 
z
" transform="scale(0.015625)"/>
      <path id="DejaVuSans-Bold-6f" d="M 2203 2784 
Q 1831 2784 1636 2517 
Q 1441 2250 1441 1747 
Q 1441 1244 1636 976 
Q 1831 709 2203 709 
Q 2569 709 2762 976 
Q 2956 1244 2956 1747 
Q 2956 2250 2762 2517 
Q 2569 2784 2203 2784 
z
M 2203 3584 
Q 3106 3584 3614 3096 
Q 4122 2609 4122 1747 
Q 4122 884 3614 396 
Q 3106 -91 2203 -91 
Q 1297 -91 786 396 
Q 275 884 275 1747 
Q 275 2609 786 3096 
Q 1297 3584 2203 3584 
z
" transform="scale(0.015625)"/>
      <path id="DejaVuSans-Bold-75" d="M 500 1363 
L 500 3500 
L 1625 3500 
L 1625 3150 
Q 1625 2866 1622 2436 
Q 1619 2006 1619 1863 
Q 1619 1441 1641 1255 
Q 1663 1069 1716 984 
Q 1784 875 1895 815 
Q 2006 756 2150 756 
Q 2500 756 2700 1025 
Q 2900 1294 2900 1772 
L 2900 3500 
L 4019 3500 
L 4019 0 
L 2900 0 
L 2900 506 
Q 2647 200 2364 54 
Q 2081 -91 1741 -91 
Q 1134 -91 817 281 
Q 500 653 500 1363 
z
" transform="scale(0.015625)"/>
      <path id="DejaVuSans-Bold-28" d="M 2413 -844 
L 1484 -844 
Q 1006 -72 778 623 
Q 550 1319 550 2003 
Q 550 2688 779 3389 
Q 1009 4091 1484 4856 
L 2413 4856 
Q 2013 4116 1813 3408 
Q 1613 2700 1613 2009 
Q 1613 1319 1811 609 
Q 2009 -100 2413 -844 
z
" transform="scale(0.015625)"/>
      <path id="DejaVuSans-Bold-66" d="M 2841 4863 
L 2841 4128 
L 2222 4128 
Q 1984 4128 1890 4042 
Q 1797 3956 1797 3744 
L 1797 3500 
L 2753 3500 
L 2753 2700 
L 1797 2700 
L 1797 0 
L 678 0 
L 678 2700 
L 122 2700 
L 122 3500 
L 678 3500 
L 678 3744 
Q 678 4316 997 4589 
Q 1316 4863 1984 4863 
L 2841 4863 
z
" transform="scale(0.015625)"/>
      <path id="DejaVuSans-Bold-6c" d="M 538 4863 
L 1656 4863 
L 1656 0 
L 538 0 
L 538 4863 
z
" transform="scale(0.015625)"/>
      <path id="DejaVuSans-Bold-64" d="M 2919 2988 
L 2919 4863 
L 4044 4863 
L 4044 0 
L 2919 0 
L 2919 506 
Q 2688 197 2409 53 
Q 2131 -91 1766 -91 
Q 1119 -91 703 423 
Q 288 938 288 1747 
Q 288 2556 703 3070 
Q 1119 3584 1766 3584 
Q 2128 3584 2408 3439 
Q 2688 3294 2919 2988 
z
M 2181 722 
Q 2541 722 2730 984 
Q 2919 1247 2919 1747 
Q 2919 2247 2730 2509 
Q 2541 2772 2181 2772 
Q 1825 2772 1636 2509 
Q 1447 2247 1447 1747 
Q 1447 1247 1636 984 
Q 1825 722 2181 722 
z
" transform="scale(0.015625)"/>
      <path id="DejaVuSans-Bold-29" d="M 513 -844 
Q 913 -100 1113 609 
Q 1313 1319 1313 2009 
Q 1313 2700 1113 3408 
Q 913 4116 513 4856 
L 1441 4856 
Q 1916 4091 2145 3389 
Q 2375 2688 2375 2003 
Q 2375 1319 2147 623 
Q 1919 -72 1441 -844 
L 513 -844 
z
" transform="scale(0.015625)"/>
     </defs>
     <use xlink:href="#DejaVuSans-Bold-57"/>
     <use xlink:href="#DejaVuSans-Bold-68" transform="translate(110.302734 0)"/>
     <use xlink:href="#DejaVuSans-Bold-61" transform="translate(181.494141 0)"/>
     <use xlink:href="#DejaVuSans-Bold-74" transform="translate(248.974609 0)"/>
     <use xlink:href="#DejaVuSans-Bold-20" transform="translate(296.777344 0)"/>
     <use xlink:href="#DejaVuSans-Bold-74" transform="translate(331.591797 0)"/>
     <use xlink:href="#DejaVuSans-Bold-68" transform="translate(379.394531 0)"/>
     <use xlink:href="#DejaVuSans-Bold-65" transform="translate(450.585938 0)"/>
     <use xlink:href="#DejaVuSans-Bold-20" transform="translate(518.408203 0)"/>
     <use xlink:href="#DejaVuSans-Bold-72" transform="translate(553.222656 0)"/>
     <use xlink:href="#DejaVuSans-Bold-65" transform="translate(602.539062 0)"/>
     <use xlink:href="#DejaVuSans-Bold-73" transform="translate(670.361328 0)"/>
     <use xlink:href="#DejaVuSans-Bold-65" transform="translate(729.882812 0)"/>
     <use xlink:href="#DejaVuSans-Bold-61" transform="translate(797.705078 0)"/>
     <use xlink:href="#DejaVuSans-Bold-72" transform="translate(865.185547 0)"/>
     <use xlink:href="#DejaVuSans-Bold-63" transform="translate(914.501953 0)"/>
     <use xlink:href="#DejaVuSans-Bold-68" transform="translate(973.779297 0)"/>
     <use xlink:href="#DejaVuSans-Bold-20" transform="translate(1044.970703 0)"/>
     <use xlink:href="#DejaVuSans-Bold-69" transform="translate(1079.785156 0)"/>
     <use xlink:href="#DejaVuSans-Bold-73" transform="translate(1114.0625 0)"/>
     <use xlink:href="#DejaVuSans-Bold-20" transform="translate(1173.583984 0)"/>
     <use xlink:href="#DejaVuSans-Bold-61" transform="translate(1208.398438 0)"/>
     <use xlink:href="#DejaVuSans-Bold-62" transform="translate(1275.878906 0)"/>
     <use xlink:href="#DejaVuSans-Bold-6f" transform="translate(1347.460938 0)"/>
     <use xlink:href="#DejaVuSans-Bold-75" transform="translate(1416.162109 0)"/>
     <use xlink:href="#DejaVuSans-Bold-74" transform="translate(1487.353516 0)"/>
     <use xlink:href="#DejaVuSans-Bold-20" transform="translate(1535.15625 0)"/>
     <use xlink:href="#DejaVuSans-Bold-28" transform="translate(1569.970703 0)"/>
     <use xlink:href="#DejaVuSans-Bold-73" transform="translate(1615.673828 0)"/>
     <use xlink:href="#DejaVuSans-Bold-75" transform="translate(1675.195312 0)"/>
     <use xlink:href="#DejaVuSans-Bold-62" transform="translate(1746.386719 0)"/>
     <use xlink:href="#DejaVuSans-Bold-66" transform="translate(1817.96875 0)"/>
     <use xlink:href="#DejaVuSans-Bold-69" transform="translate(1861.474609 0)"/>
     <use xlink:href="#DejaVuSans-Bold-65" transform="translate(1895.751953 0)"/>
     <use xlink:href="#DejaVuSans-Bold-6c" transform="translate(1963.574219 0)"/>
     <use xlink:href="#DejaVuSans-Bold-64" transform="translate(1997.851562 0)"/>
     <use xlink:href="#DejaVuSans-Bold-73" transform="translate(2069.433594 0)"/>
     <use xlink:href="#DejaVuSans-Bold-29" transform="translate(2128.955078 0)"/>
    </g>
   </g>
   <g id="legend_1">
    <g id="patch_13">
     <path d="M 326.3184 112.729687 
L 344.3184 112.729687 
L 344.3184 106.429687 
L 326.3184 106.429687 
z
" style="fill: #0c7c8c; stroke: #ffffff; stroke-width: 1.5; stroke-linejoin: miter"/>
    </g>
    <g id="text_2">
     <!-- Oceanography — 20% -->
     <g style="fill: #23414e" transform="translate(351.5184 112.729687) scale(0.09 -0.09)">
      <defs>
       <path id="DejaVuSans-4f" d="M 2522 4238 
Q 1834 4238 1429 3725 
Q 1025 3213 1025 2328 
Q 1025 1447 1429 934 
Q 1834 422 2522 422 
Q 3209 422 3611 934 
Q 4013 1447 4013 2328 
Q 4013 3213 3611 3725 
Q 3209 4238 2522 4238 
z
M 2522 4750 
Q 3503 4750 4090 4092 
Q 4678 3434 4678 2328 
Q 4678 1225 4090 567 
Q 3503 -91 2522 -91 
Q 1538 -91 948 565 
Q 359 1222 359 2328 
Q 359 3434 948 4092 
Q 1538 4750 2522 4750 
z
" transform="scale(0.015625)"/>
       <path id="DejaVuSans-63" d="M 3122 3366 
L 3122 2828 
Q 2878 2963 2633 3030 
Q 2388 3097 2138 3097 
Q 1578 3097 1268 2742 
Q 959 2388 959 1747 
Q 959 1106 1268 751 
Q 1578 397 2138 397 
Q 2388 397 2633 464 
Q 2878 531 3122 666 
L 3122 134 
Q 2881 22 2623 -34 
Q 2366 -91 2075 -91 
Q 1284 -91 818 406 
Q 353 903 353 1747 
Q 353 2603 823 3093 
Q 1294 3584 2113 3584 
Q 2378 3584 2631 3529 
Q 2884 3475 3122 3366 
z
" transform="scale(0.015625)"/>
       <path id="DejaVuSans-65" d="M 3597 1894 
L 3597 1613 
L 953 1613 
Q 991 1019 1311 708 
Q 1631 397 2203 397 
Q 2534 397 2845 478 
Q 3156 559 3463 722 
L 3463 178 
Q 3153 47 2828 -22 
Q 2503 -91 2169 -91 
Q 1331 -91 842 396 
Q 353 884 353 1716 
Q 353 2575 817 3079 
Q 1281 3584 2069 3584 
Q 2775 3584 3186 3129 
Q 3597 2675 3597 1894 
z
M 3022 2063 
Q 3016 2534 2758 2815 
Q 2500 3097 2075 3097 
Q 1594 3097 1305 2825 
Q 1016 2553 972 2059 
L 3022 2063 
z
" transform="scale(0.015625)"/>
       <path id="DejaVuSans-61" d="M 2194 1759 
Q 1497 1759 1228 1600 
Q 959 1441 959 1056 
Q 959 750 1161 570 
Q 1363 391 1709 391 
Q 2188 391 2477 730 
Q 2766 1069 2766 1631 
L 2766 1759 
L 2194 1759 
z
M 3341 1997 
L 3341 0 
L 2766 0 
L 2766 531 
Q 2569 213 2275 61 
Q 1981 -91 1556 -91 
Q 1019 -91 701 211 
Q 384 513 384 1019 
Q 384 1609 779 1909 
Q 1175 2209 1959 2209 
L 2766 2209 
L 2766 2266 
Q 2766 2663 2505 2880 
Q 2244 3097 1772 3097 
Q 1472 3097 1187 3025 
Q 903 2953 641 2809 
L 641 3341 
Q 956 3463 1253 3523 
Q 1550 3584 1831 3584 
Q 2591 3584 2966 3190 
Q 3341 2797 3341 1997 
z
" transform="scale(0.015625)"/>
       <path id="DejaVuSans-6e" d="M 3513 2113 
L 3513 0 
L 2938 0 
L 2938 2094 
Q 2938 2591 2744 2837 
Q 2550 3084 2163 3084 
Q 1697 3084 1428 2787 
Q 1159 2491 1159 1978 
L 1159 0 
L 581 0 
L 581 3500 
L 1159 3500 
L 1159 2956 
Q 1366 3272 1645 3428 
Q 1925 3584 2291 3584 
Q 2894 3584 3203 3211 
Q 3513 2838 3513 2113 
z
" transform="scale(0.015625)"/>
       <path id="DejaVuSans-6f" d="M 1959 3097 
Q 1497 3097 1228 2736 
Q 959 2375 959 1747 
Q 959 1119 1226 758 
Q 1494 397 1959 397 
Q 2419 397 2687 759 
Q 2956 1122 2956 1747 
Q 2956 2369 2687 2733 
Q 2419 3097 1959 3097 
z
M 1959 3584 
Q 2709 3584 3137 3096 
Q 3566 2609 3566 1747 
Q 3566 888 3137 398 
Q 2709 -91 1959 -91 
Q 1206 -91 779 398 
Q 353 888 353 1747 
Q 353 2609 779 3096 
Q 1206 3584 1959 3584 
z
" transform="scale(0.015625)"/>
       <path id="DejaVuSans-67" d="M 2906 1791 
Q 2906 2416 2648 2759 
Q 2391 3103 1925 3103 
Q 1463 3103 1205 2759 
Q 947 2416 947 1791 
Q 947 1169 1205 825 
Q 1463 481 1925 481 
Q 2391 481 2648 825 
Q 2906 1169 2906 1791 
z
M 3481 434 
Q 3481 -459 3084 -895 
Q 2688 -1331 1869 -1331 
Q 1566 -1331 1297 -1286 
Q 1028 -1241 775 -1147 
L 775 -588 
Q 1028 -725 1275 -790 
Q 1522 -856 1778 -856 
Q 2344 -856 2625 -561 
Q 2906 -266 2906 331 
L 2906 616 
Q 2728 306 2450 153 
Q 2172 0 1784 0 
Q 1141 0 747 490 
Q 353 981 353 1791 
Q 353 2603 747 3093 
Q 1141 3584 1784 3584 
Q 2172 3584 2450 3431 
Q 2728 3278 2906 2969 
L 2906 3500 
L 3481 3500 
L 3481 434 
z
" transform="scale(0.015625)"/>
       <path id="DejaVuSans-72" d="M 2631 2963 
Q 2534 3019 2420 3045 
Q 2306 3072 2169 3072 
Q 1681 3072 1420 2755 
Q 1159 2438 1159 1844 
L 1159 0 
L 581 0 
L 581 3500 
L 1159 3500 
L 1159 2956 
Q 1341 3275 1631 3429 
Q 1922 3584 2338 3584 
Q 2397 3584 2469 3576 
Q 2541 3569 2628 3553 
L 2631 2963 
z
" transform="scale(0.015625)"/>
       <path id="DejaVuSans-70" d="M 1159 525 
L 1159 -1331 
L 581 -1331 
L 581 3500 
L 1159 3500 
L 1159 2969 
Q 1341 3281 1617 3432 
Q 1894 3584 2278 3584 
Q 2916 3584 3314 3078 
Q 3713 2572 3713 1747 
Q 3713 922 3314 415 
Q 2916 -91 2278 -91 
Q 1894 -91 1617 61 
Q 1341 213 1159 525 
z
M 3116 1747 
Q 3116 2381 2855 2742 
Q 2594 3103 2138 3103 
Q 1681 3103 1420 2742 
Q 1159 2381 1159 1747 
Q 1159 1113 1420 752 
Q 1681 391 2138 391 
Q 2594 391 2855 752 
Q 3116 1113 3116 1747 
z
" transform="scale(0.015625)"/>
       <path id="DejaVuSans-68" d="M 3513 2113 
L 3513 0 
L 2938 0 
L 2938 2094 
Q 2938 2591 2744 2837 
Q 2550 3084 2163 3084 
Q 1697 3084 1428 2787 
Q 1159 2491 1159 1978 
L 1159 0 
L 581 0 
L 581 4863 
L 1159 4863 
L 1159 2956 
Q 1366 3272 1645 3428 
Q 1925 3584 2291 3584 
Q 2894 3584 3203 3211 
Q 3513 2838 3513 2113 
z
" transform="scale(0.015625)"/>
       <path id="DejaVuSans-79" d="M 2059 -325 
Q 1816 -950 1584 -1140 
Q 1353 -1331 966 -1331 
L 506 -1331 
L 506 -850 
L 844 -850 
Q 1081 -850 1212 -737 
Q 1344 -625 1503 -206 
L 1606 56 
L 191 3500 
L 800 3500 
L 1894 763 
L 2988 3500 
L 3597 3500 
L 2059 -325 
z
" transform="scale(0.015625)"/>
       <path id="DejaVuSans-20" transform="scale(0.015625)"/>
       <path id="DejaVuSans-2014" d="M 313 1978 
L 6088 1978 
L 6088 1528 
L 313 1528 
L 313 1978 
z
" transform="scale(0.015625)"/>
       <path id="DejaVuSans-32" d="M 1228 531 
L 3431 531 
L 3431 0 
L 469 0 
L 469 531 
Q 828 903 1448 1529 
Q 2069 2156 2228 2338 
Q 2531 2678 2651 2914 
Q 2772 3150 2772 3378 
Q 2772 3750 2511 3984 
Q 2250 4219 1831 4219 
Q 1534 4219 1204 4116 
Q 875 4013 500 3803 
L 500 4441 
Q 881 4594 1212 4672 
Q 1544 4750 1819 4750 
Q 2544 4750 2975 4387 
Q 3406 4025 3406 3419 
Q 3406 3131 3298 2873 
Q 3191 2616 2906 2266 
Q 2828 2175 2409 1742 
Q 1991 1309 1228 531 
z
" transform="scale(0.015625)"/>
       <path id="DejaVuSans-30" d="M 2034 4250 
Q 1547 4250 1301 3770 
Q 1056 3291 1056 2328 
Q 1056 1369 1301 889 
Q 1547 409 2034 409 
Q 2525 409 2770 889 
Q 3016 1369 3016 2328 
Q 3016 3291 2770 3770 
Q 2525 4250 2034 4250 
z
M 2034 4750 
Q 2819 4750 3233 4129 
Q 3647 3509 3647 2328 
Q 3647 1150 3233 529 
Q 2819 -91 2034 -91 
Q 1250 -91 836 529 
Q 422 1150 422 2328 
Q 422 3509 836 4129 
Q 1250 4750 2034 4750 
z
" transform="scale(0.015625)"/>
       <path id="DejaVuSans-25" d="M 4653 2053 
Q 4381 2053 4226 1822 
Q 4072 1591 4072 1178 
Q 4072 772 4226 539 
Q 4381 306 4653 306 
Q 4919 306 5073 539 
Q 5228 772 5228 1178 
Q 5228 1588 5073 1820 
Q 4919 2053 4653 2053 
z
M 4653 2450 
Q 5147 2450 5437 2106 
Q 5728 1763 5728 1178 
Q 5728 594 5436 251 
Q 5144 -91 4653 -91 
Q 4153 -91 3862 251 
Q 3572 594 3572 1178 
Q 3572 1766 3864 2108 
Q 4156 2450 4653 2450 
z
M 1428 4353 
Q 1159 4353 1004 4120 
Q 850 3888 850 3481 
Q 850 3069 1003 2837 
Q 1156 2606 1428 2606 
Q 1700 2606 1854 2837 
Q 2009 3069 2009 3481 
Q 2009 3884 1853 4118 
Q 1697 4353 1428 4353 
z
M 4250 4750 
L 4750 4750 
L 1831 -91 
L 1331 -91 
L 4250 4750 
z
M 1428 4750 
Q 1922 4750 2215 4408 
Q 2509 4066 2509 3481 
Q 2509 2891 2217 2550 
Q 1925 2209 1428 2209 
Q 931 2209 642 2551 
Q 353 2894 353 3481 
Q 353 4063 643 4406 
Q 934 4750 1428 4750 
z
" transform="scale(0.015625)"/>
      </defs>
      <use xlink:href="#DejaVuSans-4f"/>
      <use xlink:href="#DejaVuSans-63" transform="translate(78.710938 0)"/>
      <use xlink:href="#DejaVuSans-65" transform="translate(133.691406 0)"/>
      <use xlink:href="#DejaVuSans-61" transform="translate(195.214844 0)"/>
      <use xlink:href="#DejaVuSans-6e" transform="translate(256.494141 0)"/>
      <use xlink:href="#DejaVuSans-6f" transform="translate(319.873047 0)"/>
      <use xlink:href="#DejaVuSans-67" transform="translate(381.054688 0)"/>
      <use xlink:href="#DejaVuSans-72" transform="translate(444.53125 0)"/>
      <use xlink:href="#DejaVuSans-61" transform="translate(485.644531 0)"/>
      <use xlink:href="#DejaVuSans-70" transform="translate(546.923828 0)"/>
      <use xlink:href="#DejaVuSans-68" transform="translate(610.400391 0)"/>
      <use xlink:href="#DejaVuSans-79" transform="translate(673.779297 0)"/>
      <use xlink:href="#DejaVuSans-20" transform="translate(732.958984 0)"/>
      <use xlink:href="#DejaVuSans-2014" transform="translate(764.746094 0)"/>
      <use xlink:href="#DejaVuSans-20" transform="translate(864.746094 0)"/>
      <use xlink:href="#DejaVuSans-32" transform="translate(896.533203 0)"/>
      <use xlink:href="#DejaVuSans-30" transform="translate(960.15625 0)"/>
      <use xlink:href="#DejaVuSans-25" transform="translate(1023.779297 0)"/>
     </g>
    </g>
    <g id="patch_14">
     <path d="M 326.3184 125.94 
L 344.3184 125.94 
L 344.3184 119.64 
L 326.3184 119.64 
z
" style="fill: #e8743b; stroke: #ffffff; stroke-width: 1.5; stroke-linejoin: miter"/>
    </g>
    <g id="text_3">
     <!-- Ecology — 19% -->
     <g style="fill: #23414e" transform="translate(351.5184 125.94) scale(0.09 -0.09)">
      <defs>
       <path id="DejaVuSans-45" d="M 628 4666 
L 3578 4666 
L 3578 4134 
L 1259 4134 
L 1259 2753 
L 3481 2753 
L 3481 2222 
L 1259 2222 
L 1259 531 
L 3634 531 
L 3634 0 
L 628 0 
L 628 4666 
z
" transform="scale(0.015625)"/>
       <path id="DejaVuSans-6c" d="M 603 4863 
L 1178 4863 
L 1178 0 
L 603 0 
L 603 4863 
z
" transform="scale(0.015625)"/>
       <path id="DejaVuSans-31" d="M 794 531 
L 1825 531 
L 1825 4091 
L 703 3866 
L 703 4441 
L 1819 4666 
L 2450 4666 
L 2450 531 
L 3481 531 
L 3481 0 
L 794 0 
L 794 531 
z
" transform="scale(0.015625)"/>
       <path id="DejaVuSans-39" d="M 703 97 
L 703 672 
Q 941 559 1184 500 
Q 1428 441 1663 441 
Q 2288 441 2617 861 
Q 2947 1281 2994 2138 
Q 2813 1869 2534 1725 
Q 2256 1581 1919 1581 
Q 1219 1581 811 2004 
Q 403 2428 403 3163 
Q 403 3881 828 4315 
Q 1253 4750 1959 4750 
Q 2769 4750 3195 4129 
Q 3622 3509 3622 2328 
Q 3622 1225 3098 567 
Q 2575 -91 1691 -91 
Q 1453 -91 1209 -44 
Q 966 3 703 97 
z
M 1959 2075 
Q 2384 2075 2632 2365 
Q 2881 2656 2881 3163 
Q 2881 3666 2632 3958 
Q 2384 4250 1959 4250 
Q 1534 4250 1286 3958 
Q 1038 3666 1038 3163 
Q 1038 2656 1286 2365 
Q 1534 2075 1959 2075 
z
" transform="scale(0.015625)"/>
      </defs>
      <use xlink:href="#DejaVuSans-45"/>
      <use xlink:href="#DejaVuSans-63" transform="translate(63.183594 0)"/>
      <use xlink:href="#DejaVuSans-6f" transform="translate(118.164062 0)"/>
      <use xlink:href="#DejaVuSans-6c" transform="translate(179.345703 0)"/>
      <use xlink:href="#DejaVuSans-6f" transform="translate(207.128906 0)"/>
      <use xlink:href="#DejaVuSans-67" transform="translate(268.310547 0)"/>
      <use xlink:href="#DejaVuSans-79" transform="translate(331.787109 0)"/>
      <use xlink:href="#DejaVuSans-20" transform="translate(390.966797 0)"/>
      <use xlink:href="#DejaVuSans-2014" transform="translate(422.753906 0)"/>
      <use xlink:href="#DejaVuSans-20" transform="translate(522.753906 0)"/>
      <use xlink:href="#DejaVuSans-31" transform="translate(554.541016 0)"/>
      <use xlink:href="#DejaVuSans-39" transform="translate(618.164062 0)"/>
      <use xlink:href="#DejaVuSans-25" transform="translate(681.787109 0)"/>
     </g>
    </g>
    <g id="patch_15">
     <path d="M 326.3184 139.150312 
L 344.3184 139.150312 
L 344.3184 132.850312 
L 326.3184 132.850312 
z
" style="fill: #f2b134; stroke: #ffffff; stroke-width: 1.5; stroke-linejoin: miter"/>
    </g>
    <g id="text_4">
     <!-- Molecular Biology — 12% -->
     <g style="fill: #23414e" transform="translate(351.5184 139.150312) scale(0.09 -0.09)">
      <defs>
       <path id="DejaVuSans-4d" d="M 628 4666 
L 1569 4666 
L 2759 1491 
L 3956 4666 
L 4897 4666 
L 4897 0 
L 4281 0 
L 4281 4097 
L 3078 897 
L 2444 897 
L 1241 4097 
L 1241 0 
L 628 0 
L 628 4666 
z
" transform="scale(0.015625)"/>
       <path id="DejaVuSans-75" d="M 544 1381 
L 544 3500 
L 1119 3500 
L 1119 1403 
Q 1119 906 1312 657 
Q 1506 409 1894 409 
Q 2359 409 2629 706 
Q 2900 1003 2900 1516 
L 2900 3500 
L 3475 3500 
L 3475 0 
L 2900 0 
L 2900 538 
Q 2691 219 2414 64 
Q 2138 -91 1772 -91 
Q 1169 -91 856 284 
Q 544 659 544 1381 
z
M 1991 3584 
L 1991 3584 
z
" transform="scale(0.015625)"/>
       <path id="DejaVuSans-42" d="M 1259 2228 
L 1259 519 
L 2272 519 
Q 2781 519 3026 730 
Q 3272 941 3272 1375 
Q 3272 1813 3026 2020 
Q 2781 2228 2272 2228 
L 1259 2228 
z
M 1259 4147 
L 1259 2741 
L 2194 2741 
Q 2656 2741 2882 2914 
Q 3109 3088 3109 3444 
Q 3109 3797 2882 3972 
Q 2656 4147 2194 4147 
L 1259 4147 
z
M 628 4666 
L 2241 4666 
Q 2963 4666 3353 4366 
Q 3744 4066 3744 3513 
Q 3744 3084 3544 2831 
Q 3344 2578 2956 2516 
Q 3422 2416 3680 2098 
Q 3938 1781 3938 1306 
Q 3938 681 3513 340 
Q 3088 0 2303 0 
L 628 0 
L 628 4666 
z
" transform="scale(0.015625)"/>
       <path id="DejaVuSans-69" d="M 603 3500 
L 1178 3500 
L 1178 0 
L 603 0 
L 603 3500 
z
M 603 4863 
L 1178 4863 
L 1178 4134 
L 603 4134 
L 603 4863 
z
" transform="scale(0.015625)"/>
      </defs>
      <use xlink:href="#DejaVuSans-4d"/>
      <use xlink:href="#DejaVuSans-6f" transform="translate(86.279297 0)"/>
      <use xlink:href="#DejaVuSans-6c" transform="translate(147.460938 0)"/>
      <use xlink:href="#DejaVuSans-65" transform="translate(175.244141 0)"/>
      <use xlink:href="#DejaVuSans-63" transform="translate(236.767578 0)"/>
      <use xlink:href="#DejaVuSans-75" transform="translate(291.748047 0)"/>
      <use xlink:href="#DejaVuSans-6c" transform="translate(355.126953 0)"/>
      <use xlink:href="#DejaVuSans-61" transform="translate(382.910156 0)"/>
      <use xlink:href="#DejaVuSans-72" transform="translate(444.189453 0)"/>
      <use xlink:href="#DejaVuSans-20" transform="translate(485.302734 0)"/>
      <use xlink:href="#DejaVuSans-42" transform="translate(517.089844 0)"/>
      <use xlink:href="#DejaVuSans-69" transform="translate(585.693359 0)"/>
      <use xlink:href="#DejaVuSans-6f" transform="translate(613.476562 0)"/>
      <use xlink:href="#DejaVuSans-6c" transform="translate(674.658203 0)"/>
      <use xlink:href="#DejaVuSans-6f" transform="translate(702.441406 0)"/>
      <use xlink:href="#DejaVuSans-67" transform="translate(763.623047 0)"/>
      <use xlink:href="#DejaVuSans-79" transform="translate(827.099609 0)"/>
      <use xlink:href="#DejaVuSans-20" transform="translate(886.279297 0)"/>
      <use xlink:href="#DejaVuSans-2014" transform="translate(918.066406 0)"/>
      <use xlink:href="#DejaVuSans-20" transform="translate(1018.066406 0)"/>
      <use xlink:href="#DejaVuSans-31" transform="translate(1049.853516 0)"/>
      <use xlink:href="#DejaVuSans-32" transform="translate(1113.476562 0)"/>
      <use xlink:href="#DejaVuSans-25" transform="translate(1177.099609 0)"/>
     </g>
    </g>
    <g id="patch_16">
     <path d="M 326.3184 152.360625 
L 344.3184 152.360625 
L 344.3184 146.060625 
L 326.3184 146.060625 
z
" style="fill: #5a9e6f; stroke: #ffffff; stroke-width: 1.5; stroke-linejoin: miter"/>
    </g>
    <g id="text_5">
     <!-- Global and Planetary Change — 10% -->
     <g style="fill: #23414e" transform="translate(351.5184 152.360625) scale(0.09 -0.09)">
      <defs>
       <path id="DejaVuSans-47" d="M 3809 666 
L 3809 1919 
L 2778 1919 
L 2778 2438 
L 4434 2438 
L 4434 434 
Q 4069 175 3628 42 
Q 3188 -91 2688 -91 
Q 1594 -91 976 548 
Q 359 1188 359 2328 
Q 359 3472 976 4111 
Q 1594 4750 2688 4750 
Q 3144 4750 3555 4637 
Q 3966 4525 4313 4306 
L 4313 3634 
Q 3963 3931 3569 4081 
Q 3175 4231 2741 4231 
Q 1884 4231 1454 3753 
Q 1025 3275 1025 2328 
Q 1025 1384 1454 906 
Q 1884 428 2741 428 
Q 3075 428 3337 486 
Q 3600 544 3809 666 
z
" transform="scale(0.015625)"/>
       <path id="DejaVuSans-62" d="M 3116 1747 
Q 3116 2381 2855 2742 
Q 2594 3103 2138 3103 
Q 1681 3103 1420 2742 
Q 1159 2381 1159 1747 
Q 1159 1113 1420 752 
Q 1681 391 2138 391 
Q 2594 391 2855 752 
Q 3116 1113 3116 1747 
z
M 1159 2969 
Q 1341 3281 1617 3432 
Q 1894 3584 2278 3584 
Q 2916 3584 3314 3078 
Q 3713 2572 3713 1747 
Q 3713 922 3314 415 
Q 2916 -91 2278 -91 
Q 1894 -91 1617 61 
Q 1341 213 1159 525 
L 1159 0 
L 581 0 
L 581 4863 
L 1159 4863 
L 1159 2969 
z
" transform="scale(0.015625)"/>
       <path id="DejaVuSans-64" d="M 2906 2969 
L 2906 4863 
L 3481 4863 
L 3481 0 
L 2906 0 
L 2906 525 
Q 2725 213 2448 61 
Q 2172 -91 1784 -91 
Q 1150 -91 751 415 
Q 353 922 353 1747 
Q 353 2572 751 3078 
Q 1150 3584 1784 3584 
Q 2172 3584 2448 3432 
Q 2725 3281 2906 2969 
z
M 947 1747 
Q 947 1113 1208 752 
Q 1469 391 1925 391 
Q 2381 391 2643 752 
Q 2906 1113 2906 1747 
Q 2906 2381 2643 2742 
Q 2381 3103 1925 3103 
Q 1469 3103 1208 2742 
Q 947 2381 947 1747 
z
" transform="scale(0.015625)"/>
       <path id="DejaVuSans-50" d="M 1259 4147 
L 1259 2394 
L 2053 2394 
Q 2494 2394 2734 2622 
Q 2975 2850 2975 3272 
Q 2975 3691 2734 3919 
Q 2494 4147 2053 4147 
L 1259 4147 
z
M 628 4666 
L 2053 4666 
Q 2838 4666 3239 4311 
Q 3641 3956 3641 3272 
Q 3641 2581 3239 2228 
Q 2838 1875 2053 1875 
L 1259 1875 
L 1259 0 
L 628 0 
L 628 4666 
z
" transform="scale(0.015625)"/>
       <path id="DejaVuSans-74" d="M 1172 4494 
L 1172 3500 
L 2356 3500 
L 2356 3053 
L 1172 3053 
L 1172 1153 
Q 1172 725 1289 603 
Q 1406 481 1766 481 
L 2356 481 
L 2356 0 
L 1766 0 
Q 1100 0 847 248 
Q 594 497 594 1153 
L 594 3053 
L 172 3053 
L 172 3500 
L 594 3500 
L 594 4494 
L 1172 4494 
z
" transform="scale(0.015625)"/>
       <path id="DejaVuSans-43" d="M 4122 4306 
L 4122 3641 
Q 3803 3938 3442 4084 
Q 3081 4231 2675 4231 
Q 1875 4231 1450 3742 
Q 1025 3253 1025 2328 
Q 1025 1406 1450 917 
Q 1875 428 2675 428 
Q 3081 428 3442 575 
Q 3803 722 4122 1019 
L 4122 359 
Q 3791 134 3420 21 
Q 3050 -91 2638 -91 
Q 1578 -91 968 557 
Q 359 1206 359 2328 
Q 359 3453 968 4101 
Q 1578 4750 2638 4750 
Q 3056 4750 3426 4639 
Q 3797 4528 4122 4306 
z
" transform="scale(0.015625)"/>
      </defs>
      <use xlink:href="#DejaVuSans-47"/>
      <use xlink:href="#DejaVuSans-6c" transform="translate(77.490234 0)"/>
      <use xlink:href="#DejaVuSans-6f" transform="translate(105.273438 0)"/>
      <use xlink:href="#DejaVuSans-62" transform="translate(166.455078 0)"/>
      <use xlink:href="#DejaVuSans-61" transform="translate(229.931641 0)"/>
      <use xlink:href="#DejaVuSans-6c" transform="translate(291.210938 0)"/>
      <use xlink:href="#DejaVuSans-20" transform="translate(318.994141 0)"/>
      <use xlink:href="#DejaVuSans-61" transform="translate(350.78125 0)"/>
      <use xlink:href="#DejaVuSans-6e" transform="translate(412.060547 0)"/>
      <use xlink:href="#DejaVuSans-64" transform="translate(475.439453 0)"/>
      <use xlink:href="#DejaVuSans-20" transform="translate(538.916016 0)"/>
      <use xlink:href="#DejaVuSans-50" transform="translate(570.703125 0)"/>
      <use xlink:href="#DejaVuSans-6c" transform="translate(631.005859 0)"/>
      <use xlink:href="#DejaVuSans-61" transform="translate(658.789062 0)"/>
      <use xlink:href="#DejaVuSans-6e" transform="translate(720.068359 0)"/>
      <use xlink:href="#DejaVuSans-65" transform="translate(783.447266 0)"/>
      <use xlink:href="#DejaVuSans-74" transform="translate(844.970703 0)"/>
      <use xlink:href="#DejaVuSans-61" transform="translate(884.179688 0)"/>
      <use xlink:href="#DejaVuSans-72" transform="translate(945.458984 0)"/>
      <use xlink:href="#DejaVuSans-79" transform="translate(986.572266 0)"/>
      <use xlink:href="#DejaVuSans-20" transform="translate(1045.751953 0)"/>
      <use xlink:href="#DejaVuSans-43" transform="translate(1077.539062 0)"/>
      <use xlink:href="#DejaVuSans-68" transform="translate(1147.363281 0)"/>
      <use xlink:href="#DejaVuSans-61" transform="translate(1210.742188 0)"/>
      <use xlink:href="#DejaVuSans-6e" transform="translate(1272.021484 0)"/>
      <use xlink:href="#DejaVuSans-67" transform="translate(1335.400391 0)"/>
      <use xlink:href="#DejaVuSans-65" transform="translate(1398.876953 0)"/>
      <use xlink:href="#DejaVuSans-20" transform="translate(1460.400391 0)"/>
      <use xlink:href="#DejaVuSans-2014" transform="translate(1492.1875 0)"/>
      <use xlink:href="#DejaVuSans-20" transform="translate(1592.1875 0)"/>
      <use xlink:href="#DejaVuSans-31" transform="translate(1623.974609 0)"/>
      <use xlink:href="#DejaVuSans-30" transform="translate(1687.597656 0)"/>
      <use xlink:href="#DejaVuSans-25" transform="translate(1751.220703 0)"/>
     </g>
    </g>
    <g id="patch_17">
     <path d="M 326.3184 165.570937 
L 344.3184 165.570937 
L 344.3184 159.270937 
L 326.3184 159.270937 
z
" style="fill: #8c6bb1; stroke: #ffffff; stroke-width: 1.5; stroke-linejoin: miter"/>
    </g>
    <g id="text_6">
     <!-- Atmospheric Science — 7% -->
     <g style="fill: #23414e" transform="translate(351.5184 165.570937) scale(0.09 -0.09)">
      <defs>
       <path id="DejaVuSans-41" d="M 2188 4044 
L 1331 1722 
L 3047 1722 
L 2188 4044 
z
M 1831 4666 
L 2547 4666 
L 4325 0 
L 3669 0 
L 3244 1197 
L 1141 1197 
L 716 0 
L 50 0 
L 1831 4666 
z
" transform="scale(0.015625)"/>
       <path id="DejaVuSans-6d" d="M 3328 2828 
Q 3544 3216 3844 3400 
Q 4144 3584 4550 3584 
Q 5097 3584 5394 3201 
Q 5691 2819 5691 2113 
L 5691 0 
L 5113 0 
L 5113 2094 
Q 5113 2597 4934 2840 
Q 4756 3084 4391 3084 
Q 3944 3084 3684 2787 
Q 3425 2491 3425 1978 
L 3425 0 
L 2847 0 
L 2847 2094 
Q 2847 2600 2669 2842 
Q 2491 3084 2119 3084 
Q 1678 3084 1418 2786 
Q 1159 2488 1159 1978 
L 1159 0 
L 581 0 
L 581 3500 
L 1159 3500 
L 1159 2956 
Q 1356 3278 1631 3431 
Q 1906 3584 2284 3584 
Q 2666 3584 2933 3390 
Q 3200 3197 3328 2828 
z
" transform="scale(0.015625)"/>
       <path id="DejaVuSans-73" d="M 2834 3397 
L 2834 2853 
Q 2591 2978 2328 3040 
Q 2066 3103 1784 3103 
Q 1356 3103 1142 2972 
Q 928 2841 928 2578 
Q 928 2378 1081 2264 
Q 1234 2150 1697 2047 
L 1894 2003 
Q 2506 1872 2764 1633 
Q 3022 1394 3022 966 
Q 3022 478 2636 193 
Q 2250 -91 1575 -91 
Q 1294 -91 989 -36 
Q 684 19 347 128 
L 347 722 
Q 666 556 975 473 
Q 1284 391 1588 391 
Q 1994 391 2212 530 
Q 2431 669 2431 922 
Q 2431 1156 2273 1281 
Q 2116 1406 1581 1522 
L 1381 1569 
Q 847 1681 609 1914 
Q 372 2147 372 2553 
Q 372 3047 722 3315 
Q 1072 3584 1716 3584 
Q 2034 3584 2315 3537 
Q 2597 3491 2834 3397 
z
" transform="scale(0.015625)"/>
       <path id="DejaVuSans-53" d="M 3425 4513 
L 3425 3897 
Q 3066 4069 2747 4153 
Q 2428 4238 2131 4238 
Q 1616 4238 1336 4038 
Q 1056 3838 1056 3469 
Q 1056 3159 1242 3001 
Q 1428 2844 1947 2747 
L 2328 2669 
Q 3034 2534 3370 2195 
Q 3706 1856 3706 1288 
Q 3706 609 3251 259 
Q 2797 -91 1919 -91 
Q 1588 -91 1214 -16 
Q 841 59 441 206 
L 441 856 
Q 825 641 1194 531 
Q 1563 422 1919 422 
Q 2459 422 2753 634 
Q 3047 847 3047 1241 
Q 3047 1584 2836 1778 
Q 2625 1972 2144 2069 
L 1759 2144 
Q 1053 2284 737 2584 
Q 422 2884 422 3419 
Q 422 4038 858 4394 
Q 1294 4750 2059 4750 
Q 2388 4750 2728 4690 
Q 3069 4631 3425 4513 
z
" transform="scale(0.015625)"/>
       <path id="DejaVuSans-37" d="M 525 4666 
L 3525 4666 
L 3525 4397 
L 1831 0 
L 1172 0 
L 2766 4134 
L 525 4134 
L 525 4666 
z
" transform="scale(0.015625)"/>
      </defs>
      <use xlink:href="#DejaVuSans-41"/>
      <use xlink:href="#DejaVuSans-74" transform="translate(66.658203 0)"/>
      <use xlink:href="#DejaVuSans-6d" transform="translate(105.867188 0)"/>
      <use xlink:href="#DejaVuSans-6f" transform="translate(203.279297 0)"/>
      <use xlink:href="#DejaVuSans-73" transform="translate(264.460938 0)"/>
      <use xlink:href="#DejaVuSans-70" transform="translate(316.560547 0)"/>
      <use xlink:href="#DejaVuSans-68" transform="translate(380.037109 0)"/>
      <use xlink:href="#DejaVuSans-65" transform="translate(443.416016 0)"/>
      <use xlink:href="#DejaVuSans-72" transform="translate(504.939453 0)"/>
      <use xlink:href="#DejaVuSans-69" transform="translate(546.052734 0)"/>
      <use xlink:href="#DejaVuSans-63" transform="translate(573.835938 0)"/>
      <use xlink:href="#DejaVuSans-20" transform="translate(628.816406 0)"/>
      <use xlink:href="#DejaVuSans-53" transform="translate(660.603516 0)"/>
      <use xlink:href="#DejaVuSans-63" transform="translate(724.080078 0)"/>
      <use xlink:href="#DejaVuSans-69" transform="translate(779.060547 0)"/>
      <use xlink:href="#DejaVuSans-65" transform="translate(806.84375 0)"/>
      <use xlink:href="#DejaVuSans-6e" transform="translate(868.367188 0)"/>
      <use xlink:href="#DejaVuSans-63" transform="translate(931.746094 0)"/>
      <use xlink:href="#DejaVuSans-65" transform="translate(986.726562 0)"/>
      <use xlink:href="#DejaVuSans-20" transform="translate(1048.25 0)"/>
      <use xlink:href="#DejaVuSans-2014" transform="translate(1080.037109 0)"/>
      <use xlink:href="#DejaVuSans-20" transform="translate(1180.037109 0)"/>
      <use xlink:href="#DejaVuSans-37" transform="translate(1211.824219 0)"/>
      <use xlink:href="#DejaVuSans-25" transform="translate(1275.447266 0)"/>
     </g>
    </g>
    <g id="patch_18">
     <path d="M 326.3184 178.78125 
L 344.3184 178.78125 
L 344.3184 172.48125 
L 326.3184 172.48125 
z
" style="fill: #c0504d; stroke: #ffffff; stroke-width: 1.5; stroke-linejoin: miter"/>
    </g>
    <g id="text_7">
     <!-- Nature and Landscape Conservation — 5% -->
     <g style="fill: #23414e" transform="translate(351.5184 178.78125) scale(0.09 -0.09)">
      <defs>
       <path id="DejaVuSans-4e" d="M 628 4666 
L 1478 4666 
L 3547 763 
L 3547 4666 
L 4159 4666 
L 4159 0 
L 3309 0 
L 1241 3903 
L 1241 0 
L 628 0 
L 628 4666 
z
" transform="scale(0.015625)"/>
       <path id="DejaVuSans-4c" d="M 628 4666 
L 1259 4666 
L 1259 531 
L 3531 531 
L 3531 0 
L 628 0 
L 628 4666 
z
" transform="scale(0.015625)"/>
       <path id="DejaVuSans-76" d="M 191 3500 
L 800 3500 
L 1894 563 
L 2988 3500 
L 3597 3500 
L 2284 0 
L 1503 0 
L 191 3500 
z
" transform="scale(0.015625)"/>
       <path id="DejaVuSans-35" d="M 691 4666 
L 3169 4666 
L 3169 4134 
L 1269 4134 
L 1269 2991 
Q 1406 3038 1543 3061 
Q 1681 3084 1819 3084 
Q 2600 3084 3056 2656 
Q 3513 2228 3513 1497 
Q 3513 744 3044 326 
Q 2575 -91 1722 -91 
Q 1428 -91 1123 -41 
Q 819 9 494 109 
L 494 744 
Q 775 591 1075 516 
Q 1375 441 1709 441 
Q 2250 441 2565 725 
Q 2881 1009 2881 1497 
Q 2881 1984 2565 2268 
Q 2250 2553 1709 2553 
Q 1456 2553 1204 2497 
Q 953 2441 691 2322 
L 691 4666 
z
" transform="scale(0.015625)"/>
      </defs>
      <use xlink:href="#DejaVuSans-4e"/>
      <use xlink:href="#DejaVuSans-61" transform="translate(74.804688 0)"/>
      <use xlink:href="#DejaVuSans-74" transform="translate(136.083984 0)"/>
      <use xlink:href="#DejaVuSans-75" transform="translate(175.292969 0)"/>
      <use xlink:href="#DejaVuSans-72" transform="translate(238.671875 0)"/>
      <use xlink:href="#DejaVuSans-65" transform="translate(277.535156 0)"/>
      <use xlink:href="#DejaVuSans-20" transform="translate(339.058594 0)"/>
      <use xlink:href="#DejaVuSans-61" transform="translate(370.845703 0)"/>
      <use xlink:href="#DejaVuSans-6e" transform="translate(432.125 0)"/>
      <use xlink:href="#DejaVuSans-64" transform="translate(495.503906 0)"/>
      <use xlink:href="#DejaVuSans-20" transform="translate(558.980469 0)"/>
      <use xlink:href="#DejaVuSans-4c" transform="translate(590.767578 0)"/>
      <use xlink:href="#DejaVuSans-61" transform="translate(646.480469 0)"/>
      <use xlink:href="#DejaVuSans-6e" transform="translate(707.759766 0)"/>
      <use xlink:href="#DejaVuSans-64" transform="translate(771.138672 0)"/>
      <use xlink:href="#DejaVuSans-73" transform="translate(834.615234 0)"/>
      <use xlink:href="#DejaVuSans-63" transform="translate(886.714844 0)"/>
      <use xlink:href="#DejaVuSans-61" transform="translate(941.695312 0)"/>
      <use xlink:href="#DejaVuSans-70" transform="translate(1002.974609 0)"/>
      <use xlink:href="#DejaVuSans-65" transform="translate(1066.451172 0)"/>
      <use xlink:href="#DejaVuSans-20" transform="translate(1127.974609 0)"/>
      <use xlink:href="#DejaVuSans-43" transform="translate(1159.761719 0)"/>
      <use xlink:href="#DejaVuSans-6f" transform="translate(1229.585938 0)"/>
      <use xlink:href="#DejaVuSans-6e" transform="translate(1290.767578 0)"/>
      <use xlink:href="#DejaVuSans-73" transform="translate(1354.146484 0)"/>
      <use xlink:href="#DejaVuSans-65" transform="translate(1406.246094 0)"/>
      <use xlink:href="#DejaVuSans-72" transform="translate(1467.769531 0)"/>
      <use xlink:href="#DejaVuSans-76" transform="translate(1508.882812 0)"/>
      <use xlink:href="#DejaVuSans-61" transform="translate(1568.0625 0)"/>
      <use xlink:href="#DejaVuSans-74" transform="translate(1629.341797 0)"/>
      <use xlink:href="#DejaVuSans-69" transform="translate(1668.550781 0)"/>
      <use xlink:href="#DejaVuSans-6f" transform="translate(1696.333984 0)"/>
      <use xlink:href="#DejaVuSans-6e" transform="translate(1757.515625 0)"/>
      <use xlink:href="#DejaVuSans-20" transform="translate(1820.894531 0)"/>
      <use xlink:href="#DejaVuSans-2014" transform="translate(1852.681641 0)"/>
      <use xlink:href="#DejaVuSans-20" transform="translate(1952.681641 0)"/>
      <use xlink:href="#DejaVuSans-35" transform="translate(1984.46875 0)"/>
      <use xlink:href="#DejaVuSans-25" transform="translate(2048.091797 0)"/>
     </g>
    </g>
    <g id="patch_19">
     <path d="M 326.3184 191.991562 
L 344.3184 191.991562 
L 344.3184 185.691562 
L 326.3184 185.691562 
z
" style="fill: #9aa5ab; stroke: #ffffff; stroke-width: 1.5; stroke-linejoin: miter"/>
    </g>
    <g id="text_8">
     <!-- Ecology, Evolution, Behavior and Systematics — 2% -->
     <g style="fill: #23414e" transform="translate(351.5184 191.991562) scale(0.09 -0.09)">
      <defs>
       <path id="DejaVuSans-2c" d="M 750 794 
L 1409 794 
L 1409 256 
L 897 -744 
L 494 -744 
L 750 256 
L 750 794 
z
" transform="scale(0.015625)"/>
      </defs>
      <use xlink:href="#DejaVuSans-45"/>
      <use xlink:href="#DejaVuSans-63" transform="translate(63.183594 0)"/>
      <use xlink:href="#DejaVuSans-6f" transform="translate(118.164062 0)"/>
      <use xlink:href="#DejaVuSans-6c" transform="translate(179.345703 0)"/>
      <use xlink:href="#DejaVuSans-6f" transform="translate(207.128906 0)"/>
      <use xlink:href="#DejaVuSans-67" transform="translate(268.310547 0)"/>
      <use xlink:href="#DejaVuSans-79" transform="translate(331.787109 0)"/>
      <use xlink:href="#DejaVuSans-2c" transform="translate(390.966797 0)"/>
      <use xlink:href="#DejaVuSans-20" transform="translate(422.753906 0)"/>
      <use xlink:href="#DejaVuSans-45" transform="translate(454.541016 0)"/>
      <use xlink:href="#DejaVuSans-76" transform="translate(517.724609 0)"/>
      <use xlink:href="#DejaVuSans-6f" transform="translate(576.904297 0)"/>
      <use xlink:href="#DejaVuSans-6c" transform="translate(638.085938 0)"/>
      <use xlink:href="#DejaVuSans-75" transform="translate(665.869141 0)"/>
      <use xlink:href="#DejaVuSans-74" transform="translate(729.248047 0)"/>
      <use xlink:href="#DejaVuSans-69" transform="translate(768.457031 0)"/>
      <use xlink:href="#DejaVuSans-6f" transform="translate(796.240234 0)"/>
      <use xlink:href="#DejaVuSans-6e" transform="translate(857.421875 0)"/>
      <use xlink:href="#DejaVuSans-2c" transform="translate(920.800781 0)"/>
      <use xlink:href="#DejaVuSans-20" transform="translate(952.587891 0)"/>
      <use xlink:href="#DejaVuSans-42" transform="translate(984.375 0)"/>
      <use xlink:href="#DejaVuSans-65" transform="translate(1052.978516 0)"/>
      <use xlink:href="#DejaVuSans-68" transform="translate(1114.501953 0)"/>
      <use xlink:href="#DejaVuSans-61" transform="translate(1177.880859 0)"/>
      <use xlink:href="#DejaVuSans-76" transform="translate(1239.160156 0)"/>
      <use xlink:href="#DejaVuSans-69" transform="translate(1298.339844 0)"/>
      <use xlink:href="#DejaVuSans-6f" transform="translate(1326.123047 0)"/>
      <use xlink:href="#DejaVuSans-72" transform="translate(1387.304688 0)"/>
      <use xlink:href="#DejaVuSans-20" transform="translate(1428.417969 0)"/>
      <use xlink:href="#DejaVuSans-61" transform="translate(1460.205078 0)"/>
      <use xlink:href="#DejaVuSans-6e" transform="translate(1521.484375 0)"/>
      <use xlink:href="#DejaVuSans-64" transform="translate(1584.863281 0)"/>
      <use xlink:href="#DejaVuSans-20" transform="translate(1648.339844 0)"/>
      <use xlink:href="#DejaVuSans-53" transform="translate(1680.126953 0)"/>
      <use xlink:href="#DejaVuSans-79" transform="translate(1743.603516 0)"/>
      <use xlink:href="#DejaVuSans-73" transform="translate(1802.783203 0)"/>
      <use xlink:href="#DejaVuSans-74" transform="translate(1854.882812 0)"/>
      <use xlink:href="#DejaVuSans-65" transform="translate(1894.091797 0)"/>
      <use xlink:href="#DejaVuSans-6d" transform="translate(1955.615234 0)"/>
      <use xlink:href="#DejaVuSans-61" transform="translate(2053.027344 0)"/>
      <use xlink:href="#DejaVuSans-74" transform="translate(2114.306641 0)"/>
      <use xlink:href="#DejaVuSans-69" transform="translate(2153.515625 0)"/>
      <use xlink:href="#DejaVuSans-63" transform="translate(2181.298828 0)"/>
      <use xlink:href="#DejaVuSans-73" transform="translate(2236.279297 0)"/>
      <use xlink:href="#DejaVuSans-20" transform="translate(2288.378906 0)"/>
      <use xlink:href="#DejaVuSans-2014" transform="translate(2320.166016 0)"/>
      <use xlink:href="#DejaVuSans-20" transform="translate(2420.166016 0)"/>
      <use xlink:href="#DejaVuSans-32" transform="translate(2451.953125 0)"/>
      <use xlink:href="#DejaVuSans-25" transform="translate(2515.576172 0)"/>
     </g>
    </g>
    <g id="patch_20">
     <path d="M 326.3184 205.201875 
L 344.3184 205.201875 
L 344.3184 198.901875 
L 326.3184 198.901875 
z
" style="fill: #23414e; stroke: #ffffff; stroke-width: 1.5; stroke-linejoin: miter"/>
    </g>
    <g id="text_9">
     <!-- Biomaterials — 2% -->
     <g style="fill: #23414e" transform="translate(351.5184 205.201875) scale(0.09 -0.09)">
      <use xlink:href="#DejaVuSans-42"/>
      <use xlink:href="#DejaVuSans-69" transform="translate(68.603516 0)"/>
      <use xlink:href="#DejaVuSans-6f" transform="translate(96.386719 0)"/>
      <use xlink:href="#DejaVuSans-6d" transform="translate(157.568359 0)"/>
      <use xlink:href="#DejaVuSans-61" transform="translate(254.980469 0)"/>
      <use xlink:href="#DejaVuSans-74" transform="translate(316.259766 0)"/>
      <use xlink:href="#DejaVuSans-65" transform="translate(355.46875 0)"/>
      <use xlink:href="#DejaVuSans-72" transform="translate(416.992188 0)"/>
      <use xlink:href="#DejaVuSans-69" transform="translate(458.105469 0)"/>
      <use xlink:href="#DejaVuSans-61" transform="translate(485.888672 0)"/>
      <use xlink:href="#DejaVuSans-6c" transform="translate(547.167969 0)"/>
      <use xlink:href="#DejaVuSans-73" transform="translate(574.951172 0)"/>
      <use xlink:href="#DejaVuSans-20" transform="translate(627.050781 0)"/>
      <use xlink:href="#DejaVuSans-2014" transform="translate(658.837891 0)"/>
      <use xlink:href="#DejaVuSans-20" transform="translate(758.837891 0)"/>
      <use xlink:href="#DejaVuSans-32" transform="translate(790.625 0)"/>
      <use xlink:href="#DejaVuSans-25" transform="translate(854.248047 0)"/>
     </g>
    </g>
    <g id="patch_21">
     <path d="M 326.3184 218.412187 
L 344.3184 218.412187 
L 344.3184 212.112187 
L 326.3184 212.112187 
z
" style="fill: #0c7c8c; stroke: #ffffff; stroke-width: 1.5; stroke-linejoin: miter"/>
    </g>
    <g id="text_10">
     <!-- Paleontology — 2% -->
     <g style="fill: #23414e" transform="translate(351.5184 218.412187) scale(0.09 -0.09)">
      <use xlink:href="#DejaVuSans-50"/>
      <use xlink:href="#DejaVuSans-61" transform="translate(55.802734 0)"/>
      <use xlink:href="#DejaVuSans-6c" transform="translate(117.082031 0)"/>
      <use xlink:href="#DejaVuSans-65" transform="translate(144.865234 0)"/>
      <use xlink:href="#DejaVuSans-6f" transform="translate(206.388672 0)"/>
      <use xlink:href="#DejaVuSans-6e" transform="translate(267.570312 0)"/>
      <use xlink:href="#DejaVuSans-74" transform="translate(330.949219 0)"/>
      <use xlink:href="#DejaVuSans-6f" transform="translate(370.158203 0)"/>
      <use xlink:href="#DejaVuSans-6c" transform="translate(431.339844 0)"/>
      <use xlink:href="#DejaVuSans-6f" transform="translate(459.123047 0)"/>
      <use xlink:href="#DejaVuSans-67" transform="translate(520.304688 0)"/>
      <use xlink:href="#DejaVuSans-79" transform="translate(583.78125 0)"/>
      <use xlink:href="#DejaVuSans-20" transform="translate(642.960938 0)"/>
      <use xlink:href="#DejaVuSans-2014" transform="translate(674.748047 0)"/>
      <use xlink:href="#DejaVuSans-20" transform="translate(774.748047 0)"/>
      <use xlink:href="#DejaVuSans-32" transform="translate(806.535156 0)"/>
      <use xlink:href="#DejaVuSans-25" transform="translate(870.158203 0)"/>
     </g>
    </g>
    <g id="patch_22">
     <path d="M 326.3184 231.6225 
L 344.3184 231.6225 
L 344.3184 225.3225 
L 326.3184 225.3225 
z
" style="fill: #e8743b; stroke: #ffffff; stroke-width: 1.5; stroke-linejoin: miter"/>
    </g>
    <g id="text_11">
     <!-- Management, Monitoring, Policy and Law — 2% -->
     <g style="fill: #23414e" transform="translate(351.5184 231.6225) scale(0.09 -0.09)">
      <defs>
       <path id="DejaVuSans-77" d="M 269 3500 
L 844 3500 
L 1563 769 
L 2278 3500 
L 2956 3500 
L 3675 769 
L 4391 3500 
L 4966 3500 
L 4050 0 
L 3372 0 
L 2619 2869 
L 1863 0 
L 1184 0 
L 269 3500 
z
" transform="scale(0.015625)"/>
      </defs>
      <use xlink:href="#DejaVuSans-4d"/>
      <use xlink:href="#DejaVuSans-61" transform="translate(86.279297 0)"/>
      <use xlink:href="#DejaVuSans-6e" transform="translate(147.558594 0)"/>
      <use xlink:href="#DejaVuSans-61" transform="translate(210.9375 0)"/>
      <use xlink:href="#DejaVuSans-67" transform="translate(272.216797 0)"/>
      <use xlink:href="#DejaVuSans-65" transform="translate(335.693359 0)"/>
      <use xlink:href="#DejaVuSans-6d" transform="translate(397.216797 0)"/>
      <use xlink:href="#DejaVuSans-65" transform="translate(494.628906 0)"/>
      <use xlink:href="#DejaVuSans-6e" transform="translate(556.152344 0)"/>
      <use xlink:href="#DejaVuSans-74" transform="translate(619.53125 0)"/>
      <use xlink:href="#DejaVuSans-2c" transform="translate(658.740234 0)"/>
      <use xlink:href="#DejaVuSans-20" transform="translate(690.527344 0)"/>
      <use xlink:href="#DejaVuSans-4d" transform="translate(722.314453 0)"/>
      <use xlink:href="#DejaVuSans-6f" transform="translate(808.59375 0)"/>
      <use xlink:href="#DejaVuSans-6e" transform="translate(869.775391 0)"/>
      <use xlink:href="#DejaVuSans-69" transform="translate(933.154297 0)"/>
      <use xlink:href="#DejaVuSans-74" transform="translate(960.9375 0)"/>
      <use xlink:href="#DejaVuSans-6f" transform="translate(1000.146484 0)"/>
      <use xlink:href="#DejaVuSans-72" transform="translate(1061.328125 0)"/>
      <use xlink:href="#DejaVuSans-69" transform="translate(1102.441406 0)"/>
      <use xlink:href="#DejaVuSans-6e" transform="translate(1130.224609 0)"/>
      <use xlink:href="#DejaVuSans-67" transform="translate(1193.603516 0)"/>
      <use xlink:href="#DejaVuSans-2c" transform="translate(1257.080078 0)"/>
      <use xlink:href="#DejaVuSans-20" transform="translate(1288.867188 0)"/>
      <use xlink:href="#DejaVuSans-50" transform="translate(1320.654297 0)"/>
      <use xlink:href="#DejaVuSans-6f" transform="translate(1377.332031 0)"/>
      <use xlink:href="#DejaVuSans-6c" transform="translate(1438.513672 0)"/>
      <use xlink:href="#DejaVuSans-69" transform="translate(1466.296875 0)"/>
      <use xlink:href="#DejaVuSans-63" transform="translate(1494.080078 0)"/>
      <use xlink:href="#DejaVuSans-79" transform="translate(1549.060547 0)"/>
      <use xlink:href="#DejaVuSans-20" transform="translate(1608.240234 0)"/>
      <use xlink:href="#DejaVuSans-61" transform="translate(1640.027344 0)"/>
      <use xlink:href="#DejaVuSans-6e" transform="translate(1701.306641 0)"/>
      <use xlink:href="#DejaVuSans-64" transform="translate(1764.685547 0)"/>
      <use xlink:href="#DejaVuSans-20" transform="translate(1828.162109 0)"/>
      <use xlink:href="#DejaVuSans-4c" transform="translate(1859.949219 0)"/>
      <use xlink:href="#DejaVuSans-61" transform="translate(1915.662109 0)"/>
      <use xlink:href="#DejaVuSans-77" transform="translate(1976.941406 0)"/>
      <use xlink:href="#DejaVuSans-20" transform="translate(2058.728516 0)"/>
      <use xlink:href="#DejaVuSans-2014" transform="translate(2090.515625 0)"/>
      <use xlink:href="#DejaVuSans-20" transform="translate(2190.515625 0)"/>
      <use xlink:href="#DejaVuSans-32" transform="translate(2222.302734 0)"/>
      <use xlink:href="#DejaVuSans-25" transform="translate(2285.925781 0)"/>
     </g>
    </g>
    <g id="patch_23">
     <path d="M 326.3184 244.832812 
L 344.3184 244.832812 
L 344.3184 238.532812 
L 326.3184 238.532812 
z
" style="fill: #9aa5ab; stroke: #ffffff; stroke-width: 1.5; stroke-linejoin: miter"/>
    </g>
    <g id="text_12">
     <!-- Other — 19% -->
     <g style="fill: #23414e" transform="translate(351.5184 244.832812) scale(0.09 -0.09)">
      <use xlink:href="#DejaVuSans-4f"/>
      <use xlink:href="#DejaVuSans-74" transform="translate(78.710938 0)"/>
      <use xlink:href="#DejaVuSans-68" transform="translate(117.919922 0)"/>
      <use xlink:href="#DejaVuSans-65" transform="translate(181.298828 0)"/>
      <use xlink:href="#DejaVuSans-72" transform="translate(242.822266 0)"/>
      <use xlink:href="#DejaVuSans-20" transform="translate(283.935547 0)"/>
      <use xlink:href="#DejaVuSans-2014" transform="translate(315.722656 0)"/>
      <use xlink:href="#DejaVuSans-20" transform="translate(415.722656 0)"/>
      <use xlink:href="#DejaVuSans-31" transform="translate(447.509766 0)"/>
      <use xlink:href="#DejaVuSans-39" transform="translate(511.132812 0)"/>
      <use xlink:href="#DejaVuSans-25" transform="translate(574.755859 0)"/>
     </g>
    </g>
   </g>
  </g>
 </g>
</svg>
