<?xml version="1.0" encoding="utf-8" standalone="no"?>
<!DOCTYPE svg PUBLIC "-//W3C//DTD SVG 1.1//EN"
  "http://www.w3.org/Graphics/SVG/1.1/DTD/svg11.dtd">
<svg xmlns:xlink="http://www.w3.org/1999/xlink" width="586.563437pt" height="372.883956pt" viewBox="0 0 586.563437 372.883956" xmlns="http://www.w3.org/2000/svg" version="1.1">
 <metadata>
  <rdf:RDF xmlns:dc="http://purl.org/dc/elements/1.1/" xmlns:cc="http://creativecommons.org/ns#" xmlns:rdf="http://www.w3.org/1999/02/22-rdf-syntax-ns#">
   <cc:Work>
    <dc:type rdf:resource="http://purl.org/dc/dcmitype/StillImage"/>
    <dc:date>2026-06-13T15:06:53.228375</dc:date>
    <dc:format>image/svg+xml</dc:format>
    <dc:creator>
     <cc:Agent>
      <dc:title>Matplotlib v3.10.6, https://matplotlib.org/</dc:title>
     </cc:Agent>
    </dc:creator>
   </cc:Work>
  </rdf:RDF>
 </metadata>
 <defs>
  <style type="text/css">*{stroke-linejoin: round; stroke-linecap: butt}</style>
 </defs>
 <g id="figure_1">
  <g id="patch_1">
   <path d="M 0 372.883956 
L 586.563437 372.883956 
L 586.563437 0 
L 0 0 
z
" style="fill: #ffffff"/>
  </g>
  <g id="axes_1">
   <g id="patch_2">
    <path d="M 35.844688 316.71475 
L 565.944687 316.71475 
L 565.944687 39.51475 
L 35.844688 39.51475 
z
" style="fill: #ffffff"/>
   </g>
   <g id="matplotlib.axis_1">
    <g id="xtick_1">
     <g id="line2d_1">
      <path d="M 59.940142 316.71475 
L 59.940142 39.51475 
" clip-path="url(#pdc37c9ecff)" style="fill: none; stroke: #d7dde0; stroke-width: 0.8; stroke-linecap: square"/>
     </g>
     <g id="line2d_2">
      <defs>
       <path id="m49a8979c6a" d="M 0 0 
L 0 3.5 
" style="stroke: #23414e; stroke-width: 0.8"/>
      </defs>
      <g>
       <use xlink:href="#m49a8979c6a" x="59.940142" y="316.71475" style="fill: #23414e; stroke: #23414e; stroke-width: 0.8"/>
      </g>
     </g>
     <g id="text_1">
      <!-- 2000 -->
      <g style="fill: #23414e" transform="translate(38.52707 349.420402) rotate(-45) scale(0.11 -0.11)">
       <defs>
        <path id="DejaVuSans-32" d="M 1228 531 
L 3431 531 
L 3431 0 
L 469 0 
L 469 531 
Q 828 903 1448 1529 
Q 2069 2156 2228 2338 
Q 2531 2678 2651 2914 
Q 2772 3150 2772 3378 
Q 2772 3750 2511 3984 
Q 2250 4219 1831 4219 
Q 1534 4219 1204 4116 
Q 875 4013 500 3803 
L 500 4441 
Q 881 4594 1212 4672 
Q 1544 4750 1819 4750 
Q 2544 4750 2975 4387 
Q 3406 4025 3406 3419 
Q 3406 3131 3298 2873 
Q 3191 2616 2906 2266 
Q 2828 2175 2409 1742 
Q 1991 1309 1228 531 
z
" transform="scale(0.015625)"/>
        <path id="DejaVuSans-30" d="M 2034 4250 
Q 1547 4250 1301 3770 
Q 1056 3291 1056 2328 
Q 1056 1369 1301 889 
Q 1547 409 2034 409 
Q 2525 409 2770 889 
Q 3016 1369 3016 2328 
Q 3016 3291 2770 3770 
Q 2525 4250 2034 4250 
z
M 2034 4750 
Q 2819 4750 3233 4129 
Q 3647 3509 3647 2328 
Q 3647 1150 3233 529 
Q 2819 -91 2034 -91 
Q 1250 -91 836 529 
Q 422 1150 422 2328 
Q 422 3509 836 4129 
Q 1250 4750 2034 4750 
z
" transform="scale(0.015625)"/>
       </defs>
       <use xlink:href="#DejaVuSans-32"/>
       <use xlink:href="#DejaVuSans-30" transform="translate(63.623047 0)"/>
       <use xlink:href="#DejaVuSans-30" transform="translate(127.246094 0)"/>
       <use xlink:href="#DejaVuSans-30" transform="translate(190.869141 0)"/>
      </g>
     </g>
    </g>
    <g id="xtick_2">
     <g id="line2d_3">
      <path d="M 79.216506 316.71475 
L 79.216506 39.51475 
" clip-path="url(#pdc37c9ecff)" style="fill: none; stroke: #d7dde0; stroke-width: 0.8; stroke-linecap: square"/>
     </g>
     <g id="line2d_4">
      <g>
       <use xlink:href="#m49a8979c6a" x="79.216506" y="316.71475" style="fill: #23414e; stroke: #23414e; stroke-width: 0.8"/>
      </g>
     </g>
     <g id="text_2">
      <!-- 2001 -->
      <g style="fill: #23414e" transform="translate(57.803434 349.420402) rotate(-45) scale(0.11 -0.11)">
       <defs>
        <path id="DejaVuSans-31" d="M 794 531 
L 1825 531 
L 1825 4091 
L 703 3866 
L 703 4441 
L 1819 4666 
L 2450 4666 
L 2450 531 
L 3481 531 
L 3481 0 
L 794 0 
L 794 531 
z
" transform="scale(0.015625)"/>
       </defs>
       <use xlink:href="#DejaVuSans-32"/>
       <use xlink:href="#DejaVuSans-30" transform="translate(63.623047 0)"/>
       <use xlink:href="#DejaVuSans-30" transform="translate(127.246094 0)"/>
       <use xlink:href="#DejaVuSans-31" transform="translate(190.869141 0)"/>
      </g>
     </g>
    </g>
    <g id="xtick_3">
     <g id="line2d_5">
      <path d="M 98.492869 316.71475 
L 98.492869 39.51475 
" clip-path="url(#pdc37c9ecff)" style="fill: none; stroke: #d7dde0; stroke-width: 0.8; stroke-linecap: square"/>
     </g>
     <g id="line2d_6">
      <g>
       <use xlink:href="#m49a8979c6a" x="98.492869" y="316.71475" style="fill: #23414e; stroke: #23414e; stroke-width: 0.8"/>
      </g>
     </g>
     <g id="text_3">
      <!-- 2002 -->
      <g style="fill: #23414e" transform="translate(77.079798 349.420402) rotate(-45) scale(0.11 -0.11)">
       <use xlink:href="#DejaVuSans-32"/>
       <use xlink:href="#DejaVuSans-30" transform="translate(63.623047 0)"/>
       <use xlink:href="#DejaVuSans-30" transform="translate(127.246094 0)"/>
       <use xlink:href="#DejaVuSans-32" transform="translate(190.869141 0)"/>
      </g>
     </g>
    </g>
    <g id="xtick_4">
     <g id="line2d_7">
      <path d="M 117.769233 316.71475 
L 117.769233 39.51475 
" clip-path="url(#pdc37c9ecff)" style="fill: none; stroke: #d7dde0; stroke-width: 0.8; stroke-linecap: square"/>
     </g>
     <g id="line2d_8">
      <g>
       <use xlink:href="#m49a8979c6a" x="117.769233" y="316.71475" style="fill: #23414e; stroke: #23414e; stroke-width: 0.8"/>
      </g>
     </g>
     <g id="text_4">
      <!-- 2003 -->
      <g style="fill: #23414e" transform="translate(96.356161 349.420402) rotate(-45) scale(0.11 -0.11)">
       <defs>
        <path id="DejaVuSans-33" d="M 2597 2516 
Q 3050 2419 3304 2112 
Q 3559 1806 3559 1356 
Q 3559 666 3084 287 
Q 2609 -91 1734 -91 
Q 1441 -91 1130 -33 
Q 819 25 488 141 
L 488 750 
Q 750 597 1062 519 
Q 1375 441 1716 441 
Q 2309 441 2620 675 
Q 2931 909 2931 1356 
Q 2931 1769 2642 2001 
Q 2353 2234 1838 2234 
L 1294 2234 
L 1294 2753 
L 1863 2753 
Q 2328 2753 2575 2939 
Q 2822 3125 2822 3475 
Q 2822 3834 2567 4026 
Q 2313 4219 1838 4219 
Q 1578 4219 1281 4162 
Q 984 4106 628 3988 
L 628 4550 
Q 988 4650 1302 4700 
Q 1616 4750 1894 4750 
Q 2613 4750 3031 4423 
Q 3450 4097 3450 3541 
Q 3450 3153 3228 2886 
Q 3006 2619 2597 2516 
z
" transform="scale(0.015625)"/>
       </defs>
       <use xlink:href="#DejaVuSans-32"/>
       <use xlink:href="#DejaVuSans-30" transform="translate(63.623047 0)"/>
       <use xlink:href="#DejaVuSans-30" transform="translate(127.246094 0)"/>
       <use xlink:href="#DejaVuSans-33" transform="translate(190.869141 0)"/>
      </g>
     </g>
    </g>
    <g id="xtick_5">
     <g id="line2d_9">
      <path d="M 137.045597 316.71475 
L 137.045597 39.51475 
" clip-path="url(#pdc37c9ecff)" style="fill: none; stroke: #d7dde0; stroke-width: 0.8; stroke-linecap: square"/>
     </g>
     <g id="line2d_10">
      <g>
       <use xlink:href="#m49a8979c6a" x="137.045597" y="316.71475" style="fill: #23414e; stroke: #23414e; stroke-width: 0.8"/>
      </g>
     </g>
     <g id="text_5">
      <!-- 2004 -->
      <g style="fill: #23414e" transform="translate(115.632525 349.420402) rotate(-45) scale(0.11 -0.11)">
       <defs>
        <path id="DejaVuSans-34" d="M 2419 4116 
L 825 1625 
L 2419 1625 
L 2419 4116 
z
M 2253 4666 
L 3047 4666 
L 3047 1625 
L 3713 1625 
L 3713 1100 
L 3047 1100 
L 3047 0 
L 2419 0 
L 2419 1100 
L 313 1100 
L 313 1709 
L 2253 4666 
z
" transform="scale(0.015625)"/>
       </defs>
       <use xlink:href="#DejaVuSans-32"/>
       <use xlink:href="#DejaVuSans-30" transform="translate(63.623047 0)"/>
       <use xlink:href="#DejaVuSans-30" transform="translate(127.246094 0)"/>
       <use xlink:href="#DejaVuSans-34" transform="translate(190.869141 0)"/>
      </g>
     </g>
    </g>
    <g id="xtick_6">
     <g id="line2d_11">
      <path d="M 156.32196 316.71475 
L 156.32196 39.51475 
" clip-path="url(#pdc37c9ecff)" style="fill: none; stroke: #d7dde0; stroke-width: 0.8; stroke-linecap: square"/>
     </g>
     <g id="line2d_12">
      <g>
       <use xlink:href="#m49a8979c6a" x="156.32196" y="316.71475" style="fill: #23414e; stroke: #23414e; stroke-width: 0.8"/>
      </g>
     </g>
     <g id="text_6">
      <!-- 2005 -->
      <g style="fill: #23414e" transform="translate(134.908889 349.420402) rotate(-45) scale(0.11 -0.11)">
       <defs>
        <path id="DejaVuSans-35" d="M 691 4666 
L 3169 4666 
L 3169 4134 
L 1269 4134 
L 1269 2991 
Q 1406 3038 1543 3061 
Q 1681 3084 1819 3084 
Q 2600 3084 3056 2656 
Q 3513 2228 3513 1497 
Q 3513 744 3044 326 
Q 2575 -91 1722 -91 
Q 1428 -91 1123 -41 
Q 819 9 494 109 
L 494 744 
Q 775 591 1075 516 
Q 1375 441 1709 441 
Q 2250 441 2565 725 
Q 2881 1009 2881 1497 
Q 2881 1984 2565 2268 
Q 2250 2553 1709 2553 
Q 1456 2553 1204 2497 
Q 953 2441 691 2322 
L 691 4666 
z
" transform="scale(0.015625)"/>
       </defs>
       <use xlink:href="#DejaVuSans-32"/>
       <use xlink:href="#DejaVuSans-30" transform="translate(63.623047 0)"/>
       <use xlink:href="#DejaVuSans-30" transform="translate(127.246094 0)"/>
       <use xlink:href="#DejaVuSans-35" transform="translate(190.869141 0)"/>
      </g>
     </g>
    </g>
    <g id="xtick_7">
     <g id="line2d_13">
      <path d="M 175.598324 316.71475 
L 175.598324 39.51475 
" clip-path="url(#pdc37c9ecff)" style="fill: none; stroke: #d7dde0; stroke-width: 0.8; stroke-linecap: square"/>
     </g>
     <g id="line2d_14">
      <g>
       <use xlink:href="#m49a8979c6a" x="175.598324" y="316.71475" style="fill: #23414e; stroke: #23414e; stroke-width: 0.8"/>
      </g>
     </g>
     <g id="text_7">
      <!-- 2006 -->
      <g style="fill: #23414e" transform="translate(154.185252 349.420402) rotate(-45) scale(0.11 -0.11)">
       <defs>
        <path id="DejaVuSans-36" d="M 2113 2584 
Q 1688 2584 1439 2293 
Q 1191 2003 1191 1497 
Q 1191 994 1439 701 
Q 1688 409 2113 409 
Q 2538 409 2786 701 
Q 3034 994 3034 1497 
Q 3034 2003 2786 2293 
Q 2538 2584 2113 2584 
z
M 3366 4563 
L 3366 3988 
Q 3128 4100 2886 4159 
Q 2644 4219 2406 4219 
Q 1781 4219 1451 3797 
Q 1122 3375 1075 2522 
Q 1259 2794 1537 2939 
Q 1816 3084 2150 3084 
Q 2853 3084 3261 2657 
Q 3669 2231 3669 1497 
Q 3669 778 3244 343 
Q 2819 -91 2113 -91 
Q 1303 -91 875 529 
Q 447 1150 447 2328 
Q 447 3434 972 4092 
Q 1497 4750 2381 4750 
Q 2619 4750 2861 4703 
Q 3103 4656 3366 4563 
z
" transform="scale(0.015625)"/>
       </defs>
       <use xlink:href="#DejaVuSans-32"/>
       <use xlink:href="#DejaVuSans-30" transform="translate(63.623047 0)"/>
       <use xlink:href="#DejaVuSans-30" transform="translate(127.246094 0)"/>
       <use xlink:href="#DejaVuSans-36" transform="translate(190.869141 0)"/>
      </g>
     </g>
    </g>
    <g id="xtick_8">
     <g id="line2d_15">
      <path d="M 194.874688 316.71475 
L 194.874688 39.51475 
" clip-path="url(#pdc37c9ecff)" style="fill: none; stroke: #d7dde0; stroke-width: 0.8; stroke-linecap: square"/>
     </g>
     <g id="line2d_16">
      <g>
       <use xlink:href="#m49a8979c6a" x="194.874688" y="316.71475" style="fill: #23414e; stroke: #23414e; stroke-width: 0.8"/>
      </g>
     </g>
     <g id="text_8">
      <!-- 2007 -->
      <g style="fill: #23414e" transform="translate(173.461616 349.420402) rotate(-45) scale(0.11 -0.11)">
       <defs>
        <path id="DejaVuSans-37" d="M 525 4666 
L 3525 4666 
L 3525 4397 
L 1831 0 
L 1172 0 
L 2766 4134 
L 525 4134 
L 525 4666 
z
" transform="scale(0.015625)"/>
       </defs>
       <use xlink:href="#DejaVuSans-32"/>
       <use xlink:href="#DejaVuSans-30" transform="translate(63.623047 0)"/>
       <use xlink:href="#DejaVuSans-30" transform="translate(127.246094 0)"/>
       <use xlink:href="#DejaVuSans-37" transform="translate(190.869141 0)"/>
      </g>
     </g>
    </g>
    <g id="xtick_9">
     <g id="line2d_17">
      <path d="M 214.151051 316.71475 
L 214.151051 39.51475 
" clip-path="url(#pdc37c9ecff)" style="fill: none; stroke: #d7dde0; stroke-width: 0.8; stroke-linecap: square"/>
     </g>
     <g id="line2d_18">
      <g>
       <use xlink:href="#m49a8979c6a" x="214.151051" y="316.71475" style="fill: #23414e; stroke: #23414e; stroke-width: 0.8"/>
      </g>
     </g>
     <g id="text_9">
      <!-- 2008 -->
      <g style="fill: #23414e" transform="translate(192.73798 349.420402) rotate(-45) scale(0.11 -0.11)">
       <defs>
        <path id="DejaVuSans-38" d="M 2034 2216 
Q 1584 2216 1326 1975 
Q 1069 1734 1069 1313 
Q 1069 891 1326 650 
Q 1584 409 2034 409 
Q 2484 409 2743 651 
Q 3003 894 3003 1313 
Q 3003 1734 2745 1975 
Q 2488 2216 2034 2216 
z
M 1403 2484 
Q 997 2584 770 2862 
Q 544 3141 544 3541 
Q 544 4100 942 4425 
Q 1341 4750 2034 4750 
Q 2731 4750 3128 4425 
Q 3525 4100 3525 3541 
Q 3525 3141 3298 2862 
Q 3072 2584 2669 2484 
Q 3125 2378 3379 2068 
Q 3634 1759 3634 1313 
Q 3634 634 3220 271 
Q 2806 -91 2034 -91 
Q 1263 -91 848 271 
Q 434 634 434 1313 
Q 434 1759 690 2068 
Q 947 2378 1403 2484 
z
M 1172 3481 
Q 1172 3119 1398 2916 
Q 1625 2713 2034 2713 
Q 2441 2713 2670 2916 
Q 2900 3119 2900 3481 
Q 2900 3844 2670 4047 
Q 2441 4250 2034 4250 
Q 1625 4250 1398 4047 
Q 1172 3844 1172 3481 
z
" transform="scale(0.015625)"/>
       </defs>
       <use xlink:href="#DejaVuSans-32"/>
       <use xlink:href="#DejaVuSans-30" transform="translate(63.623047 0)"/>
       <use xlink:href="#DejaVuSans-30" transform="translate(127.246094 0)"/>
       <use xlink:href="#DejaVuSans-38" transform="translate(190.869141 0)"/>
      </g>
     </g>
    </g>
    <g id="xtick_10">
     <g id="line2d_19">
      <path d="M 233.427415 316.71475 
L 233.427415 39.51475 
" clip-path="url(#pdc37c9ecff)" style="fill: none; stroke: #d7dde0; stroke-width: 0.8; stroke-linecap: square"/>
     </g>
     <g id="line2d_20">
      <g>
       <use xlink:href="#m49a8979c6a" x="233.427415" y="316.71475" style="fill: #23414e; stroke: #23414e; stroke-width: 0.8"/>
      </g>
     </g>
     <g id="text_10">
      <!-- 2009 -->
      <g style="fill: #23414e" transform="translate(212.014343 349.420402) rotate(-45) scale(0.11 -0.11)">
       <defs>
        <path id="DejaVuSans-39" d="M 703 97 
L 703 672 
Q 941 559 1184 500 
Q 1428 441 1663 441 
Q 2288 441 2617 861 
Q 2947 1281 2994 2138 
Q 2813 1869 2534 1725 
Q 2256 1581 1919 1581 
Q 1219 1581 811 2004 
Q 403 2428 403 3163 
Q 403 3881 828 4315 
Q 1253 4750 1959 4750 
Q 2769 4750 3195 4129 
Q 3622 3509 3622 2328 
Q 3622 1225 3098 567 
Q 2575 -91 1691 -91 
Q 1453 -91 1209 -44 
Q 966 3 703 97 
z
M 1959 2075 
Q 2384 2075 2632 2365 
Q 2881 2656 2881 3163 
Q 2881 3666 2632 3958 
Q 2384 4250 1959 4250 
Q 1534 4250 1286 3958 
Q 1038 3666 1038 3163 
Q 1038 2656 1286 2365 
Q 1534 2075 1959 2075 
z
" transform="scale(0.015625)"/>
       </defs>
       <use xlink:href="#DejaVuSans-32"/>
       <use xlink:href="#DejaVuSans-30" transform="translate(63.623047 0)"/>
       <use xlink:href="#DejaVuSans-30" transform="translate(127.246094 0)"/>
       <use xlink:href="#DejaVuSans-39" transform="translate(190.869141 0)"/>
      </g>
     </g>
    </g>
    <g id="xtick_11">
     <g id="line2d_21">
      <path d="M 252.703778 316.71475 
L 252.703778 39.51475 
" clip-path="url(#pdc37c9ecff)" style="fill: none; stroke: #d7dde0; stroke-width: 0.8; stroke-linecap: square"/>
     </g>
     <g id="line2d_22">
      <g>
       <use xlink:href="#m49a8979c6a" x="252.703778" y="316.71475" style="fill: #23414e; stroke: #23414e; stroke-width: 0.8"/>
      </g>
     </g>
     <g id="text_11">
      <!-- 2010 -->
      <g style="fill: #23414e" transform="translate(231.290707 349.420402) rotate(-45) scale(0.11 -0.11)">
       <use xlink:href="#DejaVuSans-32"/>
       <use xlink:href="#DejaVuSans-30" transform="translate(63.623047 0)"/>
       <use xlink:href="#DejaVuSans-31" transform="translate(127.246094 0)"/>
       <use xlink:href="#DejaVuSans-30" transform="translate(190.869141 0)"/>
      </g>
     </g>
    </g>
    <g id="xtick_12">
     <g id="line2d_23">
      <path d="M 271.980142 316.71475 
L 271.980142 39.51475 
" clip-path="url(#pdc37c9ecff)" style="fill: none; stroke: #d7dde0; stroke-width: 0.8; stroke-linecap: square"/>
     </g>
     <g id="line2d_24">
      <g>
       <use xlink:href="#m49a8979c6a" x="271.980142" y="316.71475" style="fill: #23414e; stroke: #23414e; stroke-width: 0.8"/>
      </g>
     </g>
     <g id="text_12">
      <!-- 2011 -->
      <g style="fill: #23414e" transform="translate(250.56707 349.420402) rotate(-45) scale(0.11 -0.11)">
       <use xlink:href="#DejaVuSans-32"/>
       <use xlink:href="#DejaVuSans-30" transform="translate(63.623047 0)"/>
       <use xlink:href="#DejaVuSans-31" transform="translate(127.246094 0)"/>
       <use xlink:href="#DejaVuSans-31" transform="translate(190.869141 0)"/>
      </g>
     </g>
    </g>
    <g id="xtick_13">
     <g id="line2d_25">
      <path d="M 291.256506 316.71475 
L 291.256506 39.51475 
" clip-path="url(#pdc37c9ecff)" style="fill: none; stroke: #d7dde0; stroke-width: 0.8; stroke-linecap: square"/>
     </g>
     <g id="line2d_26">
      <g>
       <use xlink:href="#m49a8979c6a" x="291.256506" y="316.71475" style="fill: #23414e; stroke: #23414e; stroke-width: 0.8"/>
      </g>
     </g>
     <g id="text_13">
      <!-- 2012 -->
      <g style="fill: #23414e" transform="translate(269.843434 349.420402) rotate(-45) scale(0.11 -0.11)">
       <use xlink:href="#DejaVuSans-32"/>
       <use xlink:href="#DejaVuSans-30" transform="translate(63.623047 0)"/>
       <use xlink:href="#DejaVuSans-31" transform="translate(127.246094 0)"/>
       <use xlink:href="#DejaVuSans-32" transform="translate(190.869141 0)"/>
      </g>
     </g>
    </g>
    <g id="xtick_14">
     <g id="line2d_27">
      <path d="M 310.532869 316.71475 
L 310.532869 39.51475 
" clip-path="url(#pdc37c9ecff)" style="fill: none; stroke: #d7dde0; stroke-width: 0.8; stroke-linecap: square"/>
     </g>
     <g id="line2d_28">
      <g>
       <use xlink:href="#m49a8979c6a" x="310.532869" y="316.71475" style="fill: #23414e; stroke: #23414e; stroke-width: 0.8"/>
      </g>
     </g>
     <g id="text_14">
      <!-- 2013 -->
      <g style="fill: #23414e" transform="translate(289.119798 349.420402) rotate(-45) scale(0.11 -0.11)">
       <use xlink:href="#DejaVuSans-32"/>
       <use xlink:href="#DejaVuSans-30" transform="translate(63.623047 0)"/>
       <use xlink:href="#DejaVuSans-31" transform="translate(127.246094 0)"/>
       <use xlink:href="#DejaVuSans-33" transform="translate(190.869141 0)"/>
      </g>
     </g>
    </g>
    <g id="xtick_15">
     <g id="line2d_29">
      <path d="M 329.809233 316.71475 
L 329.809233 39.51475 
" clip-path="url(#pdc37c9ecff)" style="fill: none; stroke: #d7dde0; stroke-width: 0.8; stroke-linecap: square"/>
     </g>
     <g id="line2d_30">
      <g>
       <use xlink:href="#m49a8979c6a" x="329.809233" y="316.71475" style="fill: #23414e; stroke: #23414e; stroke-width: 0.8"/>
      </g>
     </g>
     <g id="text_15">
      <!-- 2014 -->
      <g style="fill: #23414e" transform="translate(308.396161 349.420402) rotate(-45) scale(0.11 -0.11)">
       <use xlink:href="#DejaVuSans-32"/>
       <use xlink:href="#DejaVuSans-30" transform="translate(63.623047 0)"/>
       <use xlink:href="#DejaVuSans-31" transform="translate(127.246094 0)"/>
       <use xlink:href="#DejaVuSans-34" transform="translate(190.869141 0)"/>
      </g>
     </g>
    </g>
    <g id="xtick_16">
     <g id="line2d_31">
      <path d="M 349.085597 316.71475 
L 349.085597 39.51475 
" clip-path="url(#pdc37c9ecff)" style="fill: none; stroke: #d7dde0; stroke-width: 0.8; stroke-linecap: square"/>
     </g>
     <g id="line2d_32">
      <g>
       <use xlink:href="#m49a8979c6a" x="349.085597" y="316.71475" style="fill: #23414e; stroke: #23414e; stroke-width: 0.8"/>
      </g>
     </g>
     <g id="text_16">
      <!-- 2015 -->
      <g style="fill: #23414e" transform="translate(327.672525 349.420402) rotate(-45) scale(0.11 -0.11)">
       <use xlink:href="#DejaVuSans-32"/>
       <use xlink:href="#DejaVuSans-30" transform="translate(63.623047 0)"/>
       <use xlink:href="#DejaVuSans-31" transform="translate(127.246094 0)"/>
       <use xlink:href="#DejaVuSans-35" transform="translate(190.869141 0)"/>
      </g>
     </g>
    </g>
    <g id="xtick_17">
     <g id="line2d_33">
      <path d="M 368.36196 316.71475 
L 368.36196 39.51475 
" clip-path="url(#pdc37c9ecff)" style="fill: none; stroke: #d7dde0; stroke-width: 0.8; stroke-linecap: square"/>
     </g>
     <g id="line2d_34">
      <g>
       <use xlink:href="#m49a8979c6a" x="368.36196" y="316.71475" style="fill: #23414e; stroke: #23414e; stroke-width: 0.8"/>
      </g>
     </g>
     <g id="text_17">
      <!-- 2016 -->
      <g style="fill: #23414e" transform="translate(346.948889 349.420402) rotate(-45) scale(0.11 -0.11)">
       <use xlink:href="#DejaVuSans-32"/>
       <use xlink:href="#DejaVuSans-30" transform="translate(63.623047 0)"/>
       <use xlink:href="#DejaVuSans-31" transform="translate(127.246094 0)"/>
       <use xlink:href="#DejaVuSans-36" transform="translate(190.869141 0)"/>
      </g>
     </g>
    </g>
    <g id="xtick_18">
     <g id="line2d_35">
      <path d="M 387.638324 316.71475 
L 387.638324 39.51475 
" clip-path="url(#pdc37c9ecff)" style="fill: none; stroke: #d7dde0; stroke-width: 0.8; stroke-linecap: square"/>
     </g>
     <g id="line2d_36">
      <g>
       <use xlink:href="#m49a8979c6a" x="387.638324" y="316.71475" style="fill: #23414e; stroke: #23414e; stroke-width: 0.8"/>
      </g>
     </g>
     <g id="text_18">
      <!-- 2017 -->
      <g style="fill: #23414e" transform="translate(366.225252 349.420402) rotate(-45) scale(0.11 -0.11)">
       <use xlink:href="#DejaVuSans-32"/>
       <use xlink:href="#DejaVuSans-30" transform="translate(63.623047 0)"/>
       <use xlink:href="#DejaVuSans-31" transform="translate(127.246094 0)"/>
       <use xlink:href="#DejaVuSans-37" transform="translate(190.869141 0)"/>
      </g>
     </g>
    </g>
    <g id="xtick_19">
     <g id="line2d_37">
      <path d="M 406.914688 316.71475 
L 406.914688 39.51475 
" clip-path="url(#pdc37c9ecff)" style="fill: none; stroke: #d7dde0; stroke-width: 0.8; stroke-linecap: square"/>
     </g>
     <g id="line2d_38">
      <g>
       <use xlink:href="#m49a8979c6a" x="406.914688" y="316.71475" style="fill: #23414e; stroke: #23414e; stroke-width: 0.8"/>
      </g>
     </g>
     <g id="text_19">
      <!-- 2018 -->
      <g style="fill: #23414e" transform="translate(385.501616 349.420402) rotate(-45) scale(0.11 -0.11)">
       <use xlink:href="#DejaVuSans-32"/>
       <use xlink:href="#DejaVuSans-30" transform="translate(63.623047 0)"/>
       <use xlink:href="#DejaVuSans-31" transform="translate(127.246094 0)"/>
       <use xlink:href="#DejaVuSans-38" transform="translate(190.869141 0)"/>
      </g>
     </g>
    </g>
    <g id="xtick_20">
     <g id="line2d_39">
      <path d="M 426.191051 316.71475 
L 426.191051 39.51475 
" clip-path="url(#pdc37c9ecff)" style="fill: none; stroke: #d7dde0; stroke-width: 0.8; stroke-linecap: square"/>
     </g>
     <g id="line2d_40">
      <g>
       <use xlink:href="#m49a8979c6a" x="426.191051" y="316.71475" style="fill: #23414e; stroke: #23414e; stroke-width: 0.8"/>
      </g>
     </g>
     <g id="text_20">
      <!-- 2019 -->
      <g style="fill: #23414e" transform="translate(404.77798 349.420402) rotate(-45) scale(0.11 -0.11)">
       <use xlink:href="#DejaVuSans-32"/>
       <use xlink:href="#DejaVuSans-30" transform="translate(63.623047 0)"/>
       <use xlink:href="#DejaVuSans-31" transform="translate(127.246094 0)"/>
       <use xlink:href="#DejaVuSans-39" transform="translate(190.869141 0)"/>
      </g>
     </g>
    </g>
    <g id="xtick_21">
     <g id="line2d_41">
      <path d="M 445.467415 316.71475 
L 445.467415 39.51475 
" clip-path="url(#pdc37c9ecff)" style="fill: none; stroke: #d7dde0; stroke-width: 0.8; stroke-linecap: square"/>
     </g>
     <g id="line2d_42">
      <g>
       <use xlink:href="#m49a8979c6a" x="445.467415" y="316.71475" style="fill: #23414e; stroke: #23414e; stroke-width: 0.8"/>
      </g>
     </g>
     <g id="text_21">
      <!-- 2020 -->
      <g style="fill: #23414e" transform="translate(424.054343 349.420402) rotate(-45) scale(0.11 -0.11)">
       <use xlink:href="#DejaVuSans-32"/>
       <use xlink:href="#DejaVuSans-30" transform="translate(63.623047 0)"/>
       <use xlink:href="#DejaVuSans-32" transform="translate(127.246094 0)"/>
       <use xlink:href="#DejaVuSans-30" transform="translate(190.869141 0)"/>
      </g>
     </g>
    </g>
    <g id="xtick_22">
     <g id="line2d_43">
      <path d="M 464.743778 316.71475 
L 464.743778 39.51475 
" clip-path="url(#pdc37c9ecff)" style="fill: none; stroke: #d7dde0; stroke-width: 0.8; stroke-linecap: square"/>
     </g>
     <g id="line2d_44">
      <g>
       <use xlink:href="#m49a8979c6a" x="464.743778" y="316.71475" style="fill: #23414e; stroke: #23414e; stroke-width: 0.8"/>
      </g>
     </g>
     <g id="text_22">
      <!-- 2021 -->
      <g style="fill: #23414e" transform="translate(443.330707 349.420402) rotate(-45) scale(0.11 -0.11)">
       <use xlink:href="#DejaVuSans-32"/>
       <use xlink:href="#DejaVuSans-30" transform="translate(63.623047 0)"/>
       <use xlink:href="#DejaVuSans-32" transform="translate(127.246094 0)"/>
       <use xlink:href="#DejaVuSans-31" transform="translate(190.869141 0)"/>
      </g>
     </g>
    </g>
    <g id="xtick_23">
     <g id="line2d_45">
      <path d="M 484.020142 316.71475 
L 484.020142 39.51475 
" clip-path="url(#pdc37c9ecff)" style="fill: none; stroke: #d7dde0; stroke-width: 0.8; stroke-linecap: square"/>
     </g>
     <g id="line2d_46">
      <g>
       <use xlink:href="#m49a8979c6a" x="484.020142" y="316.71475" style="fill: #23414e; stroke: #23414e; stroke-width: 0.8"/>
      </g>
     </g>
     <g id="text_23">
      <!-- 2022 -->
      <g style="fill: #23414e" transform="translate(462.60707 349.420402) rotate(-45) scale(0.11 -0.11)">
       <use xlink:href="#DejaVuSans-32"/>
       <use xlink:href="#DejaVuSans-30" transform="translate(63.623047 0)"/>
       <use xlink:href="#DejaVuSans-32" transform="translate(127.246094 0)"/>
       <use xlink:href="#DejaVuSans-32" transform="translate(190.869141 0)"/>
      </g>
     </g>
    </g>
    <g id="xtick_24">
     <g id="line2d_47">
      <path d="M 503.296506 316.71475 
L 503.296506 39.51475 
" clip-path="url(#pdc37c9ecff)" style="fill: none; stroke: #d7dde0; stroke-width: 0.8; stroke-linecap: square"/>
     </g>
     <g id="line2d_48">
      <g>
       <use xlink:href="#m49a8979c6a" x="503.296506" y="316.71475" style="fill: #23414e; stroke: #23414e; stroke-width: 0.8"/>
      </g>
     </g>
     <g id="text_24">
      <!-- 2023 -->
      <g style="fill: #23414e" transform="translate(481.883434 349.420402) rotate(-45) scale(0.11 -0.11)">
       <use xlink:href="#DejaVuSans-32"/>
       <use xlink:href="#DejaVuSans-30" transform="translate(63.623047 0)"/>
       <use xlink:href="#DejaVuSans-32" transform="translate(127.246094 0)"/>
       <use xlink:href="#DejaVuSans-33" transform="translate(190.869141 0)"/>
      </g>
     </g>
    </g>
    <g id="xtick_25">
     <g id="line2d_49">
      <path d="M 522.572869 316.71475 
L 522.572869 39.51475 
" clip-path="url(#pdc37c9ecff)" style="fill: none; stroke: #d7dde0; stroke-width: 0.8; stroke-linecap: square"/>
     </g>
     <g id="line2d_50">
      <g>
       <use xlink:href="#m49a8979c6a" x="522.572869" y="316.71475" style="fill: #23414e; stroke: #23414e; stroke-width: 0.8"/>
      </g>
     </g>
     <g id="text_25">
      <!-- 2024 -->
      <g style="fill: #23414e" transform="translate(501.159798 349.420402) rotate(-45) scale(0.11 -0.11)">
       <use xlink:href="#DejaVuSans-32"/>
       <use xlink:href="#DejaVuSans-30" transform="translate(63.623047 0)"/>
       <use xlink:href="#DejaVuSans-32" transform="translate(127.246094 0)"/>
       <use xlink:href="#DejaVuSans-34" transform="translate(190.869141 0)"/>
      </g>
     </g>
    </g>
    <g id="xtick_26">
     <g id="line2d_51">
      <path d="M 541.849233 316.71475 
L 541.849233 39.51475 
" clip-path="url(#pdc37c9ecff)" style="fill: none; stroke: #d7dde0; stroke-width: 0.8; stroke-linecap: square"/>
     </g>
     <g id="line2d_52">
      <g>
       <use xlink:href="#m49a8979c6a" x="541.849233" y="316.71475" style="fill: #23414e; stroke: #23414e; stroke-width: 0.8"/>
      </g>
     </g>
     <g id="text_26">
      <!-- 2025 -->
      <g style="fill: #23414e" transform="translate(520.436161 349.420402) rotate(-45) scale(0.11 -0.11)">
       <use xlink:href="#DejaVuSans-32"/>
       <use xlink:href="#DejaVuSans-30" transform="translate(63.623047 0)"/>
       <use xlink:href="#DejaVuSans-32" transform="translate(127.246094 0)"/>
       <use xlink:href="#DejaVuSans-35" transform="translate(190.869141 0)"/>
      </g>
     </g>
    </g>
    <g id="text_27">
     <!-- Year -->
     <g style="fill: #23414e" transform="translate(289.248438 363.3963) scale(0.11 -0.11)">
      <defs>
       <path id="DejaVuSans-59" d="M -13 4666 
L 666 4666 
L 1959 2747 
L 3244 4666 
L 3922 4666 
L 2272 2222 
L 2272 0 
L 1638 0 
L 1638 2222 
L -13 4666 
z
" transform="scale(0.015625)"/>
       <path id="DejaVuSans-65" d="M 3597 1894 
L 3597 1613 
L 953 1613 
Q 991 1019 1311 708 
Q 1631 397 2203 397 
Q 2534 397 2845 478 
Q 3156 559 3463 722 
L 3463 178 
Q 3153 47 2828 -22 
Q 2503 -91 2169 -91 
Q 1331 -91 842 396 
Q 353 884 353 1716 
Q 353 2575 817 3079 
Q 1281 3584 2069 3584 
Q 2775 3584 3186 3129 
Q 3597 2675 3597 1894 
z
M 3022 2063 
Q 3016 2534 2758 2815 
Q 2500 3097 2075 3097 
Q 1594 3097 1305 2825 
Q 1016 2553 972 2059 
L 3022 2063 
z
" transform="scale(0.015625)"/>
       <path id="DejaVuSans-61" d="M 2194 1759 
Q 1497 1759 1228 1600 
Q 959 1441 959 1056 
Q 959 750 1161 570 
Q 1363 391 1709 391 
Q 2188 391 2477 730 
Q 2766 1069 2766 1631 
L 2766 1759 
L 2194 1759 
z
M 3341 1997 
L 3341 0 
L 2766 0 
L 2766 531 
Q 2569 213 2275 61 
Q 1981 -91 1556 -91 
Q 1019 -91 701 211 
Q 384 513 384 1019 
Q 384 1609 779 1909 
Q 1175 2209 1959 2209 
L 2766 2209 
L 2766 2266 
Q 2766 2663 2505 2880 
Q 2244 3097 1772 3097 
Q 1472 3097 1187 3025 
Q 903 2953 641 2809 
L 641 3341 
Q 956 3463 1253 3523 
Q 1550 3584 1831 3584 
Q 2591 3584 2966 3190 
Q 3341 2797 3341 1997 
z
" transform="scale(0.015625)"/>
       <path id="DejaVuSans-72" d="M 2631 2963 
Q 2534 3019 2420 3045 
Q 2306 3072 2169 3072 
Q 1681 3072 1420 2755 
Q 1159 2438 1159 1844 
L 1159 0 
L 581 0 
L 581 3500 
L 1159 3500 
L 1159 2956 
Q 1341 3275 1631 3429 
Q 1922 3584 2338 3584 
Q 2397 3584 2469 3576 
Q 2541 3569 2628 3553 
L 2631 2963 
z
" transform="scale(0.015625)"/>
      </defs>
      <use xlink:href="#DejaVuSans-59"/>
      <use xlink:href="#DejaVuSans-65" transform="translate(47.833984 0)"/>
      <use xlink:href="#DejaVuSans-61" transform="translate(109.357422 0)"/>
      <use xlink:href="#DejaVuSans-72" transform="translate(170.636719 0)"/>
     </g>
    </g>
   </g>
   <g id="matplotlib.axis_2">
    <g id="ytick_1">
     <g id="line2d_53">
      <path d="M 35.844688 316.71475 
L 565.944687 316.71475 
" clip-path="url(#pdc37c9ecff)" style="fill: none; stroke: #d7dde0; stroke-width: 0.8; stroke-linecap: square"/>
     </g>
     <g id="line2d_54">
      <defs>
       <path id="m799ecad070" d="M 0 0 
L -3.5 0 
" style="stroke: #23414e; stroke-width: 0.8"/>
      </defs>
      <g>
       <use xlink:href="#m799ecad070" x="35.844688" y="316.71475" style="fill: #23414e; stroke: #23414e; stroke-width: 0.8"/>
      </g>
     </g>
     <g id="text_28">
      <!-- 0 -->
      <g style="fill: #23414e" transform="translate(21.845938 320.893891) scale(0.11 -0.11)">
       <use xlink:href="#DejaVuSans-30"/>
      </g>
     </g>
    </g>
    <g id="ytick_2">
     <g id="line2d_55">
      <path d="M 35.844688 264.315611 
L 565.944687 264.315611 
" clip-path="url(#pdc37c9ecff)" style="fill: none; stroke: #d7dde0; stroke-width: 0.8; stroke-linecap: square"/>
     </g>
     <g id="line2d_56">
      <g>
       <use xlink:href="#m799ecad070" x="35.844688" y="264.315611" style="fill: #23414e; stroke: #23414e; stroke-width: 0.8"/>
      </g>
     </g>
     <g id="text_29">
      <!-- 1 -->
      <g style="fill: #23414e" transform="translate(21.845938 268.494752) scale(0.11 -0.11)">
       <use xlink:href="#DejaVuSans-31"/>
      </g>
     </g>
    </g>
    <g id="ytick_3">
     <g id="line2d_57">
      <path d="M 35.844688 211.916472 
L 565.944687 211.916472 
" clip-path="url(#pdc37c9ecff)" style="fill: none; stroke: #d7dde0; stroke-width: 0.8; stroke-linecap: square"/>
     </g>
     <g id="line2d_58">
      <g>
       <use xlink:href="#m799ecad070" x="35.844688" y="211.916472" style="fill: #23414e; stroke: #23414e; stroke-width: 0.8"/>
      </g>
     </g>
     <g id="text_30">
      <!-- 2 -->
      <g style="fill: #23414e" transform="translate(21.845938 216.095613) scale(0.11 -0.11)">
       <use xlink:href="#DejaVuSans-32"/>
      </g>
     </g>
    </g>
    <g id="ytick_4">
     <g id="line2d_59">
      <path d="M 35.844688 159.517334 
L 565.944687 159.517334 
" clip-path="url(#pdc37c9ecff)" style="fill: none; stroke: #d7dde0; stroke-width: 0.8; stroke-linecap: square"/>
     </g>
     <g id="line2d_60">
      <g>
       <use xlink:href="#m799ecad070" x="35.844688" y="159.517334" style="fill: #23414e; stroke: #23414e; stroke-width: 0.8"/>
      </g>
     </g>
     <g id="text_31">
      <!-- 3 -->
      <g style="fill: #23414e" transform="translate(21.845938 163.696474) scale(0.11 -0.11)">
       <use xlink:href="#DejaVuSans-33"/>
      </g>
     </g>
    </g>
    <g id="ytick_5">
     <g id="line2d_61">
      <path d="M 35.844688 107.118195 
L 565.944687 107.118195 
" clip-path="url(#pdc37c9ecff)" style="fill: none; stroke: #d7dde0; stroke-width: 0.8; stroke-linecap: square"/>
     </g>
     <g id="line2d_62">
      <g>
       <use xlink:href="#m799ecad070" x="35.844688" y="107.118195" style="fill: #23414e; stroke: #23414e; stroke-width: 0.8"/>
      </g>
     </g>
     <g id="text_32">
      <!-- 4 -->
      <g style="fill: #23414e" transform="translate(21.845938 111.297335) scale(0.11 -0.11)">
       <use xlink:href="#DejaVuSans-34"/>
      </g>
     </g>
    </g>
    <g id="ytick_6">
     <g id="line2d_63">
      <path d="M 35.844688 54.719056 
L 565.944687 54.719056 
" clip-path="url(#pdc37c9ecff)" style="fill: none; stroke: #d7dde0; stroke-width: 0.8; stroke-linecap: square"/>
     </g>
     <g id="line2d_64">
      <g>
       <use xlink:href="#m799ecad070" x="35.844688" y="54.719056" style="fill: #23414e; stroke: #23414e; stroke-width: 0.8"/>
      </g>
     </g>
     <g id="text_33">
      <!-- 5 -->
      <g style="fill: #23414e" transform="translate(21.845938 58.898196) scale(0.11 -0.11)">
       <use xlink:href="#DejaVuSans-35"/>
      </g>
     </g>
    </g>
    <g id="text_34">
     <!-- Specialization ratio (×) -->
     <g style="fill: #23414e" transform="translate(15.558281 241.330375) rotate(-90) scale(0.11 -0.11)">
      <defs>
       <path id="DejaVuSans-53" d="M 3425 4513 
L 3425 3897 
Q 3066 4069 2747 4153 
Q 2428 4238 2131 4238 
Q 1616 4238 1336 4038 
Q 1056 3838 1056 3469 
Q 1056 3159 1242 3001 
Q 1428 2844 1947 2747 
L 2328 2669 
Q 3034 2534 3370 2195 
Q 3706 1856 3706 1288 
Q 3706 609 3251 259 
Q 2797 -91 1919 -91 
Q 1588 -91 1214 -16 
Q 841 59 441 206 
L 441 856 
Q 825 641 1194 531 
Q 1563 422 1919 422 
Q 2459 422 2753 634 
Q 3047 847 3047 1241 
Q 3047 1584 2836 1778 
Q 2625 1972 2144 2069 
L 1759 2144 
Q 1053 2284 737 2584 
Q 422 2884 422 3419 
Q 422 4038 858 4394 
Q 1294 4750 2059 4750 
Q 2388 4750 2728 4690 
Q 3069 4631 3425 4513 
z
" transform="scale(0.015625)"/>
       <path id="DejaVuSans-70" d="M 1159 525 
L 1159 -1331 
L 581 -1331 
L 581 3500 
L 1159 3500 
L 1159 2969 
Q 1341 3281 1617 3432 
Q 1894 3584 2278 3584 
Q 2916 3584 3314 3078 
Q 3713 2572 3713 1747 
Q 3713 922 3314 415 
Q 2916 -91 2278 -91 
Q 1894 -91 1617 61 
Q 1341 213 1159 525 
z
M 3116 1747 
Q 3116 2381 2855 2742 
Q 2594 3103 2138 3103 
Q 1681 3103 1420 2742 
Q 1159 2381 1159 1747 
Q 1159 1113 1420 752 
Q 1681 391 2138 391 
Q 2594 391 2855 752 
Q 3116 1113 3116 1747 
z
" transform="scale(0.015625)"/>
       <path id="DejaVuSans-63" d="M 3122 3366 
L 3122 2828 
Q 2878 2963 2633 3030 
Q 2388 3097 2138 3097 
Q 1578 3097 1268 2742 
Q 959 2388 959 1747 
Q 959 1106 1268 751 
Q 1578 397 2138 397 
Q 2388 397 2633 464 
Q 2878 531 3122 666 
L 3122 134 
Q 2881 22 2623 -34 
Q 2366 -91 2075 -91 
Q 1284 -91 818 406 
Q 353 903 353 1747 
Q 353 2603 823 3093 
Q 1294 3584 2113 3584 
Q 2378 3584 2631 3529 
Q 2884 3475 3122 3366 
z
" transform="scale(0.015625)"/>
       <path id="DejaVuSans-69" d="M 603 3500 
L 1178 3500 
L 1178 0 
L 603 0 
L 603 3500 
z
M 603 4863 
L 1178 4863 
L 1178 4134 
L 603 4134 
L 603 4863 
z
" transform="scale(0.015625)"/>
       <path id="DejaVuSans-6c" d="M 603 4863 
L 1178 4863 
L 1178 0 
L 603 0 
L 603 4863 
z
" transform="scale(0.015625)"/>
       <path id="DejaVuSans-7a" d="M 353 3500 
L 3084 3500 
L 3084 2975 
L 922 459 
L 3084 459 
L 3084 0 
L 275 0 
L 275 525 
L 2438 3041 
L 353 3041 
L 353 3500 
z
" transform="scale(0.015625)"/>
       <path id="DejaVuSans-74" d="M 1172 4494 
L 1172 3500 
L 2356 3500 
L 2356 3053 
L 1172 3053 
L 1172 1153 
Q 1172 725 1289 603 
Q 1406 481 1766 481 
L 2356 481 
L 2356 0 
L 1766 0 
Q 1100 0 847 248 
Q 594 497 594 1153 
L 594 3053 
L 172 3053 
L 172 3500 
L 594 3500 
L 594 4494 
L 1172 4494 
z
" transform="scale(0.015625)"/>
       <path id="DejaVuSans-6f" d="M 1959 3097 
Q 1497 3097 1228 2736 
Q 959 2375 959 1747 
Q 959 1119 1226 758 
Q 1494 397 1959 397 
Q 2419 397 2687 759 
Q 2956 1122 2956 1747 
Q 2956 2369 2687 2733 
Q 2419 3097 1959 3097 
z
M 1959 3584 
Q 2709 3584 3137 3096 
Q 3566 2609 3566 1747 
Q 3566 888 3137 398 
Q 2709 -91 1959 -91 
Q 1206 -91 779 398 
Q 353 888 353 1747 
Q 353 2609 779 3096 
Q 1206 3584 1959 3584 
z
" transform="scale(0.015625)"/>
       <path id="DejaVuSans-6e" d="M 3513 2113 
L 3513 0 
L 2938 0 
L 2938 2094 
Q 2938 2591 2744 2837 
Q 2550 3084 2163 3084 
Q 1697 3084 1428 2787 
Q 1159 2491 1159 1978 
L 1159 0 
L 581 0 
L 581 3500 
L 1159 3500 
L 1159 2956 
Q 1366 3272 1645 3428 
Q 1925 3584 2291 3584 
Q 2894 3584 3203 3211 
Q 3513 2838 3513 2113 
z
" transform="scale(0.015625)"/>
       <path id="DejaVuSans-20" transform="scale(0.015625)"/>
       <path id="DejaVuSans-28" d="M 1984 4856 
Q 1566 4138 1362 3434 
Q 1159 2731 1159 2009 
Q 1159 1288 1364 580 
Q 1569 -128 1984 -844 
L 1484 -844 
Q 1016 -109 783 600 
Q 550 1309 550 2009 
Q 550 2706 781 3412 
Q 1013 4119 1484 4856 
L 1984 4856 
z
" transform="scale(0.015625)"/>
       <path id="DejaVuSans-d7" d="M 4488 3438 
L 3059 2003 
L 4488 575 
L 4116 197 
L 2681 1631 
L 1247 197 
L 878 575 
L 2303 2003 
L 878 3438 
L 1247 3816 
L 2681 2381 
L 4116 3816 
L 4488 3438 
z
" transform="scale(0.015625)"/>
       <path id="DejaVuSans-29" d="M 513 4856 
L 1013 4856 
Q 1481 4119 1714 3412 
Q 1947 2706 1947 2009 
Q 1947 1309 1714 600 
Q 1481 -109 1013 -844 
L 513 -844 
Q 928 -128 1133 580 
Q 1338 1288 1338 2009 
Q 1338 2731 1133 3434 
Q 928 4138 513 4856 
z
" transform="scale(0.015625)"/>
      </defs>
      <use xlink:href="#DejaVuSans-53"/>
      <use xlink:href="#DejaVuSans-70" transform="translate(63.476562 0)"/>
      <use xlink:href="#DejaVuSans-65" transform="translate(126.953125 0)"/>
      <use xlink:href="#DejaVuSans-63" transform="translate(188.476562 0)"/>
      <use xlink:href="#DejaVuSans-69" transform="translate(243.457031 0)"/>
      <use xlink:href="#DejaVuSans-61" transform="translate(271.240234 0)"/>
      <use xlink:href="#DejaVuSans-6c" transform="translate(332.519531 0)"/>
      <use xlink:href="#DejaVuSans-69" transform="translate(360.302734 0)"/>
      <use xlink:href="#DejaVuSans-7a" transform="translate(388.085938 0)"/>
      <use xlink:href="#DejaVuSans-61" transform="translate(440.576172 0)"/>
      <use xlink:href="#DejaVuSans-74" transform="translate(501.855469 0)"/>
      <use xlink:href="#DejaVuSans-69" transform="translate(541.064453 0)"/>
      <use xlink:href="#DejaVuSans-6f" transform="translate(568.847656 0)"/>
      <use xlink:href="#DejaVuSans-6e" transform="translate(630.029297 0)"/>
      <use xlink:href="#DejaVuSans-20" transform="translate(693.408203 0)"/>
      <use xlink:href="#DejaVuSans-72" transform="translate(725.195312 0)"/>
      <use xlink:href="#DejaVuSans-61" transform="translate(766.308594 0)"/>
      <use xlink:href="#DejaVuSans-74" transform="translate(827.587891 0)"/>
      <use xlink:href="#DejaVuSans-69" transform="translate(866.796875 0)"/>
      <use xlink:href="#DejaVuSans-6f" transform="translate(894.580078 0)"/>
      <use xlink:href="#DejaVuSans-20" transform="translate(955.761719 0)"/>
      <use xlink:href="#DejaVuSans-28" transform="translate(987.548828 0)"/>
      <use xlink:href="#DejaVuSans-d7" transform="translate(1026.5625 0)"/>
      <use xlink:href="#DejaVuSans-29" transform="translate(1110.351562 0)"/>
     </g>
    </g>
   </g>
   <g id="FillBetweenPolyCollection_1">
    <defs>
     <path id="md008c6d359" d="M 59.940142 -108.568345 
L 59.940142 -183.829095 
L 79.216506 -275.877446 
L 98.492869 -260.677527 
L 117.769233 -264.553068 
L 137.045597 -258.245263 
L 156.32196 -282.133439 
L 175.598324 -301.885038 
L 194.874688 -275.870074 
L 214.151051 -288.99114 
L 233.427415 -299.137145 
L 252.703778 -290.854031 
L 271.980142 -317.580427 
L 291.256506 -298.813592 
L 310.532869 -322.664404 
L 329.809233 -262.239847 
L 349.085597 -312.964606 
L 368.36196 -279.286952 
L 387.638324 -296.666192 
L 406.914688 -302.900399 
L 426.191051 -293.754826 
L 445.467415 -266.701656 
L 464.743778 -245.987356 
L 484.020142 -240.011193 
L 503.296506 -225.455736 
L 522.572869 -224.301502 
L 541.849233 -270.297957 
L 541.849233 -108.568345 
L 541.849233 -108.568345 
L 522.572869 -108.568345 
L 503.296506 -108.568345 
L 484.020142 -108.568345 
L 464.743778 -108.568345 
L 445.467415 -108.568345 
L 426.191051 -108.568345 
L 406.914688 -108.568345 
L 387.638324 -108.568345 
L 368.36196 -108.568345 
L 349.085597 -108.568345 
L 329.809233 -108.568345 
L 310.532869 -108.568345 
L 291.256506 -108.568345 
L 271.980142 -108.568345 
L 252.703778 -108.568345 
L 233.427415 -108.568345 
L 214.151051 -108.568345 
L 194.874688 -108.568345 
L 175.598324 -108.568345 
L 156.32196 -108.568345 
L 137.045597 -108.568345 
L 117.769233 -108.568345 
L 98.492869 -108.568345 
L 79.216506 -108.568345 
L 59.940142 -108.568345 
z
" style="stroke: #0c7c8c; stroke-opacity: 0.18"/>
    </defs>
    <g clip-path="url(#pdc37c9ecff)">
     <use xlink:href="#md008c6d359" x="0" y="372.883956" style="fill: #0c7c8c; fill-opacity: 0.18; stroke: #0c7c8c; stroke-opacity: 0.18"/>
    </g>
   </g>
   <g id="line2d_65">
    <path d="M 59.940142 189.054862 
L 79.216506 97.00651 
L 98.492869 112.206429 
L 117.769233 108.330888 
L 137.045597 114.638694 
L 156.32196 90.750518 
L 175.598324 70.998918 
L 194.874688 97.013882 
L 214.151051 83.892817 
L 233.427415 73.746812 
L 252.703778 82.029925 
L 271.980142 55.30353 
L 291.256506 74.070364 
L 310.532869 50.219553 
L 329.809233 110.644109 
L 349.085597 59.91935 
L 368.36196 93.597005 
L 387.638324 76.217765 
L 406.914688 69.983557 
L 426.191051 79.129131 
L 445.467415 106.1823 
L 464.743778 126.896601 
L 484.020142 132.872763 
L 503.296506 147.428221 
L 522.572869 148.582455 
L 541.849233 102.586 
" clip-path="url(#pdc37c9ecff)" style="fill: none; stroke: #06525d; stroke-width: 2.8; stroke-linecap: square"/>
    <defs>
     <path id="mf830c95692" d="M 0 2 
C 0.530406 2 1.03916 1.789267 1.414214 1.414214 
C 1.789267 1.03916 2 0.530406 2 0 
C 2 -0.530406 1.789267 -1.03916 1.414214 -1.414214 
C 1.03916 -1.789267 0.530406 -2 0 -2 
C -0.530406 -2 -1.03916 -1.789267 -1.414214 -1.414214 
C -1.789267 -1.03916 -2 -0.530406 -2 0 
C -2 0.530406 -1.789267 1.03916 -1.414214 1.414214 
C -1.03916 1.789267 -0.530406 2 0 2 
z
" style="stroke: #06525d"/>
    </defs>
    <g clip-path="url(#pdc37c9ecff)">
     <use xlink:href="#mf830c95692" x="59.940142" y="189.054862" style="fill: #06525d; stroke: #06525d"/>
     <use xlink:href="#mf830c95692" x="79.216506" y="97.00651" style="fill: #06525d; stroke: #06525d"/>
     <use xlink:href="#mf830c95692" x="98.492869" y="112.206429" style="fill: #06525d; stroke: #06525d"/>
     <use xlink:href="#mf830c95692" x="117.769233" y="108.330888" style="fill: #06525d; stroke: #06525d"/>
     <use xlink:href="#mf830c95692" x="137.045597" y="114.638694" style="fill: #06525d; stroke: #06525d"/>
     <use xlink:href="#mf830c95692" x="156.32196" y="90.750518" style="fill: #06525d; stroke: #06525d"/>
     <use xlink:href="#mf830c95692" x="175.598324" y="70.998918" style="fill: #06525d; stroke: #06525d"/>
     <use xlink:href="#mf830c95692" x="194.874688" y="97.013882" style="fill: #06525d; stroke: #06525d"/>
     <use xlink:href="#mf830c95692" x="214.151051" y="83.892817" style="fill: #06525d; stroke: #06525d"/>
     <use xlink:href="#mf830c95692" x="233.427415" y="73.746812" style="fill: #06525d; stroke: #06525d"/>
     <use xlink:href="#mf830c95692" x="252.703778" y="82.029925" style="fill: #06525d; stroke: #06525d"/>
     <use xlink:href="#mf830c95692" x="271.980142" y="55.30353" style="fill: #06525d; stroke: #06525d"/>
     <use xlink:href="#mf830c95692" x="291.256506" y="74.070364" style="fill: #06525d; stroke: #06525d"/>
     <use xlink:href="#mf830c95692" x="310.532869" y="50.219553" style="fill: #06525d; stroke: #06525d"/>
     <use xlink:href="#mf830c95692" x="329.809233" y="110.644109" style="fill: #06525d; stroke: #06525d"/>
     <use xlink:href="#mf830c95692" x="349.085597" y="59.91935" style="fill: #06525d; stroke: #06525d"/>
     <use xlink:href="#mf830c95692" x="368.36196" y="93.597005" style="fill: #06525d; stroke: #06525d"/>
     <use xlink:href="#mf830c95692" x="387.638324" y="76.217765" style="fill: #06525d; stroke: #06525d"/>
     <use xlink:href="#mf830c95692" x="406.914688" y="69.983557" style="fill: #06525d; stroke: #06525d"/>
     <use xlink:href="#mf830c95692" x="426.191051" y="79.129131" style="fill: #06525d; stroke: #06525d"/>
     <use xlink:href="#mf830c95692" x="445.467415" y="106.1823" style="fill: #06525d; stroke: #06525d"/>
     <use xlink:href="#mf830c95692" x="464.743778" y="126.896601" style="fill: #06525d; stroke: #06525d"/>
     <use xlink:href="#mf830c95692" x="484.020142" y="132.872763" style="fill: #06525d; stroke: #06525d"/>
     <use xlink:href="#mf830c95692" x="503.296506" y="147.428221" style="fill: #06525d; stroke: #06525d"/>
     <use xlink:href="#mf830c95692" x="522.572869" y="148.582455" style="fill: #06525d; stroke: #06525d"/>
     <use xlink:href="#mf830c95692" x="541.849233" y="102.586" style="fill: #06525d; stroke: #06525d"/>
    </g>
   </g>
   <g id="line2d_66">
    <path d="M 35.844688 264.315611 
L 565.944687 264.315611 
" clip-path="url(#pdc37c9ecff)" style="fill: none; stroke-dasharray: 4.44,1.92; stroke-dashoffset: 0; stroke: #9aa5ab; stroke-width: 1.2"/>
   </g>
   <g id="patch_3">
    <path d="M 35.844688 316.71475 
L 35.844688 39.51475 
" style="fill: none; stroke: #9aa5ab; stroke-width: 0.8; stroke-linejoin: miter; stroke-linecap: square"/>
   </g>
   <g id="patch_4">
    <path d="M 35.844688 316.71475 
L 565.944688 316.71475 
" style="fill: none; stroke: #9aa5ab; stroke-width: 0.8; stroke-linejoin: miter; stroke-linecap: square"/>
   </g>
   <g id="text_35">
    <!-- parity (no specialization) -->
    <g style="fill: #9aa5ab" transform="translate(63.795415 251.215826) scale(0.09 -0.09)">
     <defs>
      <path id="DejaVuSans-79" d="M 2059 -325 
Q 1816 -950 1584 -1140 
Q 1353 -1331 966 -1331 
L 506 -1331 
L 506 -850 
L 844 -850 
Q 1081 -850 1212 -737 
Q 1344 -625 1503 -206 
L 1606 56 
L 191 3500 
L 800 3500 
L 1894 763 
L 2988 3500 
L 3597 3500 
L 2059 -325 
z
" transform="scale(0.015625)"/>
      <path id="DejaVuSans-73" d="M 2834 3397 
L 2834 2853 
Q 2591 2978 2328 3040 
Q 2066 3103 1784 3103 
Q 1356 3103 1142 2972 
Q 928 2841 928 2578 
Q 928 2378 1081 2264 
Q 1234 2150 1697 2047 
L 1894 2003 
Q 2506 1872 2764 1633 
Q 3022 1394 3022 966 
Q 3022 478 2636 193 
Q 2250 -91 1575 -91 
Q 1294 -91 989 -36 
Q 684 19 347 128 
L 347 722 
Q 666 556 975 473 
Q 1284 391 1588 391 
Q 1994 391 2212 530 
Q 2431 669 2431 922 
Q 2431 1156 2273 1281 
Q 2116 1406 1581 1522 
L 1381 1569 
Q 847 1681 609 1914 
Q 372 2147 372 2553 
Q 372 3047 722 3315 
Q 1072 3584 1716 3584 
Q 2034 3584 2315 3537 
Q 2597 3491 2834 3397 
z
" transform="scale(0.015625)"/>
     </defs>
     <use xlink:href="#DejaVuSans-70"/>
     <use xlink:href="#DejaVuSans-61" transform="translate(63.476562 0)"/>
     <use xlink:href="#DejaVuSans-72" transform="translate(124.755859 0)"/>
     <use xlink:href="#DejaVuSans-69" transform="translate(165.869141 0)"/>
     <use xlink:href="#DejaVuSans-74" transform="translate(193.652344 0)"/>
     <use xlink:href="#DejaVuSans-79" transform="translate(232.861328 0)"/>
     <use xlink:href="#DejaVuSans-20" transform="translate(292.041016 0)"/>
     <use xlink:href="#DejaVuSans-28" transform="translate(323.828125 0)"/>
     <use xlink:href="#DejaVuSans-6e" transform="translate(362.841797 0)"/>
     <use xlink:href="#DejaVuSans-6f" transform="translate(426.220703 0)"/>
     <use xlink:href="#DejaVuSans-20" transform="translate(487.402344 0)"/>
     <use xlink:href="#DejaVuSans-73" transform="translate(519.189453 0)"/>
     <use xlink:href="#DejaVuSans-70" transform="translate(571.289062 0)"/>
     <use xlink:href="#DejaVuSans-65" transform="translate(634.765625 0)"/>
     <use xlink:href="#DejaVuSans-63" transform="translate(696.289062 0)"/>
     <use xlink:href="#DejaVuSans-69" transform="translate(751.269531 0)"/>
     <use xlink:href="#DejaVuSans-61" transform="translate(779.052734 0)"/>
     <use xlink:href="#DejaVuSans-6c" transform="translate(840.332031 0)"/>
     <use xlink:href="#DejaVuSans-69" transform="translate(868.115234 0)"/>
     <use xlink:href="#DejaVuSans-7a" transform="translate(895.898438 0)"/>
     <use xlink:href="#DejaVuSans-61" transform="translate(948.388672 0)"/>
     <use xlink:href="#DejaVuSans-74" transform="translate(1009.667969 0)"/>
     <use xlink:href="#DejaVuSans-69" transform="translate(1048.876953 0)"/>
     <use xlink:href="#DejaVuSans-6f" transform="translate(1076.660156 0)"/>
     <use xlink:href="#DejaVuSans-6e" transform="translate(1137.841797 0)"/>
     <use xlink:href="#DejaVuSans-29" transform="translate(1201.220703 0)"/>
    </g>
   </g>
   <g id="text_36">
    <!-- BC is far over-represented in the topics Hakai funds -->
    <g style="fill: #23414e" transform="translate(95.362656 17.837812) scale(0.14 -0.14)">
     <defs>
      <path id="DejaVuSans-Bold-42" d="M 2456 2859 
Q 2741 2859 2887 2984 
Q 3034 3109 3034 3353 
Q 3034 3594 2887 3720 
Q 2741 3847 2456 3847 
L 1791 3847 
L 1791 2859 
L 2456 2859 
z
M 2497 819 
Q 2859 819 3042 972 
Q 3225 1125 3225 1434 
Q 3225 1738 3044 1889 
Q 2863 2041 2497 2041 
L 1791 2041 
L 1791 819 
L 2497 819 
z
M 3616 2497 
Q 4003 2384 4215 2081 
Q 4428 1778 4428 1338 
Q 4428 663 3972 331 
Q 3516 0 2584 0 
L 588 0 
L 588 4666 
L 2394 4666 
Q 3366 4666 3802 4372 
Q 4238 4078 4238 3431 
Q 4238 3091 4078 2852 
Q 3919 2613 3616 2497 
z
" transform="scale(0.015625)"/>
      <path id="DejaVuSans-Bold-43" d="M 4288 256 
Q 3956 84 3597 -3 
Q 3238 -91 2847 -91 
Q 1681 -91 1000 561 
Q 319 1213 319 2328 
Q 319 3447 1000 4098 
Q 1681 4750 2847 4750 
Q 3238 4750 3597 4662 
Q 3956 4575 4288 4403 
L 4288 3438 
Q 3953 3666 3628 3772 
Q 3303 3878 2944 3878 
Q 2300 3878 1931 3465 
Q 1563 3053 1563 2328 
Q 1563 1606 1931 1193 
Q 2300 781 2944 781 
Q 3303 781 3628 887 
Q 3953 994 4288 1222 
L 4288 256 
z
" transform="scale(0.015625)"/>
      <path id="DejaVuSans-Bold-20" transform="scale(0.015625)"/>
      <path id="DejaVuSans-Bold-69" d="M 538 3500 
L 1656 3500 
L 1656 0 
L 538 0 
L 538 3500 
z
M 538 4863 
L 1656 4863 
L 1656 3950 
L 538 3950 
L 538 4863 
z
" transform="scale(0.015625)"/>
      <path id="DejaVuSans-Bold-73" d="M 3272 3391 
L 3272 2541 
Q 2913 2691 2578 2766 
Q 2244 2841 1947 2841 
Q 1628 2841 1473 2761 
Q 1319 2681 1319 2516 
Q 1319 2381 1436 2309 
Q 1553 2238 1856 2203 
L 2053 2175 
Q 2913 2066 3209 1816 
Q 3506 1566 3506 1031 
Q 3506 472 3093 190 
Q 2681 -91 1863 -91 
Q 1516 -91 1145 -36 
Q 775 19 384 128 
L 384 978 
Q 719 816 1070 734 
Q 1422 653 1784 653 
Q 2113 653 2278 743 
Q 2444 834 2444 1013 
Q 2444 1163 2330 1236 
Q 2216 1309 1875 1350 
L 1678 1375 
Q 931 1469 631 1722 
Q 331 1975 331 2491 
Q 331 3047 712 3315 
Q 1094 3584 1881 3584 
Q 2191 3584 2531 3537 
Q 2872 3491 3272 3391 
z
" transform="scale(0.015625)"/>
      <path id="DejaVuSans-Bold-66" d="M 2841 4863 
L 2841 4128 
L 2222 4128 
Q 1984 4128 1890 4042 
Q 1797 3956 1797 3744 
L 1797 3500 
L 2753 3500 
L 2753 2700 
L 1797 2700 
L 1797 0 
L 678 0 
L 678 2700 
L 122 2700 
L 122 3500 
L 678 3500 
L 678 3744 
Q 678 4316 997 4589 
Q 1316 4863 1984 4863 
L 2841 4863 
z
" transform="scale(0.015625)"/>
      <path id="DejaVuSans-Bold-61" d="M 2106 1575 
Q 1756 1575 1579 1456 
Q 1403 1338 1403 1106 
Q 1403 894 1545 773 
Q 1688 653 1941 653 
Q 2256 653 2472 879 
Q 2688 1106 2688 1447 
L 2688 1575 
L 2106 1575 
z
M 3816 1997 
L 3816 0 
L 2688 0 
L 2688 519 
Q 2463 200 2181 54 
Q 1900 -91 1497 -91 
Q 953 -91 614 226 
Q 275 544 275 1050 
Q 275 1666 698 1953 
Q 1122 2241 2028 2241 
L 2688 2241 
L 2688 2328 
Q 2688 2594 2478 2717 
Q 2269 2841 1825 2841 
Q 1466 2841 1156 2769 
Q 847 2697 581 2553 
L 581 3406 
Q 941 3494 1303 3539 
Q 1666 3584 2028 3584 
Q 2975 3584 3395 3211 
Q 3816 2838 3816 1997 
z
" transform="scale(0.015625)"/>
      <path id="DejaVuSans-Bold-72" d="M 3138 2547 
Q 2991 2616 2845 2648 
Q 2700 2681 2553 2681 
Q 2122 2681 1889 2404 
Q 1656 2128 1656 1613 
L 1656 0 
L 538 0 
L 538 3500 
L 1656 3500 
L 1656 2925 
Q 1872 3269 2151 3426 
Q 2431 3584 2822 3584 
Q 2878 3584 2943 3579 
Q 3009 3575 3134 3559 
L 3138 2547 
z
" transform="scale(0.015625)"/>
      <path id="DejaVuSans-Bold-6f" d="M 2203 2784 
Q 1831 2784 1636 2517 
Q 1441 2250 1441 1747 
Q 1441 1244 1636 976 
Q 1831 709 2203 709 
Q 2569 709 2762 976 
Q 2956 1244 2956 1747 
Q 2956 2250 2762 2517 
Q 2569 2784 2203 2784 
z
M 2203 3584 
Q 3106 3584 3614 3096 
Q 4122 2609 4122 1747 
Q 4122 884 3614 396 
Q 3106 -91 2203 -91 
Q 1297 -91 786 396 
Q 275 884 275 1747 
Q 275 2609 786 3096 
Q 1297 3584 2203 3584 
z
" transform="scale(0.015625)"/>
      <path id="DejaVuSans-Bold-76" d="M 97 3500 
L 1216 3500 
L 2088 1081 
L 2956 3500 
L 4078 3500 
L 2700 0 
L 1472 0 
L 97 3500 
z
" transform="scale(0.015625)"/>
      <path id="DejaVuSans-Bold-65" d="M 4031 1759 
L 4031 1441 
L 1416 1441 
Q 1456 1047 1700 850 
Q 1944 653 2381 653 
Q 2734 653 3104 758 
Q 3475 863 3866 1075 
L 3866 213 
Q 3469 63 3072 -14 
Q 2675 -91 2278 -91 
Q 1328 -91 801 392 
Q 275 875 275 1747 
Q 275 2603 792 3093 
Q 1309 3584 2216 3584 
Q 3041 3584 3536 3087 
Q 4031 2591 4031 1759 
z
M 2881 2131 
Q 2881 2450 2695 2645 
Q 2509 2841 2209 2841 
Q 1884 2841 1681 2658 
Q 1478 2475 1428 2131 
L 2881 2131 
z
" transform="scale(0.015625)"/>
      <path id="DejaVuSans-Bold-2d" d="M 347 2297 
L 2309 2297 
L 2309 1388 
L 347 1388 
L 347 2297 
z
" transform="scale(0.015625)"/>
      <path id="DejaVuSans-Bold-70" d="M 1656 506 
L 1656 -1331 
L 538 -1331 
L 538 3500 
L 1656 3500 
L 1656 2988 
Q 1888 3294 2169 3439 
Q 2450 3584 2816 3584 
Q 3463 3584 3878 3070 
Q 4294 2556 4294 1747 
Q 4294 938 3878 423 
Q 3463 -91 2816 -91 
Q 2450 -91 2169 54 
Q 1888 200 1656 506 
z
M 2400 2772 
Q 2041 2772 1848 2508 
Q 1656 2244 1656 1747 
Q 1656 1250 1848 986 
Q 2041 722 2400 722 
Q 2759 722 2948 984 
Q 3138 1247 3138 1747 
Q 3138 2247 2948 2509 
Q 2759 2772 2400 2772 
z
" transform="scale(0.015625)"/>
      <path id="DejaVuSans-Bold-6e" d="M 4056 2131 
L 4056 0 
L 2931 0 
L 2931 347 
L 2931 1631 
Q 2931 2084 2911 2256 
Q 2891 2428 2841 2509 
Q 2775 2619 2662 2680 
Q 2550 2741 2406 2741 
Q 2056 2741 1856 2470 
Q 1656 2200 1656 1722 
L 1656 0 
L 538 0 
L 538 3500 
L 1656 3500 
L 1656 2988 
Q 1909 3294 2193 3439 
Q 2478 3584 2822 3584 
Q 3428 3584 3742 3212 
Q 4056 2841 4056 2131 
z
" transform="scale(0.015625)"/>
      <path id="DejaVuSans-Bold-74" d="M 1759 4494 
L 1759 3500 
L 2913 3500 
L 2913 2700 
L 1759 2700 
L 1759 1216 
Q 1759 972 1856 886 
Q 1953 800 2241 800 
L 2816 800 
L 2816 0 
L 1856 0 
Q 1194 0 917 276 
Q 641 553 641 1216 
L 641 2700 
L 84 2700 
L 84 3500 
L 641 3500 
L 641 4494 
L 1759 4494 
z
" transform="scale(0.015625)"/>
      <path id="DejaVuSans-Bold-64" d="M 2919 2988 
L 2919 4863 
L 4044 4863 
L 4044 0 
L 2919 0 
L 2919 506 
Q 2688 197 2409 53 
Q 2131 -91 1766 -91 
Q 1119 -91 703 423 
Q 288 938 288 1747 
Q 288 2556 703 3070 
Q 1119 3584 1766 3584 
Q 2128 3584 2408 3439 
Q 2688 3294 2919 2988 
z
M 2181 722 
Q 2541 722 2730 984 
Q 2919 1247 2919 1747 
Q 2919 2247 2730 2509 
Q 2541 2772 2181 2772 
Q 1825 2772 1636 2509 
Q 1447 2247 1447 1747 
Q 1447 1247 1636 984 
Q 1825 722 2181 722 
z
" transform="scale(0.015625)"/>
      <path id="DejaVuSans-Bold-68" d="M 4056 2131 
L 4056 0 
L 2931 0 
L 2931 347 
L 2931 1625 
Q 2931 2084 2911 2256 
Q 2891 2428 2841 2509 
Q 2775 2619 2662 2680 
Q 2550 2741 2406 2741 
Q 2056 2741 1856 2470 
Q 1656 2200 1656 1722 
L 1656 0 
L 538 0 
L 538 4863 
L 1656 4863 
L 1656 2988 
Q 1909 3294 2193 3439 
Q 2478 3584 2822 3584 
Q 3428 3584 3742 3212 
Q 4056 2841 4056 2131 
z
" transform="scale(0.015625)"/>
      <path id="DejaVuSans-Bold-63" d="M 3366 3391 
L 3366 2478 
Q 3138 2634 2908 2709 
Q 2678 2784 2431 2784 
Q 1963 2784 1702 2511 
Q 1441 2238 1441 1747 
Q 1441 1256 1702 982 
Q 1963 709 2431 709 
Q 2694 709 2930 787 
Q 3166 866 3366 1019 
L 3366 103 
Q 3103 6 2833 -42 
Q 2563 -91 2291 -91 
Q 1344 -91 809 395 
Q 275 881 275 1747 
Q 275 2613 809 3098 
Q 1344 3584 2291 3584 
Q 2566 3584 2833 3536 
Q 3100 3488 3366 3391 
z
" transform="scale(0.015625)"/>
      <path id="DejaVuSans-Bold-48" d="M 588 4666 
L 1791 4666 
L 1791 2888 
L 3566 2888 
L 3566 4666 
L 4769 4666 
L 4769 0 
L 3566 0 
L 3566 1978 
L 1791 1978 
L 1791 0 
L 588 0 
L 588 4666 
z
" transform="scale(0.015625)"/>
      <path id="DejaVuSans-Bold-6b" d="M 538 4863 
L 1656 4863 
L 1656 2216 
L 2944 3500 
L 4244 3500 
L 2534 1894 
L 4378 0 
L 3022 0 
L 1656 1459 
L 1656 0 
L 538 0 
L 538 4863 
z
" transform="scale(0.015625)"/>
      <path id="DejaVuSans-Bold-75" d="M 500 1363 
L 500 3500 
L 1625 3500 
L 1625 3150 
Q 1625 2866 1622 2436 
Q 1619 2006 1619 1863 
Q 1619 1441 1641 1255 
Q 1663 1069 1716 984 
Q 1784 875 1895 815 
Q 2006 756 2150 756 
Q 2500 756 2700 1025 
Q 2900 1294 2900 1772 
L 2900 3500 
L 4019 3500 
L 4019 0 
L 2900 0 
L 2900 506 
Q 2647 200 2364 54 
Q 2081 -91 1741 -91 
Q 1134 -91 817 281 
Q 500 653 500 1363 
z
" transform="scale(0.015625)"/>
     </defs>
     <use xlink:href="#DejaVuSans-Bold-42"/>
     <use xlink:href="#DejaVuSans-Bold-43" transform="translate(76.220703 0)"/>
     <use xlink:href="#DejaVuSans-Bold-20" transform="translate(149.609375 0)"/>
     <use xlink:href="#DejaVuSans-Bold-69" transform="translate(184.423828 0)"/>
     <use xlink:href="#DejaVuSans-Bold-73" transform="translate(218.701172 0)"/>
     <use xlink:href="#DejaVuSans-Bold-20" transform="translate(278.222656 0)"/>
     <use xlink:href="#DejaVuSans-Bold-66" transform="translate(313.037109 0)"/>
     <use xlink:href="#DejaVuSans-Bold-61" transform="translate(356.542969 0)"/>
     <use xlink:href="#DejaVuSans-Bold-72" transform="translate(424.023438 0)"/>
     <use xlink:href="#DejaVuSans-Bold-20" transform="translate(473.339844 0)"/>
     <use xlink:href="#DejaVuSans-Bold-6f" transform="translate(508.154297 0)"/>
     <use xlink:href="#DejaVuSans-Bold-76" transform="translate(576.855469 0)"/>
     <use xlink:href="#DejaVuSans-Bold-65" transform="translate(642.041016 0)"/>
     <use xlink:href="#DejaVuSans-Bold-72" transform="translate(709.863281 0)"/>
     <use xlink:href="#DejaVuSans-Bold-2d" transform="translate(759.179688 0)"/>
     <use xlink:href="#DejaVuSans-Bold-72" transform="translate(800.683594 0)"/>
     <use xlink:href="#DejaVuSans-Bold-65" transform="translate(850 0)"/>
     <use xlink:href="#DejaVuSans-Bold-70" transform="translate(917.822266 0)"/>
     <use xlink:href="#DejaVuSans-Bold-72" transform="translate(989.404297 0)"/>
     <use xlink:href="#DejaVuSans-Bold-65" transform="translate(1038.720703 0)"/>
     <use xlink:href="#DejaVuSans-Bold-73" transform="translate(1106.542969 0)"/>
     <use xlink:href="#DejaVuSans-Bold-65" transform="translate(1166.064453 0)"/>
     <use xlink:href="#DejaVuSans-Bold-6e" transform="translate(1233.886719 0)"/>
     <use xlink:href="#DejaVuSans-Bold-74" transform="translate(1305.078125 0)"/>
     <use xlink:href="#DejaVuSans-Bold-65" transform="translate(1352.880859 0)"/>
     <use xlink:href="#DejaVuSans-Bold-64" transform="translate(1420.703125 0)"/>
     <use xlink:href="#DejaVuSans-Bold-20" transform="translate(1492.285156 0)"/>
     <use xlink:href="#DejaVuSans-Bold-69" transform="translate(1527.099609 0)"/>
     <use xlink:href="#DejaVuSans-Bold-6e" transform="translate(1561.376953 0)"/>
     <use xlink:href="#DejaVuSans-Bold-20" transform="translate(1632.568359 0)"/>
     <use xlink:href="#DejaVuSans-Bold-74" transform="translate(1667.382812 0)"/>
     <use xlink:href="#DejaVuSans-Bold-68" transform="translate(1715.185547 0)"/>
     <use xlink:href="#DejaVuSans-Bold-65" transform="translate(1786.376953 0)"/>
     <use xlink:href="#DejaVuSans-Bold-20" transform="translate(1854.199219 0)"/>
     <use xlink:href="#DejaVuSans-Bold-74" transform="translate(1889.013672 0)"/>
     <use xlink:href="#DejaVuSans-Bold-6f" transform="translate(1936.816406 0)"/>
     <use xlink:href="#DejaVuSans-Bold-70" transform="translate(2005.517578 0)"/>
     <use xlink:href="#DejaVuSans-Bold-69" transform="translate(2077.099609 0)"/>
     <use xlink:href="#DejaVuSans-Bold-63" transform="translate(2111.376953 0)"/>
     <use xlink:href="#DejaVuSans-Bold-73" transform="translate(2170.654297 0)"/>
     <use xlink:href="#DejaVuSans-Bold-20" transform="translate(2230.175781 0)"/>
     <use xlink:href="#DejaVuSans-Bold-48" transform="translate(2264.990234 0)"/>
     <use xlink:href="#DejaVuSans-Bold-61" transform="translate(2348.681641 0)"/>
     <use xlink:href="#DejaVuSans-Bold-6b" transform="translate(2416.162109 0)"/>
     <use xlink:href="#DejaVuSans-Bold-61" transform="translate(2482.666016 0)"/>
     <use xlink:href="#DejaVuSans-Bold-69" transform="translate(2550.146484 0)"/>
     <use xlink:href="#DejaVuSans-Bold-20" transform="translate(2584.423828 0)"/>
     <use xlink:href="#DejaVuSans-Bold-66" transform="translate(2619.238281 0)"/>
     <use xlink:href="#DejaVuSans-Bold-75" transform="translate(2662.744141 0)"/>
     <use xlink:href="#DejaVuSans-Bold-6e" transform="translate(2733.935547 0)"/>
     <use xlink:href="#DejaVuSans-Bold-64" transform="translate(2805.126953 0)"/>
     <use xlink:href="#DejaVuSans-Bold-73" transform="translate(2876.708984 0)"/>
    </g>
    <!-- (BC's share of world output in Hakai topics ÷ BC's share of all science) -->
    <g style="fill: #23414e" transform="translate(22.425938 33.51475) scale(0.14 -0.14)">
     <defs>
      <path id="DejaVuSans-Bold-28" d="M 2413 -844 
L 1484 -844 
Q 1006 -72 778 623 
Q 550 1319 550 2003 
Q 550 2688 779 3389 
Q 1009 4091 1484 4856 
L 2413 4856 
Q 2013 4116 1813 3408 
Q 1613 2700 1613 2009 
Q 1613 1319 1811 609 
Q 2009 -100 2413 -844 
z
" transform="scale(0.015625)"/>
      <path id="DejaVuSans-Bold-27" d="M 1350 4666 
L 1350 2931 
L 609 2931 
L 609 4666 
L 1350 4666 
z
" transform="scale(0.015625)"/>
      <path id="DejaVuSans-Bold-77" d="M 225 3500 
L 1313 3500 
L 1900 1088 
L 2491 3500 
L 3425 3500 
L 4013 1113 
L 4603 3500 
L 5691 3500 
L 4769 0 
L 3547 0 
L 2956 2406 
L 2369 0 
L 1147 0 
L 225 3500 
z
" transform="scale(0.015625)"/>
      <path id="DejaVuSans-Bold-6c" d="M 538 4863 
L 1656 4863 
L 1656 0 
L 538 0 
L 538 4863 
z
" transform="scale(0.015625)"/>
      <path id="DejaVuSans-Bold-f7" d="M 2203 1234 
L 3163 1234 
L 3163 269 
L 2203 269 
L 2203 1234 
z
M 2203 3744 
L 3163 3744 
L 3163 2778 
L 2203 2778 
L 2203 3744 
z
M 678 2375 
L 4684 2375 
L 4684 1638 
L 678 1638 
L 678 2375 
z
" transform="scale(0.015625)"/>
      <path id="DejaVuSans-Bold-29" d="M 513 -844 
Q 913 -100 1113 609 
Q 1313 1319 1313 2009 
Q 1313 2700 1113 3408 
Q 913 4116 513 4856 
L 1441 4856 
Q 1916 4091 2145 3389 
Q 2375 2688 2375 2003 
Q 2375 1319 2147 623 
Q 1919 -72 1441 -844 
L 513 -844 
z
" transform="scale(0.015625)"/>
     </defs>
     <use xlink:href="#DejaVuSans-Bold-28"/>
     <use xlink:href="#DejaVuSans-Bold-42" transform="translate(45.703125 0)"/>
     <use xlink:href="#DejaVuSans-Bold-43" transform="translate(121.923828 0)"/>
     <use xlink:href="#DejaVuSans-Bold-27" transform="translate(195.3125 0)"/>
     <use xlink:href="#DejaVuSans-Bold-73" transform="translate(225.927734 0)"/>
     <use xlink:href="#DejaVuSans-Bold-20" transform="translate(285.449219 0)"/>
     <use xlink:href="#DejaVuSans-Bold-73" transform="translate(320.263672 0)"/>
     <use xlink:href="#DejaVuSans-Bold-68" transform="translate(379.785156 0)"/>
     <use xlink:href="#DejaVuSans-Bold-61" transform="translate(450.976562 0)"/>
     <use xlink:href="#DejaVuSans-Bold-72" transform="translate(518.457031 0)"/>
     <use xlink:href="#DejaVuSans-Bold-65" transform="translate(567.773438 0)"/>
     <use xlink:href="#DejaVuSans-Bold-20" transform="translate(635.595703 0)"/>
     <use xlink:href="#DejaVuSans-Bold-6f" transform="translate(670.410156 0)"/>
     <use xlink:href="#DejaVuSans-Bold-66" transform="translate(739.111328 0)"/>
     <use xlink:href="#DejaVuSans-Bold-20" transform="translate(782.617188 0)"/>
     <use xlink:href="#DejaVuSans-Bold-77" transform="translate(817.431641 0)"/>
     <use xlink:href="#DejaVuSans-Bold-6f" transform="translate(909.814453 0)"/>
     <use xlink:href="#DejaVuSans-Bold-72" transform="translate(978.515625 0)"/>
     <use xlink:href="#DejaVuSans-Bold-6c" transform="translate(1027.832031 0)"/>
     <use xlink:href="#DejaVuSans-Bold-64" transform="translate(1062.109375 0)"/>
     <use xlink:href="#DejaVuSans-Bold-20" transform="translate(1133.691406 0)"/>
     <use xlink:href="#DejaVuSans-Bold-6f" transform="translate(1168.505859 0)"/>
     <use xlink:href="#DejaVuSans-Bold-75" transform="translate(1237.207031 0)"/>
     <use xlink:href="#DejaVuSans-Bold-74" transform="translate(1308.398438 0)"/>
     <use xlink:href="#DejaVuSans-Bold-70" transform="translate(1356.201172 0)"/>
     <use xlink:href="#DejaVuSans-Bold-75" transform="translate(1427.783203 0)"/>
     <use xlink:href="#DejaVuSans-Bold-74" transform="translate(1498.974609 0)"/>
     <use xlink:href="#DejaVuSans-Bold-20" transform="translate(1546.777344 0)"/>
     <use xlink:href="#DejaVuSans-Bold-69" transform="translate(1581.591797 0)"/>
     <use xlink:href="#DejaVuSans-Bold-6e" transform="translate(1615.869141 0)"/>
     <use xlink:href="#DejaVuSans-Bold-20" transform="translate(1687.060547 0)"/>
     <use xlink:href="#DejaVuSans-Bold-48" transform="translate(1721.875 0)"/>
     <use xlink:href="#DejaVuSans-Bold-61" transform="translate(1805.566406 0)"/>
     <use xlink:href="#DejaVuSans-Bold-6b" transform="translate(1873.046875 0)"/>
     <use xlink:href="#DejaVuSans-Bold-61" transform="translate(1939.550781 0)"/>
     <use xlink:href="#DejaVuSans-Bold-69" transform="translate(2007.03125 0)"/>
     <use xlink:href="#DejaVuSans-Bold-20" transform="translate(2041.308594 0)"/>
     <use xlink:href="#DejaVuSans-Bold-74" transform="translate(2076.123047 0)"/>
     <use xlink:href="#DejaVuSans-Bold-6f" transform="translate(2123.925781 0)"/>
     <use xlink:href="#DejaVuSans-Bold-70" transform="translate(2192.626953 0)"/>
     <use xlink:href="#DejaVuSans-Bold-69" transform="translate(2264.208984 0)"/>
     <use xlink:href="#DejaVuSans-Bold-63" transform="translate(2298.486328 0)"/>
     <use xlink:href="#DejaVuSans-Bold-73" transform="translate(2357.763672 0)"/>
     <use xlink:href="#DejaVuSans-Bold-20" transform="translate(2417.285156 0)"/>
     <use xlink:href="#DejaVuSans-Bold-f7" transform="translate(2452.099609 0)"/>
     <use xlink:href="#DejaVuSans-Bold-20" transform="translate(2535.888672 0)"/>
     <use xlink:href="#DejaVuSans-Bold-42" transform="translate(2570.703125 0)"/>
     <use xlink:href="#DejaVuSans-Bold-43" transform="translate(2646.923828 0)"/>
     <use xlink:href="#DejaVuSans-Bold-27" transform="translate(2720.3125 0)"/>
     <use xlink:href="#DejaVuSans-Bold-73" transform="translate(2750.927734 0)"/>
     <use xlink:href="#DejaVuSans-Bold-20" transform="translate(2810.449219 0)"/>
     <use xlink:href="#DejaVuSans-Bold-73" transform="translate(2845.263672 0)"/>
     <use xlink:href="#DejaVuSans-Bold-68" transform="translate(2904.785156 0)"/>
     <use xlink:href="#DejaVuSans-Bold-61" transform="translate(2975.976562 0)"/>
     <use xlink:href="#DejaVuSans-Bold-72" transform="translate(3043.457031 0)"/>
     <use xlink:href="#DejaVuSans-Bold-65" transform="translate(3092.773438 0)"/>
     <use xlink:href="#DejaVuSans-Bold-20" transform="translate(3160.595703 0)"/>
     <use xlink:href="#DejaVuSans-Bold-6f" transform="translate(3195.410156 0)"/>
     <use xlink:href="#DejaVuSans-Bold-66" transform="translate(3264.111328 0)"/>
     <use xlink:href="#DejaVuSans-Bold-20" transform="translate(3307.617188 0)"/>
     <use xlink:href="#DejaVuSans-Bold-61" transform="translate(3342.431641 0)"/>
     <use xlink:href="#DejaVuSans-Bold-6c" transform="translate(3409.912109 0)"/>
     <use xlink:href="#DejaVuSans-Bold-6c" transform="translate(3444.189453 0)"/>
     <use xlink:href="#DejaVuSans-Bold-20" transform="translate(3478.466797 0)"/>
     <use xlink:href="#DejaVuSans-Bold-73" transform="translate(3513.28125 0)"/>
     <use xlink:href="#DejaVuSans-Bold-63" transform="translate(3572.802734 0)"/>
     <use xlink:href="#DejaVuSans-Bold-69" transform="translate(3632.080078 0)"/>
     <use xlink:href="#DejaVuSans-Bold-65" transform="translate(3666.357422 0)"/>
     <use xlink:href="#DejaVuSans-Bold-6e" transform="translate(3734.179688 0)"/>
     <use xlink:href="#DejaVuSans-Bold-63" transform="translate(3805.371094 0)"/>
     <use xlink:href="#DejaVuSans-Bold-65" transform="translate(3864.648438 0)"/>
     <use xlink:href="#DejaVuSans-Bold-29" transform="translate(3932.470703 0)"/>
    </g>
   </g>
  </g>
 </g>
 <defs>
  <clipPath id="pdc37c9ecff">
   <rect x="35.844688" y="39.51475" width="530.1" height="277.2"/>
  </clipPath>
 </defs>
</svg>
