<?xml version="1.0" encoding="utf-8" standalone="no"?>
<!DOCTYPE svg PUBLIC "-//W3C//DTD SVG 1.1//EN"
  "http://www.w3.org/Graphics/SVG/1.1/DTD/svg11.dtd">
<svg xmlns:xlink="http://www.w3.org/1999/xlink" width="603.486056pt" height="335.957812pt" viewBox="0 0 603.486056 335.957812" xmlns="http://www.w3.org/2000/svg" version="1.1">
 <metadata>
  <rdf:RDF xmlns:dc="http://purl.org/dc/elements/1.1/" xmlns:cc="http://creativecommons.org/ns#" xmlns:rdf="http://www.w3.org/1999/02/22-rdf-syntax-ns#">
   <cc:Work>
    <dc:type rdf:resource="http://purl.org/dc/dcmitype/StillImage"/>
    <dc:date>2026-06-13T15:07:06.145373</dc:date>
    <dc:format>image/svg+xml</dc:format>
    <dc:creator>
     <cc:Agent>
      <dc:title>Matplotlib v3.10.6, https://matplotlib.org/</dc:title>
     </cc:Agent>
    </dc:creator>
   </cc:Work>
  </rdf:RDF>
 </metadata>
 <defs>
  <style type="text/css">*{stroke-linejoin: round; stroke-linecap: butt}</style>
 </defs>
 <g id="figure_1">
  <g id="patch_1">
   <path d="M 0 335.957812 
L 603.486056 335.957812 
L 603.486056 0 
L 0 0 
z
" style="fill: #ffffff"/>
  </g>
  <g id="axes_1">
   <g id="matplotlib.axis_1"/>
   <g id="matplotlib.axis_2"/>
   <g id="patch_2">
    <path d="M 217.960168 283.429898 
C 241.770487 270.472566 260.594887 249.939946 271.440499 225.096507 
C 282.286111 200.253064 284.545991 172.489068 277.860846 146.21869 
C 271.175702 119.948311 255.91964 96.641673 234.518207 80.004288 
C 213.116773 63.366902 186.76763 54.329812 159.659995 54.329812 
L 159.659997 105.556372 
C 175.382425 105.556372 190.664928 110.797884 203.07776 120.447568 
C 215.490591 130.097252 224.339107 143.615102 228.216491 158.851921 
C 232.093875 174.088741 230.783145 190.191858 224.492689 204.601055 
C 218.202234 219.01025 207.284083 230.91917 193.474097 238.434422 
z
" style="fill: #0c7c8c; stroke: #ffffff; stroke-width: 1.5; stroke-linejoin: miter"/>
   </g>
   <g id="patch_3">
    <path d="M 91.976432 277.762716 
C 110.464804 290.095639 131.977134 297.143884 154.179015 298.142596 
C 176.380896 299.141307 198.439153 294.053031 217.960168 283.429898 
L 193.474097 238.434422 
C 182.151908 244.595839 169.35812 247.547039 156.481029 246.967787 
C 143.603937 246.388534 131.126786 242.300552 120.403531 235.147456 
z
" style="fill: #e8743b; stroke: #ffffff; stroke-width: 1.5; stroke-linejoin: miter"/>
   </g>
   <g id="patch_4">
    <path d="M 37.985855 167.836439 
C 36.493869 189.291104 40.70271 210.763496 50.183821 230.067306 
C 59.664932 249.371116 74.085236 265.828151 91.976432 277.762716 
L 120.403531 235.147456 
C 110.026637 228.225409 101.66286 218.680329 96.163816 207.484119 
C 90.664772 196.287909 88.223644 183.833922 89.088996 171.390216 
z
" style="fill: #f2b134; stroke: #ffffff; stroke-width: 1.5; stroke-linejoin: miter"/>
   </g>
   <g id="patch_5">
    <path d="M 57.73799 109.304554 
C 52.012765 118.01478 47.427636 127.423104 44.094834 137.29927 
C 40.762033 147.175436 38.708959 157.438202 37.985855 167.836439 
L 89.088996 171.390216 
C 89.508396 165.359238 90.699179 159.406834 92.632204 153.678658 
C 94.565229 147.950482 97.224604 142.493653 100.545234 137.441723 
z
" style="fill: #5a9e6f; stroke: #ffffff; stroke-width: 1.5; stroke-linejoin: miter"/>
   </g>
   <g id="patch_6">
    <path d="M 70.720643 92.835342 
C 68.325581 95.387572 66.041492 98.04171 63.874711 100.790393 
C 61.707929 103.539076 59.660453 106.379766 57.73799 109.304554 
L 100.545234 137.441723 
C 101.660263 135.745346 102.847799 134.097745 104.104532 132.503509 
C 105.361266 130.909273 106.686037 129.369873 108.075173 127.88958 
z
" style="fill: #8c6bb1; stroke: #ffffff; stroke-width: 1.5; stroke-linejoin: miter"/>
   </g>
   <g id="patch_7">
    <path d="M 84.78279 80.019067 
C 82.276768 81.968029 79.847813 84.014088 77.501444 86.152575 
C 75.155075 88.291062 72.893073 90.520357 70.720643 92.835342 
L 108.075173 127.88958 
C 109.335182 126.546888 110.647144 125.253897 112.008038 124.013575 
C 113.368932 122.773252 114.777725 121.586538 116.231218 120.45614 
z
" style="fill: #c0504d; stroke: #ffffff; stroke-width: 1.5; stroke-linejoin: miter"/>
   </g>
   <g id="patch_8">
    <path d="M 99.695278 70.088468 
C 97.092377 71.558041 94.544379 73.122799 92.056444 74.779578 
C 89.568509 76.436357 87.142317 78.184031 84.78279 80.019067 
L 116.231218 120.45614 
C 117.599744 119.391819 119.006935 118.378168 120.449938 117.417236 
C 121.89294 116.456304 123.370779 115.548745 124.880461 114.696393 
z
" style="fill: #9aa5ab; stroke: #ffffff; stroke-width: 1.5; stroke-linejoin: miter"/>
   </g>
   <g id="patch_9">
    <path d="M 107.689066 65.956455 
C 106.331925 66.595672 104.986663 67.259882 103.654025 67.948731 
C 102.321387 68.637579 101.001599 69.350934 99.695278 70.088468 
L 124.880461 114.696393 
C 125.638127 114.268623 126.403605 113.854877 127.176535 113.455345 
C 127.949465 113.055813 128.729717 112.670571 129.516858 112.299825 
z
" style="fill: #23414e; stroke: #ffffff; stroke-width: 1.5; stroke-linejoin: miter"/>
   </g>
   <g id="patch_10">
    <path d="M 159.659943 54.329812 
C 150.70294 54.32982 141.773096 55.316492 133.032156 57.271968 
C 124.291215 59.227444 115.79224 62.139851 107.689066 65.956455 
L 129.516858 112.299825 
C 134.216699 110.086195 139.146105 108.396999 144.21585 107.262823 
C 149.285596 106.128647 154.464905 105.556377 159.659967 105.556372 
z
" style="fill: #9aa5ab; stroke: #ffffff; stroke-width: 1.5; stroke-linejoin: miter"/>
   </g>
   <g id="text_1">
    <!-- Fields that cite Hakai/Tula research -->
    <g style="fill: #23414e" transform="translate(19.912656 17.837812) scale(0.14 -0.14)">
     <defs>
      <path id="DejaVuSans-Bold-46" d="M 588 4666 
L 3834 4666 
L 3834 3756 
L 1791 3756 
L 1791 2888 
L 3713 2888 
L 3713 1978 
L 1791 1978 
L 1791 0 
L 588 0 
L 588 4666 
z
" transform="scale(0.015625)"/>
      <path id="DejaVuSans-Bold-69" d="M 538 3500 
L 1656 3500 
L 1656 0 
L 538 0 
L 538 3500 
z
M 538 4863 
L 1656 4863 
L 1656 3950 
L 538 3950 
L 538 4863 
z
" transform="scale(0.015625)"/>
      <path id="DejaVuSans-Bold-65" d="M 4031 1759 
L 4031 1441 
L 1416 1441 
Q 1456 1047 1700 850 
Q 1944 653 2381 653 
Q 2734 653 3104 758 
Q 3475 863 3866 1075 
L 3866 213 
Q 3469 63 3072 -14 
Q 2675 -91 2278 -91 
Q 1328 -91 801 392 
Q 275 875 275 1747 
Q 275 2603 792 3093 
Q 1309 3584 2216 3584 
Q 3041 3584 3536 3087 
Q 4031 2591 4031 1759 
z
M 2881 2131 
Q 2881 2450 2695 2645 
Q 2509 2841 2209 2841 
Q 1884 2841 1681 2658 
Q 1478 2475 1428 2131 
L 2881 2131 
z
" transform="scale(0.015625)"/>
      <path id="DejaVuSans-Bold-6c" d="M 538 4863 
L 1656 4863 
L 1656 0 
L 538 0 
L 538 4863 
z
" transform="scale(0.015625)"/>
      <path id="DejaVuSans-Bold-64" d="M 2919 2988 
L 2919 4863 
L 4044 4863 
L 4044 0 
L 2919 0 
L 2919 506 
Q 2688 197 2409 53 
Q 2131 -91 1766 -91 
Q 1119 -91 703 423 
Q 288 938 288 1747 
Q 288 2556 703 3070 
Q 1119 3584 1766 3584 
Q 2128 3584 2408 3439 
Q 2688 3294 2919 2988 
z
M 2181 722 
Q 2541 722 2730 984 
Q 2919 1247 2919 1747 
Q 2919 2247 2730 2509 
Q 2541 2772 2181 2772 
Q 1825 2772 1636 2509 
Q 1447 2247 1447 1747 
Q 1447 1247 1636 984 
Q 1825 722 2181 722 
z
" transform="scale(0.015625)"/>
      <path id="DejaVuSans-Bold-73" d="M 3272 3391 
L 3272 2541 
Q 2913 2691 2578 2766 
Q 2244 2841 1947 2841 
Q 1628 2841 1473 2761 
Q 1319 2681 1319 2516 
Q 1319 2381 1436 2309 
Q 1553 2238 1856 2203 
L 2053 2175 
Q 2913 2066 3209 1816 
Q 3506 1566 3506 1031 
Q 3506 472 3093 190 
Q 2681 -91 1863 -91 
Q 1516 -91 1145 -36 
Q 775 19 384 128 
L 384 978 
Q 719 816 1070 734 
Q 1422 653 1784 653 
Q 2113 653 2278 743 
Q 2444 834 2444 1013 
Q 2444 1163 2330 1236 
Q 2216 1309 1875 1350 
L 1678 1375 
Q 931 1469 631 1722 
Q 331 1975 331 2491 
Q 331 3047 712 3315 
Q 1094 3584 1881 3584 
Q 2191 3584 2531 3537 
Q 2872 3491 3272 3391 
z
" transform="scale(0.015625)"/>
      <path id="DejaVuSans-Bold-20" transform="scale(0.015625)"/>
      <path id="DejaVuSans-Bold-74" d="M 1759 4494 
L 1759 3500 
L 2913 3500 
L 2913 2700 
L 1759 2700 
L 1759 1216 
Q 1759 972 1856 886 
Q 1953 800 2241 800 
L 2816 800 
L 2816 0 
L 1856 0 
Q 1194 0 917 276 
Q 641 553 641 1216 
L 641 2700 
L 84 2700 
L 84 3500 
L 641 3500 
L 641 4494 
L 1759 4494 
z
" transform="scale(0.015625)"/>
      <path id="DejaVuSans-Bold-68" d="M 4056 2131 
L 4056 0 
L 2931 0 
L 2931 347 
L 2931 1625 
Q 2931 2084 2911 2256 
Q 2891 2428 2841 2509 
Q 2775 2619 2662 2680 
Q 2550 2741 2406 2741 
Q 2056 2741 1856 2470 
Q 1656 2200 1656 1722 
L 1656 0 
L 538 0 
L 538 4863 
L 1656 4863 
L 1656 2988 
Q 1909 3294 2193 3439 
Q 2478 3584 2822 3584 
Q 3428 3584 3742 3212 
Q 4056 2841 4056 2131 
z
" transform="scale(0.015625)"/>
      <path id="DejaVuSans-Bold-61" d="M 2106 1575 
Q 1756 1575 1579 1456 
Q 1403 1338 1403 1106 
Q 1403 894 1545 773 
Q 1688 653 1941 653 
Q 2256 653 2472 879 
Q 2688 1106 2688 1447 
L 2688 1575 
L 2106 1575 
z
M 3816 1997 
L 3816 0 
L 2688 0 
L 2688 519 
Q 2463 200 2181 54 
Q 1900 -91 1497 -91 
Q 953 -91 614 226 
Q 275 544 275 1050 
Q 275 1666 698 1953 
Q 1122 2241 2028 2241 
L 2688 2241 
L 2688 2328 
Q 2688 2594 2478 2717 
Q 2269 2841 1825 2841 
Q 1466 2841 1156 2769 
Q 847 2697 581 2553 
L 581 3406 
Q 941 3494 1303 3539 
Q 1666 3584 2028 3584 
Q 2975 3584 3395 3211 
Q 3816 2838 3816 1997 
z
" transform="scale(0.015625)"/>
      <path id="DejaVuSans-Bold-63" d="M 3366 3391 
L 3366 2478 
Q 3138 2634 2908 2709 
Q 2678 2784 2431 2784 
Q 1963 2784 1702 2511 
Q 1441 2238 1441 1747 
Q 1441 1256 1702 982 
Q 1963 709 2431 709 
Q 2694 709 2930 787 
Q 3166 866 3366 1019 
L 3366 103 
Q 3103 6 2833 -42 
Q 2563 -91 2291 -91 
Q 1344 -91 809 395 
Q 275 881 275 1747 
Q 275 2613 809 3098 
Q 1344 3584 2291 3584 
Q 2566 3584 2833 3536 
Q 3100 3488 3366 3391 
z
" transform="scale(0.015625)"/>
      <path id="DejaVuSans-Bold-48" d="M 588 4666 
L 1791 4666 
L 1791 2888 
L 3566 2888 
L 3566 4666 
L 4769 4666 
L 4769 0 
L 3566 0 
L 3566 1978 
L 1791 1978 
L 1791 0 
L 588 0 
L 588 4666 
z
" transform="scale(0.015625)"/>
      <path id="DejaVuSans-Bold-6b" d="M 538 4863 
L 1656 4863 
L 1656 2216 
L 2944 3500 
L 4244 3500 
L 2534 1894 
L 4378 0 
L 3022 0 
L 1656 1459 
L 1656 0 
L 538 0 
L 538 4863 
z
" transform="scale(0.015625)"/>
      <path id="DejaVuSans-Bold-2f" d="M 1644 4666 
L 2338 4666 
L 691 -594 
L 0 -594 
L 1644 4666 
z
" transform="scale(0.015625)"/>
      <path id="DejaVuSans-Bold-54" d="M 31 4666 
L 4331 4666 
L 4331 3756 
L 2784 3756 
L 2784 0 
L 1581 0 
L 1581 3756 
L 31 3756 
L 31 4666 
z
" transform="scale(0.015625)"/>
      <path id="DejaVuSans-Bold-75" d="M 500 1363 
L 500 3500 
L 1625 3500 
L 1625 3150 
Q 1625 2866 1622 2436 
Q 1619 2006 1619 1863 
Q 1619 1441 1641 1255 
Q 1663 1069 1716 984 
Q 1784 875 1895 815 
Q 2006 756 2150 756 
Q 2500 756 2700 1025 
Q 2900 1294 2900 1772 
L 2900 3500 
L 4019 3500 
L 4019 0 
L 2900 0 
L 2900 506 
Q 2647 200 2364 54 
Q 2081 -91 1741 -91 
Q 1134 -91 817 281 
Q 500 653 500 1363 
z
" transform="scale(0.015625)"/>
      <path id="DejaVuSans-Bold-72" d="M 3138 2547 
Q 2991 2616 2845 2648 
Q 2700 2681 2553 2681 
Q 2122 2681 1889 2404 
Q 1656 2128 1656 1613 
L 1656 0 
L 538 0 
L 538 3500 
L 1656 3500 
L 1656 2925 
Q 1872 3269 2151 3426 
Q 2431 3584 2822 3584 
Q 2878 3584 2943 3579 
Q 3009 3575 3134 3559 
L 3138 2547 
z
" transform="scale(0.015625)"/>
     </defs>
     <use xlink:href="#DejaVuSans-Bold-46"/>
     <use xlink:href="#DejaVuSans-Bold-69" transform="translate(68.310547 0)"/>
     <use xlink:href="#DejaVuSans-Bold-65" transform="translate(102.587891 0)"/>
     <use xlink:href="#DejaVuSans-Bold-6c" transform="translate(170.410156 0)"/>
     <use xlink:href="#DejaVuSans-Bold-64" transform="translate(204.6875 0)"/>
     <use xlink:href="#DejaVuSans-Bold-73" transform="translate(276.269531 0)"/>
     <use xlink:href="#DejaVuSans-Bold-20" transform="translate(335.791016 0)"/>
     <use xlink:href="#DejaVuSans-Bold-74" transform="translate(370.605469 0)"/>
     <use xlink:href="#DejaVuSans-Bold-68" transform="translate(418.408203 0)"/>
     <use xlink:href="#DejaVuSans-Bold-61" transform="translate(489.599609 0)"/>
     <use xlink:href="#DejaVuSans-Bold-74" transform="translate(557.080078 0)"/>
     <use xlink:href="#DejaVuSans-Bold-20" transform="translate(604.882812 0)"/>
     <use xlink:href="#DejaVuSans-Bold-63" transform="translate(639.697266 0)"/>
     <use xlink:href="#DejaVuSans-Bold-69" transform="translate(698.974609 0)"/>
     <use xlink:href="#DejaVuSans-Bold-74" transform="translate(733.251953 0)"/>
     <use xlink:href="#DejaVuSans-Bold-65" transform="translate(781.054688 0)"/>
     <use xlink:href="#DejaVuSans-Bold-20" transform="translate(848.876953 0)"/>
     <use xlink:href="#DejaVuSans-Bold-48" transform="translate(883.691406 0)"/>
     <use xlink:href="#DejaVuSans-Bold-61" transform="translate(967.382812 0)"/>
     <use xlink:href="#DejaVuSans-Bold-6b" transform="translate(1034.863281 0)"/>
     <use xlink:href="#DejaVuSans-Bold-61" transform="translate(1101.367188 0)"/>
     <use xlink:href="#DejaVuSans-Bold-69" transform="translate(1168.847656 0)"/>
     <use xlink:href="#DejaVuSans-Bold-2f" transform="translate(1203.125 0)"/>
     <use xlink:href="#DejaVuSans-Bold-54" transform="translate(1239.648438 0)"/>
     <use xlink:href="#DejaVuSans-Bold-75" transform="translate(1296.861328 0)"/>
     <use xlink:href="#DejaVuSans-Bold-6c" transform="translate(1368.052734 0)"/>
     <use xlink:href="#DejaVuSans-Bold-61" transform="translate(1402.330078 0)"/>
     <use xlink:href="#DejaVuSans-Bold-20" transform="translate(1469.810547 0)"/>
     <use xlink:href="#DejaVuSans-Bold-72" transform="translate(1504.625 0)"/>
     <use xlink:href="#DejaVuSans-Bold-65" transform="translate(1553.941406 0)"/>
     <use xlink:href="#DejaVuSans-Bold-73" transform="translate(1621.763672 0)"/>
     <use xlink:href="#DejaVuSans-Bold-65" transform="translate(1681.285156 0)"/>
     <use xlink:href="#DejaVuSans-Bold-61" transform="translate(1749.107422 0)"/>
     <use xlink:href="#DejaVuSans-Bold-72" transform="translate(1816.587891 0)"/>
     <use xlink:href="#DejaVuSans-Bold-63" transform="translate(1865.904297 0)"/>
     <use xlink:href="#DejaVuSans-Bold-68" transform="translate(1925.181641 0)"/>
    </g>
   </g>
   <g id="legend_1">
    <g id="patch_11">
     <path d="M 326.3184 125.94 
L 344.3184 125.94 
L 344.3184 119.64 
L 326.3184 119.64 
z
" style="fill: #0c7c8c; stroke: #ffffff; stroke-width: 1.5; stroke-linejoin: miter"/>
    </g>
    <g id="text_2">
     <!-- Environmental Science — 42% -->
     <g style="fill: #23414e" transform="translate(351.5184 125.94) scale(0.09 -0.09)">
      <defs>
       <path id="DejaVuSans-45" d="M 628 4666 
L 3578 4666 
L 3578 4134 
L 1259 4134 
L 1259 2753 
L 3481 2753 
L 3481 2222 
L 1259 2222 
L 1259 531 
L 3634 531 
L 3634 0 
L 628 0 
L 628 4666 
z
" transform="scale(0.015625)"/>
       <path id="DejaVuSans-6e" d="M 3513 2113 
L 3513 0 
L 2938 0 
L 2938 2094 
Q 2938 2591 2744 2837 
Q 2550 3084 2163 3084 
Q 1697 3084 1428 2787 
Q 1159 2491 1159 1978 
L 1159 0 
L 581 0 
L 581 3500 
L 1159 3500 
L 1159 2956 
Q 1366 3272 1645 3428 
Q 1925 3584 2291 3584 
Q 2894 3584 3203 3211 
Q 3513 2838 3513 2113 
z
" transform="scale(0.015625)"/>
       <path id="DejaVuSans-76" d="M 191 3500 
L 800 3500 
L 1894 563 
L 2988 3500 
L 3597 3500 
L 2284 0 
L 1503 0 
L 191 3500 
z
" transform="scale(0.015625)"/>
       <path id="DejaVuSans-69" d="M 603 3500 
L 1178 3500 
L 1178 0 
L 603 0 
L 603 3500 
z
M 603 4863 
L 1178 4863 
L 1178 4134 
L 603 4134 
L 603 4863 
z
" transform="scale(0.015625)"/>
       <path id="DejaVuSans-72" d="M 2631 2963 
Q 2534 3019 2420 3045 
Q 2306 3072 2169 3072 
Q 1681 3072 1420 2755 
Q 1159 2438 1159 1844 
L 1159 0 
L 581 0 
L 581 3500 
L 1159 3500 
L 1159 2956 
Q 1341 3275 1631 3429 
Q 1922 3584 2338 3584 
Q 2397 3584 2469 3576 
Q 2541 3569 2628 3553 
L 2631 2963 
z
" transform="scale(0.015625)"/>
       <path id="DejaVuSans-6f" d="M 1959 3097 
Q 1497 3097 1228 2736 
Q 959 2375 959 1747 
Q 959 1119 1226 758 
Q 1494 397 1959 397 
Q 2419 397 2687 759 
Q 2956 1122 2956 1747 
Q 2956 2369 2687 2733 
Q 2419 3097 1959 3097 
z
M 1959 3584 
Q 2709 3584 3137 3096 
Q 3566 2609 3566 1747 
Q 3566 888 3137 398 
Q 2709 -91 1959 -91 
Q 1206 -91 779 398 
Q 353 888 353 1747 
Q 353 2609 779 3096 
Q 1206 3584 1959 3584 
z
" transform="scale(0.015625)"/>
       <path id="DejaVuSans-6d" d="M 3328 2828 
Q 3544 3216 3844 3400 
Q 4144 3584 4550 3584 
Q 5097 3584 5394 3201 
Q 5691 2819 5691 2113 
L 5691 0 
L 5113 0 
L 5113 2094 
Q 5113 2597 4934 2840 
Q 4756 3084 4391 3084 
Q 3944 3084 3684 2787 
Q 3425 2491 3425 1978 
L 3425 0 
L 2847 0 
L 2847 2094 
Q 2847 2600 2669 2842 
Q 2491 3084 2119 3084 
Q 1678 3084 1418 2786 
Q 1159 2488 1159 1978 
L 1159 0 
L 581 0 
L 581 3500 
L 1159 3500 
L 1159 2956 
Q 1356 3278 1631 3431 
Q 1906 3584 2284 3584 
Q 2666 3584 2933 3390 
Q 3200 3197 3328 2828 
z
" transform="scale(0.015625)"/>
       <path id="DejaVuSans-65" d="M 3597 1894 
L 3597 1613 
L 953 1613 
Q 991 1019 1311 708 
Q 1631 397 2203 397 
Q 2534 397 2845 478 
Q 3156 559 3463 722 
L 3463 178 
Q 3153 47 2828 -22 
Q 2503 -91 2169 -91 
Q 1331 -91 842 396 
Q 353 884 353 1716 
Q 353 2575 817 3079 
Q 1281 3584 2069 3584 
Q 2775 3584 3186 3129 
Q 3597 2675 3597 1894 
z
M 3022 2063 
Q 3016 2534 2758 2815 
Q 2500 3097 2075 3097 
Q 1594 3097 1305 2825 
Q 1016 2553 972 2059 
L 3022 2063 
z
" transform="scale(0.015625)"/>
       <path id="DejaVuSans-74" d="M 1172 4494 
L 1172 3500 
L 2356 3500 
L 2356 3053 
L 1172 3053 
L 1172 1153 
Q 1172 725 1289 603 
Q 1406 481 1766 481 
L 2356 481 
L 2356 0 
L 1766 0 
Q 1100 0 847 248 
Q 594 497 594 1153 
L 594 3053 
L 172 3053 
L 172 3500 
L 594 3500 
L 594 4494 
L 1172 4494 
z
" transform="scale(0.015625)"/>
       <path id="DejaVuSans-61" d="M 2194 1759 
Q 1497 1759 1228 1600 
Q 959 1441 959 1056 
Q 959 750 1161 570 
Q 1363 391 1709 391 
Q 2188 391 2477 730 
Q 2766 1069 2766 1631 
L 2766 1759 
L 2194 1759 
z
M 3341 1997 
L 3341 0 
L 2766 0 
L 2766 531 
Q 2569 213 2275 61 
Q 1981 -91 1556 -91 
Q 1019 -91 701 211 
Q 384 513 384 1019 
Q 384 1609 779 1909 
Q 1175 2209 1959 2209 
L 2766 2209 
L 2766 2266 
Q 2766 2663 2505 2880 
Q 2244 3097 1772 3097 
Q 1472 3097 1187 3025 
Q 903 2953 641 2809 
L 641 3341 
Q 956 3463 1253 3523 
Q 1550 3584 1831 3584 
Q 2591 3584 2966 3190 
Q 3341 2797 3341 1997 
z
" transform="scale(0.015625)"/>
       <path id="DejaVuSans-6c" d="M 603 4863 
L 1178 4863 
L 1178 0 
L 603 0 
L 603 4863 
z
" transform="scale(0.015625)"/>
       <path id="DejaVuSans-20" transform="scale(0.015625)"/>
       <path id="DejaVuSans-53" d="M 3425 4513 
L 3425 3897 
Q 3066 4069 2747 4153 
Q 2428 4238 2131 4238 
Q 1616 4238 1336 4038 
Q 1056 3838 1056 3469 
Q 1056 3159 1242 3001 
Q 1428 2844 1947 2747 
L 2328 2669 
Q 3034 2534 3370 2195 
Q 3706 1856 3706 1288 
Q 3706 609 3251 259 
Q 2797 -91 1919 -91 
Q 1588 -91 1214 -16 
Q 841 59 441 206 
L 441 856 
Q 825 641 1194 531 
Q 1563 422 1919 422 
Q 2459 422 2753 634 
Q 3047 847 3047 1241 
Q 3047 1584 2836 1778 
Q 2625 1972 2144 2069 
L 1759 2144 
Q 1053 2284 737 2584 
Q 422 2884 422 3419 
Q 422 4038 858 4394 
Q 1294 4750 2059 4750 
Q 2388 4750 2728 4690 
Q 3069 4631 3425 4513 
z
" transform="scale(0.015625)"/>
       <path id="DejaVuSans-63" d="M 3122 3366 
L 3122 2828 
Q 2878 2963 2633 3030 
Q 2388 3097 2138 3097 
Q 1578 3097 1268 2742 
Q 959 2388 959 1747 
Q 959 1106 1268 751 
Q 1578 397 2138 397 
Q 2388 397 2633 464 
Q 2878 531 3122 666 
L 3122 134 
Q 2881 22 2623 -34 
Q 2366 -91 2075 -91 
Q 1284 -91 818 406 
Q 353 903 353 1747 
Q 353 2603 823 3093 
Q 1294 3584 2113 3584 
Q 2378 3584 2631 3529 
Q 2884 3475 3122 3366 
z
" transform="scale(0.015625)"/>
       <path id="DejaVuSans-2014" d="M 313 1978 
L 6088 1978 
L 6088 1528 
L 313 1528 
L 313 1978 
z
" transform="scale(0.015625)"/>
       <path id="DejaVuSans-34" d="M 2419 4116 
L 825 1625 
L 2419 1625 
L 2419 4116 
z
M 2253 4666 
L 3047 4666 
L 3047 1625 
L 3713 1625 
L 3713 1100 
L 3047 1100 
L 3047 0 
L 2419 0 
L 2419 1100 
L 313 1100 
L 313 1709 
L 2253 4666 
z
" transform="scale(0.015625)"/>
       <path id="DejaVuSans-32" d="M 1228 531 
L 3431 531 
L 3431 0 
L 469 0 
L 469 531 
Q 828 903 1448 1529 
Q 2069 2156 2228 2338 
Q 2531 2678 2651 2914 
Q 2772 3150 2772 3378 
Q 2772 3750 2511 3984 
Q 2250 4219 1831 4219 
Q 1534 4219 1204 4116 
Q 875 4013 500 3803 
L 500 4441 
Q 881 4594 1212 4672 
Q 1544 4750 1819 4750 
Q 2544 4750 2975 4387 
Q 3406 4025 3406 3419 
Q 3406 3131 3298 2873 
Q 3191 2616 2906 2266 
Q 2828 2175 2409 1742 
Q 1991 1309 1228 531 
z
" transform="scale(0.015625)"/>
       <path id="DejaVuSans-25" d="M 4653 2053 
Q 4381 2053 4226 1822 
Q 4072 1591 4072 1178 
Q 4072 772 4226 539 
Q 4381 306 4653 306 
Q 4919 306 5073 539 
Q 5228 772 5228 1178 
Q 5228 1588 5073 1820 
Q 4919 2053 4653 2053 
z
M 4653 2450 
Q 5147 2450 5437 2106 
Q 5728 1763 5728 1178 
Q 5728 594 5436 251 
Q 5144 -91 4653 -91 
Q 4153 -91 3862 251 
Q 3572 594 3572 1178 
Q 3572 1766 3864 2108 
Q 4156 2450 4653 2450 
z
M 1428 4353 
Q 1159 4353 1004 4120 
Q 850 3888 850 3481 
Q 850 3069 1003 2837 
Q 1156 2606 1428 2606 
Q 1700 2606 1854 2837 
Q 2009 3069 2009 3481 
Q 2009 3884 1853 4118 
Q 1697 4353 1428 4353 
z
M 4250 4750 
L 4750 4750 
L 1831 -91 
L 1331 -91 
L 4250 4750 
z
M 1428 4750 
Q 1922 4750 2215 4408 
Q 2509 4066 2509 3481 
Q 2509 2891 2217 2550 
Q 1925 2209 1428 2209 
Q 931 2209 642 2551 
Q 353 2894 353 3481 
Q 353 4063 643 4406 
Q 934 4750 1428 4750 
z
" transform="scale(0.015625)"/>
      </defs>
      <use xlink:href="#DejaVuSans-45"/>
      <use xlink:href="#DejaVuSans-6e" transform="translate(63.183594 0)"/>
      <use xlink:href="#DejaVuSans-76" transform="translate(126.5625 0)"/>
      <use xlink:href="#DejaVuSans-69" transform="translate(185.742188 0)"/>
      <use xlink:href="#DejaVuSans-72" transform="translate(213.525391 0)"/>
      <use xlink:href="#DejaVuSans-6f" transform="translate(252.388672 0)"/>
      <use xlink:href="#DejaVuSans-6e" transform="translate(313.570312 0)"/>
      <use xlink:href="#DejaVuSans-6d" transform="translate(376.949219 0)"/>
      <use xlink:href="#DejaVuSans-65" transform="translate(474.361328 0)"/>
      <use xlink:href="#DejaVuSans-6e" transform="translate(535.884766 0)"/>
      <use xlink:href="#DejaVuSans-74" transform="translate(599.263672 0)"/>
      <use xlink:href="#DejaVuSans-61" transform="translate(638.472656 0)"/>
      <use xlink:href="#DejaVuSans-6c" transform="translate(699.751953 0)"/>
      <use xlink:href="#DejaVuSans-20" transform="translate(727.535156 0)"/>
      <use xlink:href="#DejaVuSans-53" transform="translate(759.322266 0)"/>
      <use xlink:href="#DejaVuSans-63" transform="translate(822.798828 0)"/>
      <use xlink:href="#DejaVuSans-69" transform="translate(877.779297 0)"/>
      <use xlink:href="#DejaVuSans-65" transform="translate(905.5625 0)"/>
      <use xlink:href="#DejaVuSans-6e" transform="translate(967.085938 0)"/>
      <use xlink:href="#DejaVuSans-63" transform="translate(1030.464844 0)"/>
      <use xlink:href="#DejaVuSans-65" transform="translate(1085.445312 0)"/>
      <use xlink:href="#DejaVuSans-20" transform="translate(1146.96875 0)"/>
      <use xlink:href="#DejaVuSans-2014" transform="translate(1178.755859 0)"/>
      <use xlink:href="#DejaVuSans-20" transform="translate(1278.755859 0)"/>
      <use xlink:href="#DejaVuSans-34" transform="translate(1310.542969 0)"/>
      <use xlink:href="#DejaVuSans-32" transform="translate(1374.166016 0)"/>
      <use xlink:href="#DejaVuSans-25" transform="translate(1437.789062 0)"/>
     </g>
    </g>
    <g id="patch_12">
     <path d="M 326.3184 139.150312 
L 344.3184 139.150312 
L 344.3184 132.850312 
L 326.3184 132.850312 
z
" style="fill: #e8743b; stroke: #ffffff; stroke-width: 1.5; stroke-linejoin: miter"/>
    </g>
    <g id="text_3">
     <!-- Earth and Planetary Sciences — 17% -->
     <g style="fill: #23414e" transform="translate(351.5184 139.150312) scale(0.09 -0.09)">
      <defs>
       <path id="DejaVuSans-68" d="M 3513 2113 
L 3513 0 
L 2938 0 
L 2938 2094 
Q 2938 2591 2744 2837 
Q 2550 3084 2163 3084 
Q 1697 3084 1428 2787 
Q 1159 2491 1159 1978 
L 1159 0 
L 581 0 
L 581 4863 
L 1159 4863 
L 1159 2956 
Q 1366 3272 1645 3428 
Q 1925 3584 2291 3584 
Q 2894 3584 3203 3211 
Q 3513 2838 3513 2113 
z
" transform="scale(0.015625)"/>
       <path id="DejaVuSans-64" d="M 2906 2969 
L 2906 4863 
L 3481 4863 
L 3481 0 
L 2906 0 
L 2906 525 
Q 2725 213 2448 61 
Q 2172 -91 1784 -91 
Q 1150 -91 751 415 
Q 353 922 353 1747 
Q 353 2572 751 3078 
Q 1150 3584 1784 3584 
Q 2172 3584 2448 3432 
Q 2725 3281 2906 2969 
z
M 947 1747 
Q 947 1113 1208 752 
Q 1469 391 1925 391 
Q 2381 391 2643 752 
Q 2906 1113 2906 1747 
Q 2906 2381 2643 2742 
Q 2381 3103 1925 3103 
Q 1469 3103 1208 2742 
Q 947 2381 947 1747 
z
" transform="scale(0.015625)"/>
       <path id="DejaVuSans-50" d="M 1259 4147 
L 1259 2394 
L 2053 2394 
Q 2494 2394 2734 2622 
Q 2975 2850 2975 3272 
Q 2975 3691 2734 3919 
Q 2494 4147 2053 4147 
L 1259 4147 
z
M 628 4666 
L 2053 4666 
Q 2838 4666 3239 4311 
Q 3641 3956 3641 3272 
Q 3641 2581 3239 2228 
Q 2838 1875 2053 1875 
L 1259 1875 
L 1259 0 
L 628 0 
L 628 4666 
z
" transform="scale(0.015625)"/>
       <path id="DejaVuSans-79" d="M 2059 -325 
Q 1816 -950 1584 -1140 
Q 1353 -1331 966 -1331 
L 506 -1331 
L 506 -850 
L 844 -850 
Q 1081 -850 1212 -737 
Q 1344 -625 1503 -206 
L 1606 56 
L 191 3500 
L 800 3500 
L 1894 763 
L 2988 3500 
L 3597 3500 
L 2059 -325 
z
" transform="scale(0.015625)"/>
       <path id="DejaVuSans-73" d="M 2834 3397 
L 2834 2853 
Q 2591 2978 2328 3040 
Q 2066 3103 1784 3103 
Q 1356 3103 1142 2972 
Q 928 2841 928 2578 
Q 928 2378 1081 2264 
Q 1234 2150 1697 2047 
L 1894 2003 
Q 2506 1872 2764 1633 
Q 3022 1394 3022 966 
Q 3022 478 2636 193 
Q 2250 -91 1575 -91 
Q 1294 -91 989 -36 
Q 684 19 347 128 
L 347 722 
Q 666 556 975 473 
Q 1284 391 1588 391 
Q 1994 391 2212 530 
Q 2431 669 2431 922 
Q 2431 1156 2273 1281 
Q 2116 1406 1581 1522 
L 1381 1569 
Q 847 1681 609 1914 
Q 372 2147 372 2553 
Q 372 3047 722 3315 
Q 1072 3584 1716 3584 
Q 2034 3584 2315 3537 
Q 2597 3491 2834 3397 
z
" transform="scale(0.015625)"/>
       <path id="DejaVuSans-31" d="M 794 531 
L 1825 531 
L 1825 4091 
L 703 3866 
L 703 4441 
L 1819 4666 
L 2450 4666 
L 2450 531 
L 3481 531 
L 3481 0 
L 794 0 
L 794 531 
z
" transform="scale(0.015625)"/>
       <path id="DejaVuSans-37" d="M 525 4666 
L 3525 4666 
L 3525 4397 
L 1831 0 
L 1172 0 
L 2766 4134 
L 525 4134 
L 525 4666 
z
" transform="scale(0.015625)"/>
      </defs>
      <use xlink:href="#DejaVuSans-45"/>
      <use xlink:href="#DejaVuSans-61" transform="translate(63.183594 0)"/>
      <use xlink:href="#DejaVuSans-72" transform="translate(124.462891 0)"/>
      <use xlink:href="#DejaVuSans-74" transform="translate(165.576172 0)"/>
      <use xlink:href="#DejaVuSans-68" transform="translate(204.785156 0)"/>
      <use xlink:href="#DejaVuSans-20" transform="translate(268.164062 0)"/>
      <use xlink:href="#DejaVuSans-61" transform="translate(299.951172 0)"/>
      <use xlink:href="#DejaVuSans-6e" transform="translate(361.230469 0)"/>
      <use xlink:href="#DejaVuSans-64" transform="translate(424.609375 0)"/>
      <use xlink:href="#DejaVuSans-20" transform="translate(488.085938 0)"/>
      <use xlink:href="#DejaVuSans-50" transform="translate(519.873047 0)"/>
      <use xlink:href="#DejaVuSans-6c" transform="translate(580.175781 0)"/>
      <use xlink:href="#DejaVuSans-61" transform="translate(607.958984 0)"/>
      <use xlink:href="#DejaVuSans-6e" transform="translate(669.238281 0)"/>
      <use xlink:href="#DejaVuSans-65" transform="translate(732.617188 0)"/>
      <use xlink:href="#DejaVuSans-74" transform="translate(794.140625 0)"/>
      <use xlink:href="#DejaVuSans-61" transform="translate(833.349609 0)"/>
      <use xlink:href="#DejaVuSans-72" transform="translate(894.628906 0)"/>
      <use xlink:href="#DejaVuSans-79" transform="translate(935.742188 0)"/>
      <use xlink:href="#DejaVuSans-20" transform="translate(994.921875 0)"/>
      <use xlink:href="#DejaVuSans-53" transform="translate(1026.708984 0)"/>
      <use xlink:href="#DejaVuSans-63" transform="translate(1090.185547 0)"/>
      <use xlink:href="#DejaVuSans-69" transform="translate(1145.166016 0)"/>
      <use xlink:href="#DejaVuSans-65" transform="translate(1172.949219 0)"/>
      <use xlink:href="#DejaVuSans-6e" transform="translate(1234.472656 0)"/>
      <use xlink:href="#DejaVuSans-63" transform="translate(1297.851562 0)"/>
      <use xlink:href="#DejaVuSans-65" transform="translate(1352.832031 0)"/>
      <use xlink:href="#DejaVuSans-73" transform="translate(1414.355469 0)"/>
      <use xlink:href="#DejaVuSans-20" transform="translate(1466.455078 0)"/>
      <use xlink:href="#DejaVuSans-2014" transform="translate(1498.242188 0)"/>
      <use xlink:href="#DejaVuSans-20" transform="translate(1598.242188 0)"/>
      <use xlink:href="#DejaVuSans-31" transform="translate(1630.029297 0)"/>
      <use xlink:href="#DejaVuSans-37" transform="translate(1693.652344 0)"/>
      <use xlink:href="#DejaVuSans-25" transform="translate(1757.275391 0)"/>
     </g>
    </g>
    <g id="patch_13">
     <path d="M 326.3184 152.360625 
L 344.3184 152.360625 
L 344.3184 146.060625 
L 326.3184 146.060625 
z
" style="fill: #f2b134; stroke: #ffffff; stroke-width: 1.5; stroke-linejoin: miter"/>
    </g>
    <g id="text_4">
     <!-- Biochemistry, Genetics and Molecular Biology — 17% -->
     <g style="fill: #23414e" transform="translate(351.5184 152.360625) scale(0.09 -0.09)">
      <defs>
       <path id="DejaVuSans-42" d="M 1259 2228 
L 1259 519 
L 2272 519 
Q 2781 519 3026 730 
Q 3272 941 3272 1375 
Q 3272 1813 3026 2020 
Q 2781 2228 2272 2228 
L 1259 2228 
z
M 1259 4147 
L 1259 2741 
L 2194 2741 
Q 2656 2741 2882 2914 
Q 3109 3088 3109 3444 
Q 3109 3797 2882 3972 
Q 2656 4147 2194 4147 
L 1259 4147 
z
M 628 4666 
L 2241 4666 
Q 2963 4666 3353 4366 
Q 3744 4066 3744 3513 
Q 3744 3084 3544 2831 
Q 3344 2578 2956 2516 
Q 3422 2416 3680 2098 
Q 3938 1781 3938 1306 
Q 3938 681 3513 340 
Q 3088 0 2303 0 
L 628 0 
L 628 4666 
z
" transform="scale(0.015625)"/>
       <path id="DejaVuSans-2c" d="M 750 794 
L 1409 794 
L 1409 256 
L 897 -744 
L 494 -744 
L 750 256 
L 750 794 
z
" transform="scale(0.015625)"/>
       <path id="DejaVuSans-47" d="M 3809 666 
L 3809 1919 
L 2778 1919 
L 2778 2438 
L 4434 2438 
L 4434 434 
Q 4069 175 3628 42 
Q 3188 -91 2688 -91 
Q 1594 -91 976 548 
Q 359 1188 359 2328 
Q 359 3472 976 4111 
Q 1594 4750 2688 4750 
Q 3144 4750 3555 4637 
Q 3966 4525 4313 4306 
L 4313 3634 
Q 3963 3931 3569 4081 
Q 3175 4231 2741 4231 
Q 1884 4231 1454 3753 
Q 1025 3275 1025 2328 
Q 1025 1384 1454 906 
Q 1884 428 2741 428 
Q 3075 428 3337 486 
Q 3600 544 3809 666 
z
" transform="scale(0.015625)"/>
       <path id="DejaVuSans-4d" d="M 628 4666 
L 1569 4666 
L 2759 1491 
L 3956 4666 
L 4897 4666 
L 4897 0 
L 4281 0 
L 4281 4097 
L 3078 897 
L 2444 897 
L 1241 4097 
L 1241 0 
L 628 0 
L 628 4666 
z
" transform="scale(0.015625)"/>
       <path id="DejaVuSans-75" d="M 544 1381 
L 544 3500 
L 1119 3500 
L 1119 1403 
Q 1119 906 1312 657 
Q 1506 409 1894 409 
Q 2359 409 2629 706 
Q 2900 1003 2900 1516 
L 2900 3500 
L 3475 3500 
L 3475 0 
L 2900 0 
L 2900 538 
Q 2691 219 2414 64 
Q 2138 -91 1772 -91 
Q 1169 -91 856 284 
Q 544 659 544 1381 
z
M 1991 3584 
L 1991 3584 
z
" transform="scale(0.015625)"/>
       <path id="DejaVuSans-67" d="M 2906 1791 
Q 2906 2416 2648 2759 
Q 2391 3103 1925 3103 
Q 1463 3103 1205 2759 
Q 947 2416 947 1791 
Q 947 1169 1205 825 
Q 1463 481 1925 481 
Q 2391 481 2648 825 
Q 2906 1169 2906 1791 
z
M 3481 434 
Q 3481 -459 3084 -895 
Q 2688 -1331 1869 -1331 
Q 1566 -1331 1297 -1286 
Q 1028 -1241 775 -1147 
L 775 -588 
Q 1028 -725 1275 -790 
Q 1522 -856 1778 -856 
Q 2344 -856 2625 -561 
Q 2906 -266 2906 331 
L 2906 616 
Q 2728 306 2450 153 
Q 2172 0 1784 0 
Q 1141 0 747 490 
Q 353 981 353 1791 
Q 353 2603 747 3093 
Q 1141 3584 1784 3584 
Q 2172 3584 2450 3431 
Q 2728 3278 2906 2969 
L 2906 3500 
L 3481 3500 
L 3481 434 
z
" transform="scale(0.015625)"/>
      </defs>
      <use xlink:href="#DejaVuSans-42"/>
      <use xlink:href="#DejaVuSans-69" transform="translate(68.603516 0)"/>
      <use xlink:href="#DejaVuSans-6f" transform="translate(96.386719 0)"/>
      <use xlink:href="#DejaVuSans-63" transform="translate(157.568359 0)"/>
      <use xlink:href="#DejaVuSans-68" transform="translate(212.548828 0)"/>
      <use xlink:href="#DejaVuSans-65" transform="translate(275.927734 0)"/>
      <use xlink:href="#DejaVuSans-6d" transform="translate(337.451172 0)"/>
      <use xlink:href="#DejaVuSans-69" transform="translate(434.863281 0)"/>
      <use xlink:href="#DejaVuSans-73" transform="translate(462.646484 0)"/>
      <use xlink:href="#DejaVuSans-74" transform="translate(514.746094 0)"/>
      <use xlink:href="#DejaVuSans-72" transform="translate(553.955078 0)"/>
      <use xlink:href="#DejaVuSans-79" transform="translate(595.068359 0)"/>
      <use xlink:href="#DejaVuSans-2c" transform="translate(654.248047 0)"/>
      <use xlink:href="#DejaVuSans-20" transform="translate(686.035156 0)"/>
      <use xlink:href="#DejaVuSans-47" transform="translate(717.822266 0)"/>
      <use xlink:href="#DejaVuSans-65" transform="translate(795.3125 0)"/>
      <use xlink:href="#DejaVuSans-6e" transform="translate(856.835938 0)"/>
      <use xlink:href="#DejaVuSans-65" transform="translate(920.214844 0)"/>
      <use xlink:href="#DejaVuSans-74" transform="translate(981.738281 0)"/>
      <use xlink:href="#DejaVuSans-69" transform="translate(1020.947266 0)"/>
      <use xlink:href="#DejaVuSans-63" transform="translate(1048.730469 0)"/>
      <use xlink:href="#DejaVuSans-73" transform="translate(1103.710938 0)"/>
      <use xlink:href="#DejaVuSans-20" transform="translate(1155.810547 0)"/>
      <use xlink:href="#DejaVuSans-61" transform="translate(1187.597656 0)"/>
      <use xlink:href="#DejaVuSans-6e" transform="translate(1248.876953 0)"/>
      <use xlink:href="#DejaVuSans-64" transform="translate(1312.255859 0)"/>
      <use xlink:href="#DejaVuSans-20" transform="translate(1375.732422 0)"/>
      <use xlink:href="#DejaVuSans-4d" transform="translate(1407.519531 0)"/>
      <use xlink:href="#DejaVuSans-6f" transform="translate(1493.798828 0)"/>
      <use xlink:href="#DejaVuSans-6c" transform="translate(1554.980469 0)"/>
      <use xlink:href="#DejaVuSans-65" transform="translate(1582.763672 0)"/>
      <use xlink:href="#DejaVuSans-63" transform="translate(1644.287109 0)"/>
      <use xlink:href="#DejaVuSans-75" transform="translate(1699.267578 0)"/>
      <use xlink:href="#DejaVuSans-6c" transform="translate(1762.646484 0)"/>
      <use xlink:href="#DejaVuSans-61" transform="translate(1790.429688 0)"/>
      <use xlink:href="#DejaVuSans-72" transform="translate(1851.708984 0)"/>
      <use xlink:href="#DejaVuSans-20" transform="translate(1892.822266 0)"/>
      <use xlink:href="#DejaVuSans-42" transform="translate(1924.609375 0)"/>
      <use xlink:href="#DejaVuSans-69" transform="translate(1993.212891 0)"/>
      <use xlink:href="#DejaVuSans-6f" transform="translate(2020.996094 0)"/>
      <use xlink:href="#DejaVuSans-6c" transform="translate(2082.177734 0)"/>
      <use xlink:href="#DejaVuSans-6f" transform="translate(2109.960938 0)"/>
      <use xlink:href="#DejaVuSans-67" transform="translate(2171.142578 0)"/>
      <use xlink:href="#DejaVuSans-79" transform="translate(2234.619141 0)"/>
      <use xlink:href="#DejaVuSans-20" transform="translate(2293.798828 0)"/>
      <use xlink:href="#DejaVuSans-2014" transform="translate(2325.585938 0)"/>
      <use xlink:href="#DejaVuSans-20" transform="translate(2425.585938 0)"/>
      <use xlink:href="#DejaVuSans-31" transform="translate(2457.373047 0)"/>
      <use xlink:href="#DejaVuSans-37" transform="translate(2520.996094 0)"/>
      <use xlink:href="#DejaVuSans-25" transform="translate(2584.619141 0)"/>
     </g>
    </g>
    <g id="patch_14">
     <path d="M 326.3184 165.570937 
L 344.3184 165.570937 
L 344.3184 159.270937 
L 326.3184 159.270937 
z
" style="fill: #5a9e6f; stroke: #ffffff; stroke-width: 1.5; stroke-linejoin: miter"/>
    </g>
    <g id="text_5">
     <!-- Agricultural and Biological Sciences — 8% -->
     <g style="fill: #23414e" transform="translate(351.5184 165.570937) scale(0.09 -0.09)">
      <defs>
       <path id="DejaVuSans-41" d="M 2188 4044 
L 1331 1722 
L 3047 1722 
L 2188 4044 
z
M 1831 4666 
L 2547 4666 
L 4325 0 
L 3669 0 
L 3244 1197 
L 1141 1197 
L 716 0 
L 50 0 
L 1831 4666 
z
" transform="scale(0.015625)"/>
       <path id="DejaVuSans-38" d="M 2034 2216 
Q 1584 2216 1326 1975 
Q 1069 1734 1069 1313 
Q 1069 891 1326 650 
Q 1584 409 2034 409 
Q 2484 409 2743 651 
Q 3003 894 3003 1313 
Q 3003 1734 2745 1975 
Q 2488 2216 2034 2216 
z
M 1403 2484 
Q 997 2584 770 2862 
Q 544 3141 544 3541 
Q 544 4100 942 4425 
Q 1341 4750 2034 4750 
Q 2731 4750 3128 4425 
Q 3525 4100 3525 3541 
Q 3525 3141 3298 2862 
Q 3072 2584 2669 2484 
Q 3125 2378 3379 2068 
Q 3634 1759 3634 1313 
Q 3634 634 3220 271 
Q 2806 -91 2034 -91 
Q 1263 -91 848 271 
Q 434 634 434 1313 
Q 434 1759 690 2068 
Q 947 2378 1403 2484 
z
M 1172 3481 
Q 1172 3119 1398 2916 
Q 1625 2713 2034 2713 
Q 2441 2713 2670 2916 
Q 2900 3119 2900 3481 
Q 2900 3844 2670 4047 
Q 2441 4250 2034 4250 
Q 1625 4250 1398 4047 
Q 1172 3844 1172 3481 
z
" transform="scale(0.015625)"/>
      </defs>
      <use xlink:href="#DejaVuSans-41"/>
      <use xlink:href="#DejaVuSans-67" transform="translate(68.408203 0)"/>
      <use xlink:href="#DejaVuSans-72" transform="translate(131.884766 0)"/>
      <use xlink:href="#DejaVuSans-69" transform="translate(172.998047 0)"/>
      <use xlink:href="#DejaVuSans-63" transform="translate(200.78125 0)"/>
      <use xlink:href="#DejaVuSans-75" transform="translate(255.761719 0)"/>
      <use xlink:href="#DejaVuSans-6c" transform="translate(319.140625 0)"/>
      <use xlink:href="#DejaVuSans-74" transform="translate(346.923828 0)"/>
      <use xlink:href="#DejaVuSans-75" transform="translate(386.132812 0)"/>
      <use xlink:href="#DejaVuSans-72" transform="translate(449.511719 0)"/>
      <use xlink:href="#DejaVuSans-61" transform="translate(490.625 0)"/>
      <use xlink:href="#DejaVuSans-6c" transform="translate(551.904297 0)"/>
      <use xlink:href="#DejaVuSans-20" transform="translate(579.6875 0)"/>
      <use xlink:href="#DejaVuSans-61" transform="translate(611.474609 0)"/>
      <use xlink:href="#DejaVuSans-6e" transform="translate(672.753906 0)"/>
      <use xlink:href="#DejaVuSans-64" transform="translate(736.132812 0)"/>
      <use xlink:href="#DejaVuSans-20" transform="translate(799.609375 0)"/>
      <use xlink:href="#DejaVuSans-42" transform="translate(831.396484 0)"/>
      <use xlink:href="#DejaVuSans-69" transform="translate(900 0)"/>
      <use xlink:href="#DejaVuSans-6f" transform="translate(927.783203 0)"/>
      <use xlink:href="#DejaVuSans-6c" transform="translate(988.964844 0)"/>
      <use xlink:href="#DejaVuSans-6f" transform="translate(1016.748047 0)"/>
      <use xlink:href="#DejaVuSans-67" transform="translate(1077.929688 0)"/>
      <use xlink:href="#DejaVuSans-69" transform="translate(1141.40625 0)"/>
      <use xlink:href="#DejaVuSans-63" transform="translate(1169.189453 0)"/>
      <use xlink:href="#DejaVuSans-61" transform="translate(1224.169922 0)"/>
      <use xlink:href="#DejaVuSans-6c" transform="translate(1285.449219 0)"/>
      <use xlink:href="#DejaVuSans-20" transform="translate(1313.232422 0)"/>
      <use xlink:href="#DejaVuSans-53" transform="translate(1345.019531 0)"/>
      <use xlink:href="#DejaVuSans-63" transform="translate(1408.496094 0)"/>
      <use xlink:href="#DejaVuSans-69" transform="translate(1463.476562 0)"/>
      <use xlink:href="#DejaVuSans-65" transform="translate(1491.259766 0)"/>
      <use xlink:href="#DejaVuSans-6e" transform="translate(1552.783203 0)"/>
      <use xlink:href="#DejaVuSans-63" transform="translate(1616.162109 0)"/>
      <use xlink:href="#DejaVuSans-65" transform="translate(1671.142578 0)"/>
      <use xlink:href="#DejaVuSans-73" transform="translate(1732.666016 0)"/>
      <use xlink:href="#DejaVuSans-20" transform="translate(1784.765625 0)"/>
      <use xlink:href="#DejaVuSans-2014" transform="translate(1816.552734 0)"/>
      <use xlink:href="#DejaVuSans-20" transform="translate(1916.552734 0)"/>
      <use xlink:href="#DejaVuSans-38" transform="translate(1948.339844 0)"/>
      <use xlink:href="#DejaVuSans-25" transform="translate(2011.962891 0)"/>
     </g>
    </g>
    <g id="patch_15">
     <path d="M 326.3184 178.78125 
L 344.3184 178.78125 
L 344.3184 172.48125 
L 326.3184 172.48125 
z
" style="fill: #8c6bb1; stroke: #ffffff; stroke-width: 1.5; stroke-linejoin: miter"/>
    </g>
    <g id="text_6">
     <!-- Engineering — 3% -->
     <g style="fill: #23414e" transform="translate(351.5184 178.78125) scale(0.09 -0.09)">
      <defs>
       <path id="DejaVuSans-33" d="M 2597 2516 
Q 3050 2419 3304 2112 
Q 3559 1806 3559 1356 
Q 3559 666 3084 287 
Q 2609 -91 1734 -91 
Q 1441 -91 1130 -33 
Q 819 25 488 141 
L 488 750 
Q 750 597 1062 519 
Q 1375 441 1716 441 
Q 2309 441 2620 675 
Q 2931 909 2931 1356 
Q 2931 1769 2642 2001 
Q 2353 2234 1838 2234 
L 1294 2234 
L 1294 2753 
L 1863 2753 
Q 2328 2753 2575 2939 
Q 2822 3125 2822 3475 
Q 2822 3834 2567 4026 
Q 2313 4219 1838 4219 
Q 1578 4219 1281 4162 
Q 984 4106 628 3988 
L 628 4550 
Q 988 4650 1302 4700 
Q 1616 4750 1894 4750 
Q 2613 4750 3031 4423 
Q 3450 4097 3450 3541 
Q 3450 3153 3228 2886 
Q 3006 2619 2597 2516 
z
" transform="scale(0.015625)"/>
      </defs>
      <use xlink:href="#DejaVuSans-45"/>
      <use xlink:href="#DejaVuSans-6e" transform="translate(63.183594 0)"/>
      <use xlink:href="#DejaVuSans-67" transform="translate(126.5625 0)"/>
      <use xlink:href="#DejaVuSans-69" transform="translate(190.039062 0)"/>
      <use xlink:href="#DejaVuSans-6e" transform="translate(217.822266 0)"/>
      <use xlink:href="#DejaVuSans-65" transform="translate(281.201172 0)"/>
      <use xlink:href="#DejaVuSans-65" transform="translate(342.724609 0)"/>
      <use xlink:href="#DejaVuSans-72" transform="translate(404.248047 0)"/>
      <use xlink:href="#DejaVuSans-69" transform="translate(445.361328 0)"/>
      <use xlink:href="#DejaVuSans-6e" transform="translate(473.144531 0)"/>
      <use xlink:href="#DejaVuSans-67" transform="translate(536.523438 0)"/>
      <use xlink:href="#DejaVuSans-20" transform="translate(600 0)"/>
      <use xlink:href="#DejaVuSans-2014" transform="translate(631.787109 0)"/>
      <use xlink:href="#DejaVuSans-20" transform="translate(731.787109 0)"/>
      <use xlink:href="#DejaVuSans-33" transform="translate(763.574219 0)"/>
      <use xlink:href="#DejaVuSans-25" transform="translate(827.197266 0)"/>
     </g>
    </g>
    <g id="patch_16">
     <path d="M 326.3184 191.991562 
L 344.3184 191.991562 
L 344.3184 185.691562 
L 326.3184 185.691562 
z
" style="fill: #c0504d; stroke: #ffffff; stroke-width: 1.5; stroke-linejoin: miter"/>
    </g>
    <g id="text_7">
     <!-- Medicine — 2% -->
     <g style="fill: #23414e" transform="translate(351.5184 191.991562) scale(0.09 -0.09)">
      <use xlink:href="#DejaVuSans-4d"/>
      <use xlink:href="#DejaVuSans-65" transform="translate(86.279297 0)"/>
      <use xlink:href="#DejaVuSans-64" transform="translate(147.802734 0)"/>
      <use xlink:href="#DejaVuSans-69" transform="translate(211.279297 0)"/>
      <use xlink:href="#DejaVuSans-63" transform="translate(239.0625 0)"/>
      <use xlink:href="#DejaVuSans-69" transform="translate(294.042969 0)"/>
      <use xlink:href="#DejaVuSans-6e" transform="translate(321.826172 0)"/>
      <use xlink:href="#DejaVuSans-65" transform="translate(385.205078 0)"/>
      <use xlink:href="#DejaVuSans-20" transform="translate(446.728516 0)"/>
      <use xlink:href="#DejaVuSans-2014" transform="translate(478.515625 0)"/>
      <use xlink:href="#DejaVuSans-20" transform="translate(578.515625 0)"/>
      <use xlink:href="#DejaVuSans-32" transform="translate(610.302734 0)"/>
      <use xlink:href="#DejaVuSans-25" transform="translate(673.925781 0)"/>
     </g>
    </g>
    <g id="patch_17">
     <path d="M 326.3184 205.201875 
L 344.3184 205.201875 
L 344.3184 198.901875 
L 326.3184 198.901875 
z
" style="fill: #9aa5ab; stroke: #ffffff; stroke-width: 1.5; stroke-linejoin: miter"/>
    </g>
    <g id="text_8">
     <!-- Social Sciences — 2% -->
     <g style="fill: #23414e" transform="translate(351.5184 205.201875) scale(0.09 -0.09)">
      <use xlink:href="#DejaVuSans-53"/>
      <use xlink:href="#DejaVuSans-6f" transform="translate(63.476562 0)"/>
      <use xlink:href="#DejaVuSans-63" transform="translate(124.658203 0)"/>
      <use xlink:href="#DejaVuSans-69" transform="translate(179.638672 0)"/>
      <use xlink:href="#DejaVuSans-61" transform="translate(207.421875 0)"/>
      <use xlink:href="#DejaVuSans-6c" transform="translate(268.701172 0)"/>
      <use xlink:href="#DejaVuSans-20" transform="translate(296.484375 0)"/>
      <use xlink:href="#DejaVuSans-53" transform="translate(328.271484 0)"/>
      <use xlink:href="#DejaVuSans-63" transform="translate(391.748047 0)"/>
      <use xlink:href="#DejaVuSans-69" transform="translate(446.728516 0)"/>
      <use xlink:href="#DejaVuSans-65" transform="translate(474.511719 0)"/>
      <use xlink:href="#DejaVuSans-6e" transform="translate(536.035156 0)"/>
      <use xlink:href="#DejaVuSans-63" transform="translate(599.414062 0)"/>
      <use xlink:href="#DejaVuSans-65" transform="translate(654.394531 0)"/>
      <use xlink:href="#DejaVuSans-73" transform="translate(715.917969 0)"/>
      <use xlink:href="#DejaVuSans-20" transform="translate(768.017578 0)"/>
      <use xlink:href="#DejaVuSans-2014" transform="translate(799.804688 0)"/>
      <use xlink:href="#DejaVuSans-20" transform="translate(899.804688 0)"/>
      <use xlink:href="#DejaVuSans-32" transform="translate(931.591797 0)"/>
      <use xlink:href="#DejaVuSans-25" transform="translate(995.214844 0)"/>
     </g>
    </g>
    <g id="patch_18">
     <path d="M 326.3184 218.412187 
L 344.3184 218.412187 
L 344.3184 212.112187 
L 326.3184 212.112187 
z
" style="fill: #23414e; stroke: #ffffff; stroke-width: 1.5; stroke-linejoin: miter"/>
    </g>
    <g id="text_9">
     <!-- Immunology and Microbiology — 1% -->
     <g style="fill: #23414e" transform="translate(351.5184 218.412187) scale(0.09 -0.09)">
      <defs>
       <path id="DejaVuSans-49" d="M 628 4666 
L 1259 4666 
L 1259 0 
L 628 0 
L 628 4666 
z
" transform="scale(0.015625)"/>
       <path id="DejaVuSans-62" d="M 3116 1747 
Q 3116 2381 2855 2742 
Q 2594 3103 2138 3103 
Q 1681 3103 1420 2742 
Q 1159 2381 1159 1747 
Q 1159 1113 1420 752 
Q 1681 391 2138 391 
Q 2594 391 2855 752 
Q 3116 1113 3116 1747 
z
M 1159 2969 
Q 1341 3281 1617 3432 
Q 1894 3584 2278 3584 
Q 2916 3584 3314 3078 
Q 3713 2572 3713 1747 
Q 3713 922 3314 415 
Q 2916 -91 2278 -91 
Q 1894 -91 1617 61 
Q 1341 213 1159 525 
L 1159 0 
L 581 0 
L 581 4863 
L 1159 4863 
L 1159 2969 
z
" transform="scale(0.015625)"/>
      </defs>
      <use xlink:href="#DejaVuSans-49"/>
      <use xlink:href="#DejaVuSans-6d" transform="translate(29.492188 0)"/>
      <use xlink:href="#DejaVuSans-6d" transform="translate(126.904297 0)"/>
      <use xlink:href="#DejaVuSans-75" transform="translate(224.316406 0)"/>
      <use xlink:href="#DejaVuSans-6e" transform="translate(287.695312 0)"/>
      <use xlink:href="#DejaVuSans-6f" transform="translate(351.074219 0)"/>
      <use xlink:href="#DejaVuSans-6c" transform="translate(412.255859 0)"/>
      <use xlink:href="#DejaVuSans-6f" transform="translate(440.039062 0)"/>
      <use xlink:href="#DejaVuSans-67" transform="translate(501.220703 0)"/>
      <use xlink:href="#DejaVuSans-79" transform="translate(564.697266 0)"/>
      <use xlink:href="#DejaVuSans-20" transform="translate(623.876953 0)"/>
      <use xlink:href="#DejaVuSans-61" transform="translate(655.664062 0)"/>
      <use xlink:href="#DejaVuSans-6e" transform="translate(716.943359 0)"/>
      <use xlink:href="#DejaVuSans-64" transform="translate(780.322266 0)"/>
      <use xlink:href="#DejaVuSans-20" transform="translate(843.798828 0)"/>
      <use xlink:href="#DejaVuSans-4d" transform="translate(875.585938 0)"/>
      <use xlink:href="#DejaVuSans-69" transform="translate(961.865234 0)"/>
      <use xlink:href="#DejaVuSans-63" transform="translate(989.648438 0)"/>
      <use xlink:href="#DejaVuSans-72" transform="translate(1044.628906 0)"/>
      <use xlink:href="#DejaVuSans-6f" transform="translate(1083.492188 0)"/>
      <use xlink:href="#DejaVuSans-62" transform="translate(1144.673828 0)"/>
      <use xlink:href="#DejaVuSans-69" transform="translate(1208.150391 0)"/>
      <use xlink:href="#DejaVuSans-6f" transform="translate(1235.933594 0)"/>
      <use xlink:href="#DejaVuSans-6c" transform="translate(1297.115234 0)"/>
      <use xlink:href="#DejaVuSans-6f" transform="translate(1324.898438 0)"/>
      <use xlink:href="#DejaVuSans-67" transform="translate(1386.080078 0)"/>
      <use xlink:href="#DejaVuSans-79" transform="translate(1449.556641 0)"/>
      <use xlink:href="#DejaVuSans-20" transform="translate(1508.736328 0)"/>
      <use xlink:href="#DejaVuSans-2014" transform="translate(1540.523438 0)"/>
      <use xlink:href="#DejaVuSans-20" transform="translate(1640.523438 0)"/>
      <use xlink:href="#DejaVuSans-31" transform="translate(1672.310547 0)"/>
      <use xlink:href="#DejaVuSans-25" transform="translate(1735.933594 0)"/>
     </g>
    </g>
    <g id="patch_19">
     <path d="M 326.3184 231.6225 
L 344.3184 231.6225 
L 344.3184 225.3225 
L 326.3184 225.3225 
z
" style="fill: #9aa5ab; stroke: #ffffff; stroke-width: 1.5; stroke-linejoin: miter"/>
    </g>
    <g id="text_10">
     <!-- Other — 7% -->
     <g style="fill: #23414e" transform="translate(351.5184 231.6225) scale(0.09 -0.09)">
      <defs>
       <path id="DejaVuSans-4f" d="M 2522 4238 
Q 1834 4238 1429 3725 
Q 1025 3213 1025 2328 
Q 1025 1447 1429 934 
Q 1834 422 2522 422 
Q 3209 422 3611 934 
Q 4013 1447 4013 2328 
Q 4013 3213 3611 3725 
Q 3209 4238 2522 4238 
z
M 2522 4750 
Q 3503 4750 4090 4092 
Q 4678 3434 4678 2328 
Q 4678 1225 4090 567 
Q 3503 -91 2522 -91 
Q 1538 -91 948 565 
Q 359 1222 359 2328 
Q 359 3434 948 4092 
Q 1538 4750 2522 4750 
z
" transform="scale(0.015625)"/>
      </defs>
      <use xlink:href="#DejaVuSans-4f"/>
      <use xlink:href="#DejaVuSans-74" transform="translate(78.710938 0)"/>
      <use xlink:href="#DejaVuSans-68" transform="translate(117.919922 0)"/>
      <use xlink:href="#DejaVuSans-65" transform="translate(181.298828 0)"/>
      <use xlink:href="#DejaVuSans-72" transform="translate(242.822266 0)"/>
      <use xlink:href="#DejaVuSans-20" transform="translate(283.935547 0)"/>
      <use xlink:href="#DejaVuSans-2014" transform="translate(315.722656 0)"/>
      <use xlink:href="#DejaVuSans-20" transform="translate(415.722656 0)"/>
      <use xlink:href="#DejaVuSans-37" transform="translate(447.509766 0)"/>
      <use xlink:href="#DejaVuSans-25" transform="translate(511.132812 0)"/>
     </g>
    </g>
   </g>
  </g>
 </g>
</svg>
